# This file uses centimeters as units for non-parametric coordinates.

mtllib pique.mtl
g default
v -0.232436 0.665347 -0.603320
v -0.232436 1.494453 0.720413
v -0.226992 1.497131 0.717647
v -0.230842 1.495980 0.716533
v -0.232436 1.493203 0.713845
v -0.232436 1.910251 0.354032
v -0.230842 1.912590 0.357099
v -0.226992 1.913559 0.358369
v 0.258733 1.494453 0.720413
v 0.258733 1.493203 0.713845
v 0.257139 1.495980 0.716533
v 0.253289 1.497131 0.717647
v 0.253289 1.913559 0.358369
v 0.257139 1.912588 0.357100
v 0.258733 1.910246 0.354036
v -0.226993 1.474189 -0.696380
v -0.230842 1.473129 -0.695186
v -0.232436 1.470571 -0.692303
v -0.232436 1.446590 -0.715520
v -0.230842 1.449086 -0.718462
v -0.226992 1.450120 -0.719680
v 0.258733 1.470596 -0.692282
v 0.257139 1.473137 -0.695180
v 0.253290 1.474189 -0.696380
v 0.253289 1.450120 -0.719680
v 0.257139 1.449086 -0.718462
v 0.258733 1.446590 -0.715520
v 0.253289 0.778646 0.022104
v 0.257139 0.780901 0.022068
v 0.258733 0.786345 0.021980
v 0.258733 0.758621 -0.004860
v 0.257139 0.755762 -0.002269
v 0.253289 0.754577 -0.001196
v -0.232436 0.786345 0.021980
v -0.230842 0.780901 0.022068
v -0.226992 0.778646 0.022104
v -0.226992 0.754577 -0.001196
v -0.230842 0.755762 -0.002269
v -0.232436 0.758621 -0.004860
v -0.232436 0.777450 0.031168
v -0.230842 0.774508 0.028671
v -0.226992 0.773290 0.027637
v 0.253290 0.773290 0.027637
v 0.257139 0.774516 0.028661
v 0.258733 0.777476 0.031135
v -0.226992 1.902089 -0.348574
v -0.230842 1.901149 -0.347283
v -0.232436 1.898879 -0.344167
v 0.258733 1.898883 -0.344164
v 0.257139 1.901150 -0.347282
v 0.253289 1.902089 -0.348574
v -0.226992 2.145923 -0.190109
v -0.230842 2.145074 -0.188759
v -0.232436 2.143023 -0.185499
v 0.258733 2.143043 -0.185487
v 0.257139 2.145080 -0.188755
v 0.253289 2.145923 -0.190109
v -0.226992 2.372245 -0.054929
v -0.230842 2.371417 -0.053566
v -0.232436 2.369418 -0.050275
v 0.258733 2.369418 -0.050275
v 0.257139 2.371417 -0.053566
v 0.253289 2.372245 -0.054929
v -0.226992 2.465280 0.002522
v -0.230842 2.462278 0.002542
v -0.232436 2.455030 0.002591
v 0.258733 2.455030 0.002591
v 0.257139 2.462278 0.002542
v 0.253289 2.465280 0.002522
v -0.226992 2.374118 0.060526
v -0.230842 2.373271 0.059175
v -0.232436 2.371228 0.055912
v 0.258733 2.371228 0.055912
v 0.257139 2.373271 0.059175
v 0.253289 2.374118 0.060526
v -0.226992 2.152209 0.197325
v -0.230842 2.151345 0.195985
v -0.232436 2.149257 0.192750
v 0.258733 2.149238 0.192762
v 0.257139 2.151339 0.195989
v 0.253289 2.152209 0.197325
v -0.232436 0.738701 -0.702188
v -0.230253 0.741842 -0.706421
v -0.224982 0.743142 -0.708175
v -0.226992 0.845418 -0.789331
v -0.230842 0.846244 -0.787952
v -0.232436 0.848240 -0.784621
v 0.253289 0.743142 -0.708175
v 0.257139 0.744298 -0.707056
v 0.258733 0.747088 -0.704355
v 0.258733 0.848240 -0.784621
v 0.257139 0.846244 -0.787952
v 0.253289 0.845418 -0.789331
v -0.226992 0.965170 -0.841226
v -0.230842 0.965612 -0.839679
v -0.232436 0.966677 -0.835945
v 0.258733 0.966677 -0.835945
v 0.257139 0.965612 -0.839679
v 0.253289 0.965170 -0.841226
v -0.226992 1.094273 -0.860358
v -0.230842 1.094299 -0.858750
v -0.232436 1.094362 -0.854868
v 0.258733 1.094362 -0.854868
v 0.257139 1.094299 -0.858750
v 0.253289 1.094273 -0.860358
v -0.226992 1.223929 -0.845424
v -0.230842 1.223538 -0.843864
v -0.232436 1.222594 -0.840097
v 0.258733 1.222594 -0.840097
v 0.257139 1.223538 -0.843864
v 0.253289 1.223929 -0.845424
v -0.226992 1.345302 -0.797442
v -0.230842 1.344520 -0.796036
v -0.232436 1.342634 -0.792642
v 0.258733 1.342634 -0.792642
v 0.257139 1.344520 -0.796036
v 0.253289 1.345302 -0.797442
v 0.253289 0.665347 -0.603320
v 0.257139 0.666752 -0.602539
v 0.258733 0.670146 -0.600652
v 0.253289 0.617364 -0.481948
v 0.257139 0.618924 -0.481557
v 0.258733 0.622691 -0.480613
v 0.253289 0.602430 -0.352292
v 0.257139 0.604038 -0.352318
v 0.258733 0.607921 -0.352381
v -0.230253 0.618167 -0.483978
v -0.232436 0.620104 -0.488880
v -0.224982 0.617364 -0.481948
v -0.232436 0.607921 -0.352381
v -0.230842 0.604038 -0.352318
v -0.226992 0.602430 -0.352292
v 0.253289 0.621562 -0.223189
v 0.257139 0.623109 -0.223630
v 0.258733 0.626843 -0.224696
v -0.232436 0.626843 -0.224696
v -0.230842 0.623109 -0.223630
v -0.226992 0.621562 -0.223189
v 0.253289 0.673457 -0.103437
v 0.257139 0.674836 -0.104263
v 0.258733 0.678167 -0.106259
v -0.232436 0.678167 -0.106259
v -0.230842 0.674836 -0.104263
v -0.226992 0.673457 -0.103437
v -0.232436 0.788647 0.730697
v -0.230842 0.785924 0.733467
v -0.226992 0.784796 0.734615
v -0.226992 0.703639 0.632340
v -0.230842 0.705025 0.631524
v -0.232436 0.708369 0.629554
v 0.253289 0.784796 0.734615
v 0.257139 0.785905 0.733451
v 0.258734 0.788583 0.730642
v 0.258734 0.708331 0.629480
v 0.257139 0.705013 0.631502
v 0.253289 0.703639 0.632340
v -0.226992 0.651745 0.512587
v -0.230842 0.653294 0.512158
v -0.232436 0.657034 0.511121
v 0.258733 0.657016 0.511039
v 0.257139 0.653289 0.512134
v 0.253289 0.651745 0.512587
v -0.226994 0.632612 0.383484
v -0.230842 0.634220 0.383470
v -0.232436 0.638101 0.383436
v 0.258733 0.638105 0.383353
v 0.257139 0.634221 0.383446
v 0.253289 0.632612 0.383484
v -0.226994 0.647546 0.253828
v -0.230842 0.649103 0.254231
v -0.232436 0.652861 0.255202
v 0.258733 0.652886 0.255123
v 0.257139 0.649110 0.254207
v 0.253289 0.647546 0.253828
v -0.226994 0.695529 0.132455
v -0.230842 0.696928 0.133247
v -0.232436 0.700307 0.135157
v 0.258733 0.700352 0.135088
v 0.257139 0.696942 0.133226
v 0.253289 0.695529 0.132455
v 0.253289 0.889650 0.812411
v 0.257139 0.890421 0.811000
v 0.258734 0.892281 0.807593
v -0.232436 0.892357 0.807629
v -0.230842 0.890443 0.811010
v -0.226992 0.889650 0.812411
v 0.253289 1.011023 0.860393
v 0.257139 1.011402 0.858831
v 0.258733 1.012317 0.855059
v -0.232436 1.012399 0.855074
v -0.230842 1.011426 0.858835
v -0.226992 1.011023 0.860393
v 0.253292 1.140679 0.875327
v 0.257140 1.140640 0.873720
v 0.258733 1.140548 0.869840
v -0.232436 1.140632 0.869833
v -0.230842 1.140665 0.873718
v -0.226992 1.140679 0.875327
v 0.253292 1.269782 0.856195
v 0.257140 1.269329 0.854653
v 0.258733 1.268236 0.850928
v -0.232436 1.268315 0.850900
v -0.230842 1.269352 0.854644
v -0.226992 1.269782 0.856195
v 0.257367 1.390858 0.800305
v 0.253198 1.392628 0.801846
v 0.253186 1.389387 0.804085
v 0.253102 1.385851 0.805897
v 0.257349 1.385293 0.803569
v 0.258733 1.386834 0.799866
v -0.231069 1.390880 0.800284
v -0.232436 1.386900 0.799826
v -0.231087 1.385357 0.803543
v -0.226901 1.385910 0.805871
v -0.226915 1.389407 0.804075
v -0.226898 1.392627 0.801846
v 0.256497 1.493330 0.721573
v 0.258733 1.497085 0.717694
v 0.251098 1.491775 0.723180
v -0.230200 1.493330 0.721573
v -0.224801 1.491775 0.723180
v -0.232436 1.497085 0.717694
v 0.256670 1.388584 0.802740
v -0.230390 1.388610 0.802724
vt 0.158210 0.368644
vt 0.156526 0.062705
vt 0.464156 0.370255
vt 0.154254 0.368644
vt 0.478933 0.200170
vt 0.464156 0.380580
vt 0.157019 0.369835
vt 0.154176 0.369835
vt 0.114547 0.363416
vt 0.496197 0.111777
vt 0.465347 0.370307
vt 0.480114 0.200336
vt 0.465347 0.380658
vt 0.458930 0.420275
vt 0.158210 0.380580
vt 0.157019 0.380658
vt 0.114245 0.364578
vt 0.077661 0.348133
vt 0.326214 0.047432
vt 0.497363 0.112022
vt 0.460090 0.420586
vt 0.443651 0.457162
vt 0.178715 0.457162
vt 0.163436 0.420275
vt 0.162276 0.420586
vt 0.077068 0.349178
vt 0.045987 0.323825
vt 0.156526 0.061509
vt 0.326036 0.046252
vt 0.514852 0.032371
vt 0.516013 0.032634
vt 0.444691 0.457762
vt 0.419346 0.488837
vt 0.203020 0.488837
vt 0.177675 0.457762
vt 0.045145 0.324680
vt 0.021684 0.292147
vt 0.155335 0.061014
vt 0.413207 0.027854
vt 0.413477 0.029014
vt 0.521522 0.001971
vt 0.523092 0.000371
vt 0.420195 0.489686
vt 0.387670 0.513143
vt 0.202171 0.489686
vt 0.235977 0.515496
vt 0.020649 0.292755
vt 0.491357 0.007967
vt 0.491643 0.009123
vt 0.388271 0.514183
vt 0.350783 0.528422
vt 0.234471 0.514872
vt 0.271143 0.530062
vt 0.005251 0.255578
vt 0.006408 0.255259
vt 0.351094 0.529582
vt 0.308897 0.535031
vt 0.000000 0.215667
vt 0.001202 0.215658
vt 0.310513 0.535244
vt 0.005253 0.175756
vt 0.006416 0.176059
vt 0.020653 0.138580
vt 0.021698 0.139173
vt 0.045150 0.106657
vt 0.046007 0.107500
vt 0.077075 0.082161
vt 0.077684 0.083197
vt 0.113389 0.067374
vt 0.114547 0.067831
vt 0.115302 0.066848
vt 0.114271 0.066828
vt 0.635121 0.166565
vt 0.941065 0.164964
vt 0.633437 0.472501
vt 0.941064 0.154629
vt 0.955842 0.335038
vt 0.631178 0.166563
vt 0.935839 0.114935
vt 0.942255 0.164905
vt 0.942255 0.154551
vt 0.957023 0.334871
vt 0.973107 0.423437
vt 0.591484 0.171788
vt 0.633930 0.165374
vt 0.631091 0.165373
vt 0.920560 0.078048
vt 0.936999 0.114624
vt 0.974271 0.423187
vt 0.803122 0.487774
vt 0.554596 0.187064
vt 0.591164 0.170630
vt 0.633930 0.154551
vt 0.635121 0.154629
vt 0.896254 0.046373
vt 0.921600 0.077447
vt 0.992921 0.502571
vt 0.991760 0.502835
vt 0.633437 0.473697
vt 0.802945 0.488954
vt 0.522919 0.211366
vt 0.553987 0.186028
vt 0.639187 0.114624
vt 0.640347 0.114934
vt 0.655626 0.078048
vt 0.864579 0.022067
vt 0.897104 0.045523
vt 1.000000 0.534835
vt 0.998430 0.533235
vt 0.890379 0.506190
vt 0.632246 0.474192
vt 0.890114 0.507351
vt 0.498611 0.243039
vt 0.522062 0.210523
vt 0.654586 0.077447
vt 0.679931 0.046373
vt 0.827692 0.006788
vt 0.865180 0.021027
vt 0.968265 0.527238
vt 0.968551 0.526082
vt 0.497566 0.242446
vt 0.679082 0.045523
vt 0.711606 0.022067
vt 0.788093 0.001577
vt 0.828003 0.005628
vt 0.483329 0.279924
vt 0.482166 0.279622
vt 0.711006 0.021027
vt 0.748493 0.006788
vt 0.788093 0.000376
vt 0.478112 0.319523
vt 0.476912 0.319533
vt 0.748182 0.005628
vt 0.483320 0.359124
vt 0.482163 0.359443
vt 0.498596 0.396012
vt 0.497561 0.396620
vt 0.522899 0.427690
vt 0.522057 0.428545
vt 0.554573 0.451998
vt 0.553980 0.453042
vt 0.591436 0.467369
vt 0.590281 0.467823
vt 0.592204 0.468358
vt 0.591174 0.468376
vt 0.000000 0.000157
vt 0.006821 0.040952
vt 0.006821 0.042122
vt 0.009444 0.040767
vt 0.016258 0.000000
vt 0.009444 0.041937
vt 0.434415 0.743691
vt 0.436167 0.743707
vt 0.436168 0.751198
vt 0.434415 0.751175
vt 0.434415 0.620810
vt 0.436168 0.620860
vt 0.654832 0.743707
vt 0.654832 0.751198
vt 0.436168 0.780134
vt 0.434415 0.780041
vt 0.434415 0.556962
vt 0.436168 0.557036
vt 0.654832 0.620860
vt 0.656585 0.743689
vt 0.656585 0.751175
vt 0.654832 0.780134
vt 0.436168 0.807098
vt 0.434415 0.806918
vt 0.434415 0.499568
vt 0.436168 0.499647
vt 0.654832 0.557036
vt 0.656585 0.620810
vt 0.656585 0.780041
vt 0.654832 0.807098
vt 0.436168 0.830252
vt 0.434415 0.829998
vt 0.434415 0.476243
vt 0.436168 0.475763
vt 0.654832 0.499647
vt 0.656585 0.556961
vt 0.656585 0.806918
vt 0.654832 0.830252
vt 0.436168 0.848019
vt 0.434415 0.847708
vt 0.654832 0.475763
vt 0.656585 0.499568
vt 0.656585 0.829998
vt 0.654832 0.848019
vt 0.656585 0.476243
vt 0.656585 0.847708
vt 0.979774 0.530572
vt 0.979397 0.532427
vt 0.971471 0.532427
vt 0.971496 0.530572
vt 0.979397 0.763789
vt 0.971471 0.763789
vt 0.940855 0.532427
vt 0.940953 0.530572
vt 0.979774 0.765643
vt 0.971496 0.765643
vt 0.940855 0.763789
vt 0.912325 0.532427
vt 0.912515 0.530572
vt 0.940953 0.765643
vt 0.912325 0.763789
vt 0.887826 0.532427
vt 0.888095 0.530572
vt 0.912515 0.765643
vt 0.887826 0.763789
vt 0.869027 0.532427
vt 0.869357 0.530572
vt 0.888095 0.765643
vt 0.869027 0.762820
vt 0.868830 0.765360
vt 0.764160 0.737536
vt 0.764163 0.739402
vt 0.733443 0.739402
vt 0.733341 0.737536
vt 0.794978 0.737536
vt 0.794882 0.739402
vt 0.704827 0.739402
vt 0.704634 0.737536
vt 0.733341 0.504733
vt 0.764160 0.504733
vt 0.794978 0.504733
vt 0.823686 0.737536
vt 0.823497 0.739402
vt 0.680255 0.739402
vt 0.679982 0.737537
vt 0.704634 0.504733
vt 0.764157 0.502867
vt 0.733437 0.502867
vt 0.794876 0.502867
vt 0.823686 0.504733
vt 0.848337 0.737536
vt 0.848068 0.739402
vt 0.661399 0.739402
vt 0.661066 0.737537
vt 0.679982 0.504733
vt 0.704823 0.502867
vt 0.823492 0.502867
vt 0.848337 0.504732
vt 0.867253 0.737536
vt 0.866923 0.739402
vt 0.661066 0.504733
vt 0.680251 0.502867
vt 0.848065 0.502867
vt 0.867253 0.504732
vt 0.661396 0.502867
vt 0.866920 0.502867
vt 0.000710 0.505958
vt 0.002423 0.505958
vt 0.002423 0.625696
vt 0.000710 0.625748
vt 0.000000 0.505116
vt 0.216166 0.505958
vt 0.216166 0.625696
vt 0.002423 0.687272
vt 0.000710 0.687351
vt 0.217879 0.505958
vt 0.217879 0.625748
vt 0.216166 0.687272
vt 0.002423 0.742496
vt 0.000710 0.742579
vt 0.218589 0.505116
vt 0.217879 0.687350
vt 0.216166 0.742496
vt 0.002423 0.765465
vt 0.000710 0.765006
vt 0.217879 0.742579
vt 0.216166 0.765465
vt 0.217879 0.765006
vt 0.376474 0.751199
vt 0.376953 0.753576
vt 0.347892 0.753841
vt 0.347799 0.752105
vt 0.405149 0.535499
vt 0.321267 0.753841
vt 0.321089 0.752105
vt 0.347799 0.535499
vt 0.376474 0.535499
vt 0.378111 0.754560
vt 0.321089 0.535499
vt 0.376474 0.533763
vt 0.347892 0.533763
vt 0.405056 0.533763
vt 0.405149 0.754560
vt 0.321267 0.533763
vt 0.431681 0.533763
vt 0.431859 0.535499
vt 0.430333 0.754560
vt 0.431859 0.751199
vt 0.431412 0.753576
vt 0.249539 0.534168
vt 0.249511 0.532286
vt 0.277863 0.532679
vt 0.277367 0.535116
vt 0.248682 0.534174
vt 0.248773 0.532601
vt 0.248961 0.531669
vt 0.279061 0.531669
vt 0.277367 0.749996
vt 0.249539 0.750943
vt 0.248687 0.750951
vt 0.247848 0.534212
vt 0.248133 0.532294
vt 0.249518 0.752826
vt 0.277863 0.752434
vt 0.248779 0.752519
vt 0.247861 0.750944
vt 0.221929 0.534126
vt 0.222105 0.532389
vt 0.248977 0.753444
vt 0.279061 0.753444
vt 0.248147 0.752834
vt 0.221929 0.750985
vt 0.222110 0.752724
vt 0.708638 0.957650
vt 0.708638 0.741138
vt 0.710343 0.741137
vt 0.710343 0.957650
vt 0.708285 0.739402
vt 0.710317 0.739402
vt 0.738994 0.957651
vt 0.738994 0.741138
vt 0.708285 0.959386
vt 0.710320 0.959386
vt 0.738899 0.739402
vt 0.738905 0.959386
vt 0.765693 0.957651
vt 0.765693 0.741138
vt 0.765512 0.739402
vt 0.765517 0.959386
vt 0.949587 0.216072
vt 0.949102 0.213690
vt 0.949102 0.003746
vt 0.949587 0.001364
vt 0.950756 0.000378
vt 0.949936 0.000378
vt 0.950771 0.002780
vt 0.950771 0.214656
vt 0.949936 0.217058
vt 0.950756 0.217058
vn -0.999998 0.001454 0.001685
vn -0.923872 0.249996 0.289762
vn -0.924091 0.237707 0.299251
vn -0.999961 0.005501 0.006926
vn -0.382732 0.603503 0.699500
vn -0.003251 0.654892 0.755716
vn -0.003325 0.621961 0.783041
vn -0.383233 0.574473 0.723266
vn 0.003251 0.654892 0.755716
vn 0.382741 0.603500 0.699497
vn 0.383245 0.574476 0.723257
vn 0.003325 0.621961 0.783041
vn 0.923882 0.249980 0.289744
vn 0.999998 0.001454 0.001685
vn 0.999961 0.005502 0.006927
vn 0.924099 0.237687 0.299243
vn -0.999998 0.001358 -0.001654
vn -0.923931 0.242762 -0.295667
vn -0.924074 0.235861 -0.300762
vn -0.999994 0.002155 -0.002748
vn -0.382800 0.586245 -0.713990
vn -0.003313 0.634579 -0.772851
vn -0.003268 0.617037 -0.786928
vn -0.383129 0.569965 -0.726878
vn 0.003311 0.634579 -0.772851
vn 0.382837 0.586230 -0.713982
vn 0.383120 0.569968 -0.726881
vn 0.003268 0.617037 -0.786927
vn 0.923948 0.242743 -0.295628
vn 0.999998 0.001362 -0.001658
vn 0.999994 0.002155 -0.002748
vn 0.924075 0.235860 -0.300760
vn 1.000000 -0.000059 0.000033
vn 0.923881 -0.266171 0.274950
vn 0.924079 -0.292425 0.246101
vn 0.996331 -0.065482 0.055109
vn 0.382690 -0.642597 0.663790
vn 0.003784 -0.695539 0.718478
vn 0.003283 -0.766494 0.642243
vn 0.383149 -0.707711 0.593584
vn -0.003784 -0.695539 0.718478
vn -0.382690 -0.642597 0.663790
vn -0.383147 -0.707712 0.593585
vn -0.003283 -0.766494 0.642243
vn -0.923877 -0.266178 0.274957
vn -1.000000 -0.000059 0.000033
vn -0.996331 -0.065483 0.055110
vn -0.924074 -0.292434 0.246109
vn -0.002296 -0.633910 -0.773403
vn -0.047862 -0.769772 -0.636523
vn -0.305360 -0.498092 -0.811579
vn -0.002800 -0.512871 -0.858461
vn -0.813806 -0.354908 -0.460173
vn -0.813806 -0.354908 -0.460173
vn -0.999983 -0.002998 -0.004941
vn -0.881406 -0.245520 -0.403540
vn 0.999979 -0.004633 -0.004485
vn 0.925033 -0.272944 -0.264228
vn 0.925035 -0.195270 -0.325854
vn 0.999986 -0.002747 -0.004584
vn 0.385511 -0.662949 -0.641779
vn 0.004346 -0.687549 -0.726125
vn 0.003266 -0.513906 -0.857840
vn 0.385511 -0.474292 -0.791472
vn -0.813821 -0.578162 -0.058519
vn -0.813821 -0.578162 -0.058519
vn -0.881418 -0.472315 0.004493
vn -0.999832 -0.018352 0.000197
vn -0.047844 -0.946926 -0.317871
vn -0.002296 -0.991493 -0.130138
vn -0.002800 -0.999842 0.017566
vn -0.305377 -0.952217 0.005372
vn -0.003263 -0.695540 0.718480
vn -0.385567 -0.641670 0.663022
vn -0.385404 -0.791443 0.474428
vn -0.003261 -0.857771 0.514023
vn -0.925064 -0.264300 0.272768
vn -0.999977 -0.004755 0.004917
vn -0.999984 -0.004789 0.002873
vn -0.924998 -0.326019 0.195167
vn 0.999977 -0.004759 0.004911
vn 0.924999 -0.264161 0.273123
vn 0.925065 -0.325702 0.195382
vn 0.999984 -0.004791 0.002868
vn 0.385404 -0.641904 0.662890
vn 0.003261 -0.695538 0.718482
vn 0.003263 -0.857770 0.514024
vn 0.385573 -0.791516 0.474168
vn 0.002956 0.619941 0.784643
vn 0.478557 0.538049 0.693892
vn 0.076171 0.703060 0.707039
vn 0.002661 0.631739 0.775176
vn 0.997944 0.033087 0.054898
vn 0.706703 0.428649 0.562878
vn 0.004163 0.399474 0.916735
vn 0.003781 0.514328 0.857585
vn -0.003697 0.513460 0.858106
vn -0.004176 0.399436 0.916752
vn -0.002951 0.619926 0.784654
vn -0.997957 0.033072 0.054670
vn -0.477161 0.538615 0.694414
vn -0.076000 0.703068 0.707050
vn -0.705503 0.429375 0.563829
vn -0.002664 0.631739 0.775176
vn -0.003321 0.601875 -0.798583
vn 0.003321 0.601875 -0.798583
vn -0.004058 -0.718473 -0.695543
vn 0.004052 -0.718473 -0.695543
vn 0.003284 -0.798762 -0.601638
vn -0.003283 -0.798761 -0.601639
vn -0.003303 0.529734 -0.848158
vn 0.003303 0.529734 -0.848158
vn -0.003280 0.516496 -0.856283
vn 0.003280 0.516496 -0.856283
vn -0.002622 0.525411 -0.850844
vn 0.002622 0.525411 -0.850844
vn -0.002621 0.536818 0.843694
vn -0.003279 0.528306 0.849048
vn 0.003279 0.528306 0.849048
vn 0.002621 0.536818 0.843694
vn -0.003303 0.543035 0.839703
vn 0.003303 0.543035 0.839704
vn -0.003262 -0.274453 -0.961595
vn 0.003262 -0.274453 -0.961595
vn -0.003262 -0.016223 -0.999863
vn 0.003262 -0.016223 -0.999863
vn -0.003262 0.243114 -0.969992
vn 0.003262 0.243113 -0.969992
vn -0.003263 0.485883 -0.874018
vn 0.003263 0.485883 -0.874018
vn 0.004346 -0.979647 -0.200682
vn 0.003265 -0.999861 0.016359
vn 0.003262 -0.961595 0.274453
vn -0.003262 -0.961595 0.274453
vn 0.003263 -0.857796 0.513980
vn -0.003263 -0.857796 0.513980
vn -0.003260 -0.961596 0.274451
vn 0.003264 -0.961595 0.274454
vn -0.003260 -0.999863 0.016219
vn 0.003264 -0.999863 0.016223
vn -0.003260 -0.969992 -0.243116
vn 0.003264 -0.969992 -0.243114
vn -0.003262 -0.874018 -0.485882
vn 0.003263 -0.874018 -0.485882
vn 0.003260 -0.485926 0.873994
vn -0.003264 -0.485928 0.873993
vn 0.003260 -0.243111 0.969993
vn -0.003264 -0.243115 0.969992
vn 0.003260 0.016225 0.999863
vn -0.003264 0.016222 0.999863
vn 0.003657 0.272390 0.962180
vn -0.003653 0.272447 0.962164
vn -0.999997 0.001574 -0.002089
vn -0.999993 0.001946 -0.003115
vn -0.999967 0.004191 -0.006951
vn -0.999404 0.018752 0.028995
vn -0.999590 0.015117 0.024303
vn -0.998123 0.061236 -0.001024
vn 0.999996 0.001574 -0.002088
vn 0.999993 0.001945 -0.003115
vn 0.999967 0.004191 -0.006951
vn 0.999403 0.018755 0.028998
vn 0.999590 0.015116 0.024302
vn 0.998123 0.061234 -0.001024
vn 0.999993 0.001819 -0.003272
vn 0.999992 0.000945 -0.003772
vn 0.999991 -0.000068 -0.004169
vn 0.999989 -0.001271 -0.004452
vn 0.999966 -0.007179 -0.003991
vn 0.999937 -0.010878 -0.002726
vn 0.999858 -0.016827 0.000273
vn 0.999569 -0.028244 0.008061
vn 0.996254 -0.074176 0.044457
vn -0.999993 0.001819 -0.003272
vn -0.999992 0.000945 -0.003772
vn -0.999991 -0.000068 -0.004169
vn -0.999989 -0.001271 -0.004452
vn -1.000000 0.000000 0.000000
vn -1.000000 0.000000 0.000000
vn -1.000000 0.000000 0.000000
vn -0.999569 -0.028245 0.008062
vn -0.996253 -0.074179 0.044459
vn 0.999994 -0.002814 -0.002133
vn 0.999993 -0.003295 -0.001835
vn 0.999992 -0.003829 -0.000962
vn 0.999991 -0.004267 0.000067
vn 0.999988 -0.004609 0.001313
vn 1.000000 0.000000 -0.000000
vn 0.999961 -0.004317 0.007755
vn 0.999923 -0.003029 0.012060
vn 0.999812 0.000304 0.019399
vn 0.999396 0.009341 0.033480
vn -1.000000 -0.000001 -0.000001
vn -0.999994 -0.002822 -0.002138
vn -0.999993 -0.003296 -0.001831
vn -0.999992 -0.003828 -0.000957
vn -0.999991 -0.004265 0.000072
vn -0.999988 -0.004607 0.001318
vn -1.000000 -0.000000 0.000000
vn -0.999961 -0.004310 0.007762
vn -0.999923 -0.003018 0.012069
vn -0.999811 0.000325 0.019413
vn -0.999402 0.009295 0.033313
vn 1.000000 0.000002 0.000002
vn -0.337520 0.914898 0.221453
vn -0.337520 0.914898 0.221453
vn -0.337520 0.914898 0.221453
vn -0.812874 0.572175 -0.108865
vn -0.812874 0.572175 -0.108865
vn -0.812874 0.572175 -0.108865
vn 0.812886 0.572159 -0.108860
vn 0.812886 0.572159 -0.108860
vn 0.812886 0.572159 -0.108860
vn 0.337516 0.914896 0.221468
vn 0.337516 0.914896 0.221468
vn 0.337516 0.914896 0.221468
vn 0.000000 -0.873998 -0.485930
vn 0.000000 -0.803095 -0.595851
vn 0.006559 -0.873980 -0.485918
vn 0.000000 -0.929966 -0.367646
vn 0.000000 0.718463 0.695565
vn 0.000000 0.718463 0.695565
vn 0.000000 0.718463 0.695565
vn 0.000000 0.718463 0.695565
vn -0.383144 0.555945 -0.737649
vn -0.924070 0.230049 -0.305241
vn 0.924081 0.230037 -0.305215
vn 0.383172 0.555934 -0.737643
vn 0.382597 -0.663744 -0.642701
vn 0.382847 -0.737529 -0.556308
vn 0.923826 -0.274965 -0.266345
vn 0.923958 -0.304864 -0.230997
vn -0.923878 -0.274952 -0.266178
vn -0.924020 -0.304735 -0.230922
vn -0.382693 -0.663784 -0.642602
vn -0.383006 -0.737484 -0.556258
vn -0.382755 0.489406 -0.783569
vn -0.923901 0.202683 -0.324539
vn 0.923904 0.202693 -0.324527
vn 0.382763 0.489396 -0.783572
vn -0.382687 0.477153 -0.791123
vn -0.923872 0.197613 -0.327735
vn 0.923878 0.197604 -0.327721
vn 0.382697 0.477151 -0.791119
vn -0.382680 0.485420 -0.786081
vn -0.923873 0.201075 -0.325619
vn 0.923877 0.201069 -0.325610
vn 0.382680 0.485421 -0.786081
vn -0.382640 0.495966 0.779490
vn -0.382653 0.488073 0.784450
vn -0.923876 0.205437 0.322876
vn -0.923881 0.202123 0.324945
vn 0.923880 0.205431 0.322869
vn 0.923877 0.202128 0.324955
vn 0.382657 0.495963 0.779484
vn 0.382653 0.488073 0.784450
vn -0.382740 0.501690 0.775769
vn -0.923913 0.207771 0.321272
vn 0.923911 0.207759 0.321285
vn 0.382745 0.501697 0.775761
vn -0.385494 -0.253241 -0.887279
vn -0.925032 -0.104261 -0.365302
vn 0.385500 -0.806445 -0.448370
vn 0.925034 -0.332017 -0.184596
vn 0.925036 -0.104259 -0.365293
vn 0.385496 -0.253241 -0.887278
vn -0.385494 -0.014967 -0.922589
vn -0.925031 -0.006162 -0.379842
vn 0.925035 -0.006162 -0.379833
vn 0.385496 -0.014966 -0.922588
vn -0.385497 0.224324 -0.895026
vn -0.925031 0.092357 -0.368494
vn 0.925035 0.092354 -0.368485
vn 0.385499 0.224325 -0.895025
vn -0.385487 0.448354 -0.806460
vn -0.925033 0.184620 -0.332007
vn 0.925038 0.184615 -0.331998
vn 0.385488 0.448355 -0.806459
vn 0.385490 -0.895029 -0.224324
vn 0.925033 -0.368489 -0.092354
vn 0.385490 -0.922590 0.014969
vn 0.925034 -0.379835 0.006166
vn 0.385500 -0.887276 0.253241
vn 0.925033 -0.365299 0.104263
vn -0.925029 -0.365307 0.104265
vn -0.385497 -0.887277 0.253242
vn 0.385501 -0.791485 0.474278
vn 0.925033 -0.325844 0.195294
vn -0.925029 -0.325852 0.195300
vn -0.385499 -0.791486 0.474279
vn -0.925099 -0.184677 0.331793
vn -0.385649 -0.448228 0.806453
vn -0.385353 -0.887295 0.253398
vn -0.924983 -0.365462 0.104131
vn 0.385330 -0.448516 0.806446
vn 0.924966 -0.184520 0.332251
vn 0.925095 -0.365104 0.104392
vn 0.385661 -0.887246 0.253101
vn -0.385437 -0.922610 0.015112
vn -0.925018 -0.379875 0.005995
vn 0.925094 -0.379684 0.006341
vn 0.385666 -0.922519 0.014839
vn -0.385488 -0.895059 -0.224205
vn -0.925034 -0.368444 -0.092524
vn 0.925095 -0.368387 -0.092144
vn 0.385662 -0.894927 -0.224434
vn -0.385583 -0.806474 -0.448248
vn -0.925065 -0.331849 -0.184748
vn 0.925064 -0.332033 -0.184417
vn 0.385582 -0.806368 -0.448438
vn 0.385365 -0.224477 0.895044
vn 0.924982 -0.092221 0.368651
vn -0.925096 -0.092492 0.368297
vn -0.385655 -0.224183 0.894993
vn 0.385446 0.014825 0.922611
vn 0.925017 0.006329 0.379874
vn -0.925095 0.005982 0.379688
vn -0.385667 0.015095 0.922515
vn 0.414583 0.252376 0.874315
vn 0.919848 0.105691 0.377769
vn -0.920789 0.104373 0.375837
vn -0.415861 0.251909 0.873843
vn 0.438941 0.359687 0.823381
vn 0.911502 0.164437 0.376993
vn -0.913483 0.162656 0.372951
vn -0.441305 0.359141 0.822355
vn 0.852383 0.262455 0.452284
vn 0.453397 0.451299 0.768609
vn -0.455322 0.455823 0.764792
vn -0.854412 0.266057 0.446312
s 1
g pCube1
usemtl initialShadingGroup
f 5/2/1 4/28/2 7/29/3 6/19/4
f 4/252/5 3/253/6 8/254/7 7/255/8
f 12/257/9 11/261/10 14/262/11 13/258/12
f 11/99/13 10/75/14 15/90/15 14/100/16
f 18/3/17 17/11/18 20/13/19 19/6/20
s 6
f 17/152/21 16/153/22 21/154/23 20/155/24
f 24/158/25 23/165/26 26/166/27 25/159/28
s 1
f 23/80/29 22/74/30 27/76/31 26/81/32
f 30/73/33 29/85/34 32/93/35 31/94/36
s 6
f 29/192/37 28/193/38 33/194/39 32/195/40
f 36/196/41 35/200/42 38/201/43 37/197/44
s 1
f 35/7/45 34/1/46 39/15/47 38/16/48
s 6
f 84/274/49 83/275/50 86/276/51 85/277/52
s 1
f 83/60/53 82/57/54 87/51/55 86/56/56
f 90/124/57 89/130/58 92/125/59 91/117/60
s 6
f 89/285/61 88/282/62 93/281/63 92/286/64
s 1
f 128/46/65 127/52/66 131/45/67 130/34/68
s 6
f 127/215/69 129/214/70 132/210/71 131/213/72
s 1
f 147/216/73 146/217/74 149/218/75 148/219/76
f 146/58/77 145/59/78 150/55/79 149/54/80
f 153/131/81 152/132/82 155/127/83 154/126/84
f 152/232/85 151/225/86 156/224/87 155/233/88
f 206/295/89 205/296/90 217/297/91 219/298/92
f 205/296/90 210/301/93 218/302/94 217/297/91
f 208/306/95 207/299/96 215/305/97 214/311/98
f 207/299/96 206/295/89 216/304/99 215/305/97
f 212/314/100 211/308/101 220/309/102 222/315/103
f 211/308/101 216/304/99 221/303/104 220/309/102
f 8/254/7 3/253/6 12/257/9 13/258/12
s 6
f 46/157/105 51/164/106 24/158/25 16/153/22
f 16/153/22 24/158/25 25/159/28 21/154/23
f 28/193/38 36/196/41 37/197/44 33/194/39
s 1
f 36/319/107 28/320/108 43/321/109 42/322/110
s 6
f 46/157/105 52/163/111 57/172/112 51/164/106
f 52/163/111 58/171/113 63/180/114 57/172/112
f 58/171/113 64/179/115 69/186/116 63/180/114
s 1
f 64/269/117 70/264/118 75/268/119 69/272/120
f 70/264/118 76/259/121 81/263/122 75/268/119
f 76/259/121 8/254/7 13/258/12 81/263/122
s 6
f 84/274/49 85/277/52 93/281/63 88/282/62
f 85/277/52 94/280/123 99/284/124 93/281/63
f 94/184/123 100/176/125 105/183/126 99/189/124
f 100/176/125 106/168/127 111/175/128 105/183/126
f 106/168/127 112/160/129 117/167/130 111/175/128
f 112/160/129 21/154/23 25/159/28 117/167/130
f 121/211/131 124/207/132 132/210/71 129/214/70
f 124/207/132 133/203/133 138/206/134 132/210/71
f 133/203/133 139/198/135 144/202/136 138/206/134
f 139/198/135 33/194/39 37/197/44 144/202/136
s 1
f 147/216/73 148/219/76 156/224/87 151/225/86
f 148/219/76 157/223/137 162/231/138 156/224/87
f 157/223/137 163/230/139 168/240/140 162/231/138
f 163/230/139 169/239/141 174/246/142 168/240/140
f 169/331/141 175/325/143 180/326/144 174/332/142
f 175/325/143 42/322/110 43/321/109 180/326/144
f 151/225/86 181/226/145 186/220/146 147/216/73
f 181/226/145 187/235/147 192/227/148 186/220/146
f 187/235/147 193/243/149 198/236/150 192/227/148
f 193/243/149 199/249/151 204/244/152 198/236/150
f 199/312/151 208/306/95 214/311/98 204/317/152
f 206/295/89 219/298/92 221/303/104 216/304/99
f 34/1/46 5/2/1 18/3/17
f 18/3/17 5/2/1 48/5/153
f 48/5/153 5/2/1 54/10/154
f 5/2/1 6/19/4 54/10/154
f 54/10/154 6/19/4 60/30/155
f 6/19/4 78/40/156 60/30/155
f 78/40/156 72/49/157 60/30/155
f 72/49/157 66/41/158 60/30/155
f 30/73/33 22/74/30 10/75/14
f 22/74/30 49/77/159 10/75/14
f 49/77/159 55/83/160 10/75/14
f 10/75/14 55/83/160 15/90/15
f 55/83/160 61/98/161 15/90/15
f 15/90/15 61/98/161 79/110/162
f 79/110/162 61/98/161 73/120/163
f 61/98/161 67/109/164 73/120/163
f 22/74/30 30/73/33 27/76/31
f 27/76/31 30/73/33 115/79/165
f 115/79/165 30/73/33 109/87/166
f 109/87/166 30/73/33 103/95/167
f 103/95/167 30/73/33 97/106/168
f 97/106/168 30/73/33 91/117/60
f 91/117/60 30/73/33 90/124/57
f 90/124/57 30/73/33 120/129/169
f 120/129/169 30/73/33 123/123/170
f 123/123/170 30/73/33 126/116/171
f 126/116/171 30/73/33 135/105/172
f 30/73/33 31/94/36 135/105/172
f 141/104/173 135/105/172 31/94/36
f 18/3/17 19/6/20 34/1/46
f 19/6/20 114/14/174 34/1/46
f 114/14/174 108/22/175 34/1/46
f 108/22/175 102/33/176 34/1/46
f 102/33/176 96/44/177 34/1/46
f 96/44/177 87/51/55 34/1/46
f 87/51/55 82/57/178 34/1/46
f 82/57/178 1/53/179 34/1/46
f 1/53/179 128/46/180 34/1/46
f 128/46/180 130/34/68 34/1/46
f 130/34/68 136/23/181 34/1/46
f 34/1/46 136/23/181 39/15/47
f 136/23/181 142/24/182 39/15/47
f 30/73/33 10/75/14 45/78/183
f 45/78/183 10/75/14 178/84/184
f 178/84/184 10/75/14 172/91/185
f 172/91/185 10/75/14 166/101/186
f 166/101/186 10/75/14 160/113/187
f 10/75/14 9/111/188 160/113/187
f 160/113/187 9/111/188 154/126/84
f 154/126/84 9/111/188 153/131/81
f 153/131/81 9/111/188 183/134/189
f 183/134/189 9/111/188 189/136/190
f 189/136/190 9/111/188 195/138/191
f 195/138/191 9/111/188 201/140/192
f 201/140/192 9/111/188 210/142/93
f 210/146/93 9/147/188 218/148/193
f 34/1/46 40/4/194 5/2/1
f 40/4/194 177/9/195 5/2/1
f 177/9/195 171/18/196 5/2/1
f 171/18/196 165/27/197 5/2/1
f 165/27/197 159/37/198 5/2/1
f 5/2/1 159/37/198 2/38/199
f 159/37/198 150/55/79 2/38/199
f 150/55/79 145/59/78 2/38/199
f 145/59/78 184/62/200 2/38/199
f 184/62/200 190/64/201 2/38/199
f 190/64/201 196/66/202 2/38/199
f 196/66/202 202/68/203 2/38/199
f 202/68/203 212/70/100 2/38/199
f 2/149/199 212/150/100 222/151/204
s off
f 2/256/205 3/253/206 4/252/207
f 2/38/208 4/28/209 5/2/210
f 9/111/211 10/75/212 11/99/213
f 9/266/214 11/261/215 12/257/216
s 6
f 1/288/217 82/283/218 118/278/219
f 82/283/218 83/275/50 118/278/219
f 83/275/50 84/274/49 118/278/219
f 88/282/62 118/278/219 84/274/49
f 1/288/217 118/278/219 128/292/220
f 128/292/220 118/278/219 127/294/69
f 127/294/69 118/278/219 129/293/70
f 118/278/219 121/291/131 129/293/70
s 1
f 220/335/102 221/336/104 219/337/92 217/338/91 218/339/221 9/340/222 12/341/9 3/342/6 2/343/223 222/344/224
s 6
f 16/153/22 17/152/21 47/156/225 46/157/105
s 1
f 17/11/18 18/3/17 48/5/153 47/12/226
f 22/74/30 23/80/29 50/82/227 49/77/159
s 6
f 23/165/26 24/158/25 51/164/106 50/173/228
s 1
f 28/320/108 29/323/229 44/324/230 43/321/109
f 29/85/231 30/73/33 45/78/183 44/86/232
f 34/1/46 35/7/233 41/8/234 40/4/194
f 35/327/235 36/319/107 42/322/110 41/328/236
s 6
f 46/157/105 47/156/225 53/162/237 52/163/111
s 1
f 47/12/226 48/5/153 54/10/154 53/20/238
f 49/77/159 50/82/227 56/89/239 55/83/160
s 6
f 50/173/228 51/164/106 57/172/112 56/181/240
f 52/163/111 53/162/237 59/170/241 58/171/113
s 1
f 53/20/238 54/10/154 60/30/155 59/31/242
f 55/83/160 56/89/239 62/97/243 61/98/161
s 6
f 56/181/240 57/172/112 63/180/114 62/187/244
f 58/171/113 59/170/241 65/178/245 64/179/115
s 1
f 59/31/242 60/30/155 66/41/158 65/42/246
f 61/98/161 62/97/243 68/108/247 67/109/164
s 6
f 62/187/244 63/180/114 69/186/116 68/190/248
s 1
f 64/269/117 65/270/249 71/265/250 70/264/118
f 65/42/251 66/41/158 72/49/157 71/48/252
f 67/109/164 68/108/253 74/119/254 73/120/163
f 68/273/255 69/272/120 75/268/119 74/271/256
f 70/264/118 71/265/250 77/260/257 76/259/121
f 71/48/252 72/49/157 78/40/156 77/39/258
f 73/120/163 74/119/254 80/112/259 79/110/162
f 74/271/256 75/268/119 81/263/122 80/267/260
f 6/19/4 7/29/3 77/39/258 78/40/156
f 7/255/8 8/254/7 76/259/121 77/260/257
f 13/258/12 14/262/11 80/267/260 81/263/122
f 14/100/16 15/90/15 79/110/162 80/112/259
s 6
f 85/277/52 86/276/51 95/279/261 94/280/123
s 1
f 86/56/56 87/51/55 96/44/177 95/50/262
s 6
f 88/282/62 89/285/61 119/287/263 118/278/219
s 1
f 89/130/58 90/124/57 120/129/169 119/133/264
f 91/117/60 92/125/59 98/118/265 97/106/168
s 6
f 92/286/64 93/281/63 99/284/124 98/289/266
f 94/184/123 95/185/261 101/177/267 100/176/125
s 1
f 95/50/262 96/44/177 102/33/176 101/43/268
f 97/106/168 98/118/265 104/107/269 103/95/167
s 6
f 98/191/266 99/189/124 105/183/126 104/188/270
f 100/176/125 101/177/267 107/169/271 106/168/127
s 1
f 101/43/268 102/33/176 108/22/175 107/32/272
f 103/95/167 104/107/269 110/96/273 109/87/166
s 6
f 104/188/270 105/183/126 111/175/128 110/182/274
f 106/168/127 107/169/271 113/161/275 112/160/129
s 1
f 107/32/272 108/22/175 114/14/174 113/21/276
f 109/87/166 110/96/273 116/88/277 115/79/165
s 6
f 110/182/274 111/175/128 117/167/130 116/174/278
s 1
f 19/6/20 20/13/19 113/21/276 114/14/174
s 6
f 20/155/24 21/154/23 112/160/129 113/161/275
f 25/159/28 26/166/27 116/174/278 117/167/130
s 1
f 26/81/32 27/76/31 115/79/165 116/88/277
s 6
f 118/278/219 119/287/263 122/290/279 121/291/131
s 1
f 119/133/264 120/129/169 123/123/170 122/128/280
s 6
f 121/211/131 122/212/279 125/208/281 124/207/132
s 1
f 122/128/280 123/123/170 126/116/171 125/122/282
s 6
f 124/207/132 125/208/281 134/204/283 133/203/133
s 1
f 125/122/282 126/116/171 135/105/172 134/115/284
f 130/34/68 131/45/67 137/35/285 136/23/181
s 6
f 131/213/72 132/210/71 138/206/134 137/209/286
f 133/203/133 134/204/283 140/199/287 139/198/135
s 1
f 134/115/284 135/105/172 141/104/173 140/103/288
f 136/23/181 137/35/285 143/25/289 142/24/182
s 6
f 137/209/286 138/206/134 144/202/136 143/205/290
s 1
f 31/94/36 32/93/35 140/103/288 141/104/173
s 6
f 32/195/40 33/194/39 139/198/135 140/199/287
f 37/197/44 38/201/43 143/205/290 144/202/136
s 1
f 38/16/48 39/15/47 142/24/182 143/25/289
f 145/59/78 146/58/77 185/61/291 184/62/200
f 146/217/74 147/216/73 186/220/146 185/221/292
f 148/219/76 149/218/75 158/222/293 157/223/137
f 149/54/80 150/55/79 159/37/198 158/47/294
f 151/225/86 152/232/85 182/234/295 181/226/145
f 152/132/82 153/131/81 183/134/189 182/135/296
f 154/126/84 155/127/83 161/121/297 160/113/187
f 155/233/88 156/224/87 162/231/138 161/241/298
f 157/223/137 158/222/293 164/229/299 163/230/139
f 158/47/294 159/37/198 165/27/197 164/36/300
f 160/113/187 161/121/297 167/114/301 166/101/186
f 161/241/298 162/231/138 168/240/140 167/247/302
f 163/230/139 164/229/299 170/238/303 169/239/141
f 164/36/300 165/27/197 171/18/196 170/26/304
f 166/101/186 167/114/301 173/102/305 172/91/185
f 167/247/302 168/240/140 174/246/142 173/250/306
f 169/331/141 170/334/303 176/330/307 175/325/143
f 170/26/304 171/18/196 177/9/195 176/17/308
f 172/91/185 173/102/305 179/92/309 178/84/184
f 173/333/306 174/332/142 180/326/144 179/329/310
f 40/4/194 41/8/234 176/17/308 177/9/195
f 41/328/236 42/322/110 175/325/143 176/330/307
f 43/321/109 44/324/230 179/329/310 180/326/144
f 44/86/232 45/78/183 178/84/184 179/92/309
f 181/226/145 182/234/295 188/242/311 187/235/147
f 182/135/296 183/134/189 189/136/190 188/137/312
f 184/62/200 185/61/291 191/63/313 190/64/201
f 185/221/292 186/220/146 192/227/148 191/228/314
f 187/235/147 188/242/311 194/248/315 193/243/149
f 188/137/312 189/136/190 195/138/191 194/139/316
f 190/64/201 191/63/313 197/65/317 196/66/202
f 191/228/314 192/227/148 198/236/150 197/237/318
f 193/243/149 194/248/315 200/251/319 199/249/151
f 194/139/316 195/138/191 201/140/192 200/141/320
f 196/66/202 197/65/317 203/67/321 202/68/203
f 197/237/318 198/236/150 204/244/152 203/245/322
f 199/312/151 200/313/319 209/307/323 208/306/95
f 200/141/320 201/140/192 210/142/93 209/143/324
f 202/68/203 203/67/321 213/69/325 212/70/100
f 203/318/322 204/317/152 214/311/98 213/316/326
f 209/143/324 210/142/93 205/144/90 223/145/327
f 205/296/90 206/295/89 207/299/96 223/300/328
f 207/299/96 208/306/95 209/307/323 223/300/328
f 215/305/97 216/304/99 211/308/101 224/310/329
f 211/71/101 212/70/100 213/69/325 224/72/330
f 213/316/326 214/311/98 215/305/97 224/310/329
