# This file uses centimeters as units for non-parametric coordinates.

mtllib pomme.mtl
g default
v 0.248851 1.650194 0.358281
v 0.251538 1.646399 0.355318
v 0.254256 1.646834 0.362954
v 0.257521 1.649943 0.370560
v 0.253424 1.652908 0.370029
v 0.250418 1.655881 0.364515
v 0.300431 1.639209 0.340877
v 0.305013 1.644254 0.346093
v 0.304944 1.641893 0.352566
v 0.301224 1.640563 0.355695
v 0.298023 1.637495 0.348154
v 0.295362 1.637066 0.340530
v 0.337294 1.764387 0.548312
v 0.332737 1.762167 0.541388
v 0.332724 1.755337 0.540475
v 0.336403 1.751901 0.540230
v 0.339624 1.757115 0.546472
v 0.342337 1.763634 0.550411
v 0.388874 1.753402 0.530908
v 0.386161 1.754301 0.535624
v 0.383389 1.747775 0.531673
v 0.380106 1.742522 0.525364
v 0.384244 1.744315 0.523016
v 0.387332 1.750539 0.522966
v 0.338605 1.913168 0.458298
v 0.343674 1.915311 0.458644
v 0.341040 1.914858 0.450980
v 0.337838 1.911736 0.443352
v 0.334086 1.910442 0.446532
v 0.334023 1.908123 0.453081
v 0.390185 1.902183 0.440893
v 0.388618 1.896497 0.434659
v 0.385667 1.899500 0.429205
v 0.381636 1.902480 0.428692
v 0.384830 1.905551 0.436235
v 0.387498 1.905978 0.443856
v 0.250162 1.798975 0.268267
v 0.251704 1.801838 0.276209
v 0.254736 1.808024 0.276102
v 0.258809 1.809810 0.273732
v 0.255596 1.804594 0.267487
v 0.252875 1.798076 0.263551
v 0.301742 1.787990 0.250862
v 0.296699 1.788743 0.248763
v 0.299386 1.795287 0.252742
v 0.302607 1.800554 0.259072
v 0.306316 1.797089 0.258769
v 0.306299 1.790211 0.257786
v 0.385309 1.894630 0.596310
v 0.384133 1.898048 0.590634
v 0.378684 1.896483 0.587713
v 0.372652 1.891048 0.578336
v 0.373813 1.887367 0.584098
v 0.372388 1.880217 0.584387
v 0.378543 1.886132 0.593830
v 0.384045 1.888031 0.596695
v 0.429848 1.885144 0.581281
v 0.428564 1.878550 0.581672
v 0.430238 1.875242 0.576483
v 0.427155 1.868907 0.566274
v 0.428407 1.875704 0.565697
v 0.427077 1.879296 0.559487
v 0.430280 1.885463 0.570152
v 0.428652 1.888567 0.575612
v 0.209188 1.667233 0.217893
v 0.210384 1.663810 0.223562
v 0.208706 1.666893 0.228882
v 0.211789 1.672956 0.239261
v 0.210628 1.676638 0.233499
v 0.212053 1.683787 0.233210
v 0.208847 1.677244 0.222772
v 0.210472 1.673827 0.217502
v 0.265299 1.665125 0.215228
v 0.266554 1.661454 0.221264
v 0.260417 1.655919 0.211743
v 0.254857 1.654325 0.208774
v 0.253690 1.657751 0.202939
v 0.254991 1.664346 0.202480
v 0.260493 1.666245 0.205345
v 0.266648 1.672160 0.214787
v 0.251432 1.649388 0.363982
v 0.301587 1.638690 0.347026
v 0.336083 1.758714 0.545909
v 0.386238 1.748012 0.528956
v 0.337455 1.913669 0.452114
v 0.387634 1.902999 0.435213
v 0.252768 1.804351 0.270200
v 0.302946 1.793685 0.253296
v 0.379869 1.892956 0.593459
v 0.431518 1.881952 0.576034
v 0.207517 1.670421 0.223142
v 0.259186 1.659457 0.205805
v 0.292896 1.683823 0.467534
v 0.291409 1.689927 0.464505
v 0.292076 1.775207 0.412659
v 0.292221 1.782011 0.408793
v 0.292365 1.788816 0.404927
v 0.293032 1.874096 0.353080
v 0.294590 1.879552 0.349024
v 0.298508 1.881715 0.345872
v 0.342306 1.872459 0.331211
v 0.346171 1.868613 0.331693
v 0.347627 1.862469 0.334658
v 0.346875 1.777139 0.386284
v 0.346853 1.770422 0.390458
v 0.346842 1.763801 0.394604
v 0.346004 1.678300 0.446083
v 0.344415 1.672804 0.450072
v 0.340480 1.670619 0.453189
v 0.296778 1.679998 0.468054
v -0.187110 0.928794 -0.228853
v -0.200714 0.952172 -0.250101
v -0.221903 0.975598 -0.263715
v -0.248602 0.996779 -0.268362
v -0.278198 1.013641 -0.263587
v -0.307795 1.024534 -0.249859
v -0.334494 1.028391 -0.228520
v -0.355683 1.024836 -0.201660
v -0.369287 1.014215 -0.171907
v -0.373974 0.997569 -0.142175
v -0.369287 0.976527 -0.115373
v -0.355683 0.953148 -0.094126
v -0.334494 0.929722 -0.080512
v -0.307795 0.908541 -0.075865
v -0.278198 0.891679 -0.080640
v -0.248602 0.880786 -0.094368
v -0.221903 0.876929 -0.115707
v -0.200714 0.880485 -0.142567
v -0.187110 0.891105 -0.172320
v -0.182422 0.907751 -0.202052
v -0.105830 0.894345 -0.291643
v -0.132703 0.940526 -0.333615
v -0.174558 0.986801 -0.360507
v -0.227300 1.028641 -0.369686
v -0.285764 1.061950 -0.360255
v -0.344228 1.083468 -0.333136
v -0.396969 1.091088 -0.290984
v -0.438825 1.084064 -0.237925
v -0.465698 1.063084 -0.179153
v -0.474957 1.030201 -0.120420
v -0.465698 0.988635 -0.067477
v -0.438825 0.942454 -0.025505
v -0.396969 0.896179 0.001387
v -0.344228 0.854339 0.010566
v -0.285764 0.821029 0.001135
v -0.227300 0.799512 -0.025984
v -0.174559 0.791892 -0.068136
v -0.132703 0.798916 -0.121195
v -0.105830 0.819896 -0.179967
v -0.096570 0.852778 -0.238700
v -0.023621 0.868970 -0.346397
v -0.063101 0.936816 -0.408060
v -0.124593 1.004802 -0.447568
v -0.202078 1.066271 -0.461054
v -0.287970 1.115207 -0.447198
v -0.373862 1.146819 -0.407357
v -0.451346 1.158014 -0.345429
v -0.512838 1.147695 -0.267478
v -0.552318 1.116872 -0.181133
v -0.565922 1.068563 -0.094847
v -0.552318 1.007496 -0.017065
v -0.512838 0.939649 0.044597
v -0.451346 0.871664 0.084106
v -0.373862 0.810195 0.097592
v -0.287970 0.761259 0.083736
v -0.202078 0.729647 0.043894
v -0.124593 0.718452 -0.018033
v -0.063101 0.728771 -0.095985
v -0.023621 0.759594 -0.182330
v -0.010017 0.807903 -0.268616
v 0.067114 0.867499 -0.382298
v 0.015998 0.955341 -0.462134
v -0.063616 1.043362 -0.513285
v -0.163936 1.122946 -0.530746
v -0.275141 1.186304 -0.512806
v -0.386346 1.227233 -0.461223
v -0.486666 1.241727 -0.381045
v -0.566280 1.228366 -0.280121
v -0.617395 1.188460 -0.168329
v -0.635009 1.125914 -0.056614
v -0.617395 1.046850 0.044091
v -0.566280 0.959009 0.123926
v -0.486666 0.870987 0.175077
v -0.386346 0.791403 0.192538
v -0.275141 0.728045 0.174599
v -0.163936 0.687116 0.123015
v -0.063616 0.672623 0.042837
v 0.015998 0.685983 -0.058087
v 0.067114 0.725889 -0.169878
v 0.084727 0.788435 -0.281594
v 0.167767 0.895324 -0.394892
v 0.106275 1.000997 -0.490934
v 0.010499 1.106887 -0.552469
v -0.110186 1.202628 -0.573474
v -0.243966 1.278847 -0.551893
v -0.377746 1.328085 -0.489838
v -0.498431 1.345521 -0.393384
v -0.594207 1.329448 -0.271972
v -0.655699 1.281441 -0.137487
v -0.676888 1.206198 -0.003093
v -0.655699 1.111084 0.118055
v -0.594207 1.005410 0.214097
v -0.498431 0.899521 0.275632
v -0.377746 0.803780 0.296637
v -0.243966 0.727561 0.275056
v -0.110186 0.678323 0.213002
v 0.010499 0.660887 0.116547
v 0.106275 0.676960 -0.004865
v 0.167767 0.724967 -0.139350
v 0.188955 0.800210 -0.273744
v 0.268275 0.940561 -0.391333
v 0.197921 1.061464 -0.501217
v 0.088341 1.182615 -0.571621
v -0.049737 1.292154 -0.595654
v -0.202798 1.379358 -0.570962
v -0.355859 1.435692 -0.499964
v -0.493937 1.455641 -0.389608
v -0.603516 1.437252 -0.250698
v -0.673871 1.382326 -0.096830
v -0.698113 1.296238 0.056933
v -0.673871 1.187417 0.195541
v -0.603516 1.066513 0.305425
v -0.493937 0.945362 0.375829
v -0.355859 0.835823 0.399861
v -0.202798 0.748619 0.375170
v -0.049737 0.692285 0.304171
v 0.088341 0.672336 0.193816
v 0.197921 0.690725 0.054905
v 0.268275 0.745652 -0.098962
v 0.292517 0.831739 -0.252725
v 0.362178 0.996210 -0.375634
v 0.284694 1.129366 -0.496654
v 0.164009 1.262795 -0.574193
v 0.011937 1.383435 -0.600661
v -0.156636 1.479477 -0.573467
v -0.325209 1.541520 -0.495274
v -0.477280 1.563491 -0.373734
v -0.597965 1.543239 -0.220746
v -0.675450 1.482746 -0.051284
v -0.702149 1.387934 0.118062
v -0.675450 1.268083 0.270717
v -0.597965 1.134927 0.391737
v -0.477280 1.001498 0.469276
v -0.325209 0.880858 0.495744
v -0.156636 0.784816 0.468550
v 0.011937 0.722773 0.390356
v 0.164008 0.700802 0.268817
v 0.284693 0.721055 0.115829
v 0.362178 0.781548 -0.053633
v 0.388877 0.876360 -0.222979
v 0.447163 1.060901 -0.348181
v 0.364456 1.203032 -0.477357
v 0.235638 1.345453 -0.560122
v 0.073317 1.474224 -0.588374
v -0.106617 1.576739 -0.559347
v -0.286551 1.642963 -0.475884
v -0.448872 1.666414 -0.346153
v -0.577690 1.644797 -0.182854
v -0.660397 1.580227 -0.001971
v -0.688895 1.479025 0.178788
v -0.660397 1.351098 0.341731
v -0.577690 1.208967 0.470907
v -0.448872 1.066545 0.553672
v -0.286551 0.937775 0.581924
v -0.106617 0.835260 0.552898
v 0.073317 0.769036 0.469434
v 0.235637 0.745584 0.339703
v 0.364456 0.767202 0.176404
v 0.447162 0.831771 -0.004478
v 0.475661 0.932973 -0.185238
v 0.521137 1.133041 -0.309649
v 0.435244 1.280646 -0.443801
v 0.301464 1.428553 -0.529754
v 0.132891 1.562284 -0.559094
v -0.053973 1.668747 -0.528950
v -0.240837 1.737522 -0.442271
v -0.409410 1.761877 -0.307543
v -0.543190 1.739427 -0.137955
v -0.629082 1.672370 0.049895
v -0.658679 1.567270 0.237617
v -0.629082 1.434415 0.406836
v -0.543190 1.286810 0.540987
v -0.409410 1.138903 0.626940
v -0.240837 1.005172 0.656280
v -0.053973 0.898709 0.626136
v 0.132891 0.829934 0.539457
v 0.301464 0.805579 0.404730
v 0.435244 0.828029 0.235141
v 0.521136 0.895086 0.047292
v 0.550733 1.000186 -0.140430
v 0.582278 1.210853 -0.260989
v 0.495316 1.360299 -0.396813
v 0.359868 1.510049 -0.483837
v 0.189194 1.645447 -0.513543
v -0.000000 1.753237 -0.483023
v -0.189194 1.822870 -0.395264
v -0.359868 1.847528 -0.258857
v -0.495315 1.824798 -0.087154
v -0.582278 1.756905 0.103037
v -0.612244 1.650495 0.293099
v -0.582278 1.515984 0.464427
v -0.495315 1.366539 0.600251
v -0.359868 1.216789 0.687275
v -0.189194 1.081391 0.716981
v -0.000000 0.973601 0.686461
v 0.189194 0.903968 0.598702
v 0.359868 0.879310 0.462295
v 0.495315 0.902040 0.290592
v 0.582278 0.969933 0.100401
v 0.612243 1.076342 -0.089660
v 0.629083 1.292423 -0.203397
v 0.543191 1.440028 -0.337549
v 0.409410 1.587935 -0.423502
v 0.240838 1.721666 -0.452842
v 0.053973 1.828129 -0.422697
v -0.132891 1.896904 -0.336019
v -0.301464 1.921259 -0.201291
v -0.435244 1.898809 -0.031703
v -0.521136 1.831752 0.156147
v -0.550733 1.726652 0.343869
v -0.521136 1.593797 0.513088
v -0.435244 1.446192 0.647239
v -0.301464 1.298285 0.733192
v -0.132891 1.164555 0.762532
v 0.053973 1.058091 0.732388
v 0.240837 0.989316 0.645709
v 0.409410 0.964961 0.510982
v 0.543190 0.987411 0.341393
v 0.629082 1.054468 0.153544
v 0.658679 1.159568 -0.034178
v 0.660397 1.375740 -0.138293
v 0.577690 1.517871 -0.267469
v 0.448872 1.660293 -0.350234
v 0.286551 1.789063 -0.378486
v 0.106617 1.891578 -0.349459
v -0.073317 1.957802 -0.265996
v -0.235637 1.981254 -0.136265
v -0.364456 1.959636 0.027034
v -0.447162 1.895066 0.207916
v -0.475661 1.793865 0.388676
v -0.447162 1.665937 0.551619
v -0.364456 1.523806 0.680795
v -0.235637 1.381385 0.763560
v -0.073317 1.252614 0.791812
v 0.106617 1.150100 0.762785
v 0.286551 1.083875 0.679322
v 0.448872 1.060424 0.549591
v 0.577690 1.082041 0.386292
v 0.660397 1.146611 0.205410
v 0.688895 1.247813 0.024650
v 0.675450 1.458754 -0.067278
v 0.597965 1.591911 -0.188298
v 0.477280 1.725340 -0.265838
v 0.325209 1.845980 -0.292306
v 0.156636 1.942022 -0.265112
v -0.011937 2.004065 -0.186918
v -0.164008 2.026036 -0.065378
v -0.284693 2.005783 0.087610
v -0.362178 1.945290 0.257071
v -0.388877 1.850478 0.426417
v -0.362178 1.730628 0.579072
v -0.284693 1.597471 0.700092
v -0.164009 1.464043 0.777631
v -0.011937 1.343403 0.804099
v 0.156636 1.247361 0.776906
v 0.325209 1.185318 0.698712
v 0.477280 1.163347 0.577172
v 0.597965 1.183599 0.424184
v 0.675449 1.244092 0.254723
v 0.702149 1.338904 0.085376
v 0.673871 1.539421 0.007897
v 0.603516 1.660325 -0.101987
v 0.493937 1.781475 -0.172391
v 0.355859 1.891014 -0.196423
v 0.202798 1.978219 -0.171732
v 0.049737 2.034553 -0.100733
v -0.088341 2.054501 0.009622
v -0.197921 2.036113 0.148533
v -0.268275 1.981186 0.302400
v -0.292518 1.895099 0.456164
v -0.268275 1.786277 0.594771
v -0.197921 1.665373 0.704655
v -0.088341 1.544223 0.775059
v 0.049737 1.434684 0.799092
v 0.202798 1.347479 0.774400
v 0.355859 1.291146 0.703402
v 0.493937 1.271197 0.593046
v 0.603516 1.289585 0.454136
v 0.673871 1.344512 0.300268
v 0.698113 1.430599 0.146505
v 0.650469 1.608032 0.080235
v 0.588977 1.713705 -0.015807
v 0.493201 1.819595 -0.077342
v 0.372516 1.915335 -0.098347
v 0.238736 1.991555 -0.076766
v 0.104956 2.040792 -0.014711
v -0.015729 2.058228 0.081743
v -0.111505 2.042156 0.203155
v -0.172997 1.994149 0.337640
v -0.194186 1.918905 0.472034
v -0.172997 1.823792 0.593182
v -0.111505 1.718118 0.689224
v -0.015729 1.612228 0.750759
v 0.104956 1.516488 0.771764
v 0.238736 1.440269 0.750183
v 0.372516 1.391031 0.688128
v 0.493201 1.373595 0.591674
v 0.588977 1.389668 0.470262
v 0.650469 1.437675 0.335777
v 0.671657 1.512918 0.201383
v 0.597247 1.650239 0.139516
v 0.546132 1.738080 0.059680
v 0.466518 1.826102 0.008529
v 0.366198 1.905686 -0.008932
v 0.254992 1.969044 0.009007
v 0.143787 2.009973 0.060591
v 0.043468 2.024467 0.140769
v -0.036146 2.011106 0.241693
v -0.087262 1.971200 0.353485
v -0.104875 1.908654 0.465200
v -0.087262 1.829590 0.565904
v -0.036146 1.741749 0.645740
v 0.043468 1.653727 0.696891
v 0.143787 1.574143 0.714352
v 0.254993 1.510785 0.696413
v 0.366198 1.469856 0.644829
v 0.466517 1.455362 0.564651
v 0.546132 1.468723 0.463727
v 0.597247 1.508629 0.351936
v 0.614860 1.571175 0.240220
v 0.516195 1.666006 0.184947
v 0.476715 1.733853 0.123285
v 0.415223 1.801838 0.083776
v 0.337739 1.863307 0.070290
v 0.251847 1.912243 0.084146
v 0.165954 1.943856 0.123988
v 0.088470 1.955050 0.185916
v 0.026978 1.944731 0.263867
v -0.012502 1.913909 0.350212
v -0.026106 1.865599 0.436498
v -0.012502 1.804533 0.514279
v 0.026978 1.736686 0.575942
v 0.088470 1.668701 0.615450
v 0.165954 1.607231 0.628936
v 0.251847 1.558296 0.615081
v 0.337739 1.526683 0.575239
v 0.415223 1.515489 0.513311
v 0.476715 1.525808 0.435360
v 0.516195 1.556630 0.349015
v 0.529799 1.604939 0.262729
v 0.417676 1.667299 0.223647
v 0.390803 1.713480 0.181675
v 0.348947 1.759755 0.154783
v 0.296206 1.801596 0.145604
v 0.237742 1.834905 0.155035
v 0.179278 1.856422 0.182154
v 0.126537 1.864042 0.224306
v 0.084681 1.857018 0.277365
v 0.057808 1.836038 0.336138
v 0.048549 1.803156 0.394870
v 0.057808 1.761590 0.447813
v 0.084681 1.715409 0.489785
v 0.126537 1.669133 0.516677
v 0.179278 1.627293 0.525857
v 0.237742 1.593984 0.516425
v 0.296206 1.572466 0.489306
v 0.348947 1.564846 0.447154
v 0.390803 1.571870 0.394095
v 0.417676 1.592850 0.335323
v 0.426936 1.625733 0.276591
v 0.314408 1.669283 0.264794
v 0.300804 1.692662 0.243547
v 0.279615 1.716088 0.229933
v 0.252916 1.737268 0.225286
v 0.223320 1.754130 0.230060
v 0.193723 1.765024 0.243789
v 0.167024 1.768881 0.265128
v 0.145835 1.765325 0.291988
v 0.132231 1.754704 0.321740
v 0.127544 1.738058 0.351473
v 0.132231 1.717016 0.378274
v 0.145835 1.693638 0.399522
v 0.167024 1.670212 0.413135
v 0.193723 1.649031 0.417782
v 0.223320 1.632169 0.413008
v 0.252916 1.621276 0.399279
v 0.279615 1.617418 0.377941
v 0.300804 1.620974 0.351081
v 0.314408 1.631595 0.321328
v 0.319096 1.648241 0.291596
v -0.274431 0.958223 -0.168405
v 0.217377 1.684376 0.315685
vt 0.873940 0.033918
vt 0.873327 0.036393
vt 0.843895 0.004688
vt 0.843835 0.001002
vt 0.875325 0.037616
vt 0.875287 0.035448
vt 0.881626 0.069662
vt 0.844516 0.069592
vt 0.841618 0.003713
vt 0.841611 0.000007
vt 0.884147 0.069674
vt 0.843937 0.134497
vt 0.873327 0.102930
vt 0.841607 0.069662
vt 0.839284 0.004826
vt 0.839366 0.001044
vt 0.875324 0.101732
vt 0.841603 0.135611
vt 0.873940 0.105405
vt 0.843856 0.138279
vt 0.838698 0.069731
vt 0.809895 0.036393
vt 0.809281 0.033918
vt 0.875286 0.103885
vt 0.841610 0.139316
vt 0.839326 0.134635
vt 0.801587 0.069662
vt 0.807898 0.037591
vt 0.807936 0.035439
vt 0.839385 0.138319
vt 0.809895 0.102930
vt 0.799067 0.069649
vt 0.809281 0.105405
vt 0.807896 0.101707
vt 0.807935 0.103875
vt 0.895501 0.036357
vt 0.894887 0.033882
vt 0.924945 0.001046
vt 0.924891 0.004790
vt 0.893504 0.037554
vt 0.893542 0.035402
vt 0.927217 0.003737
vt 0.927210 0.000000
vt 0.924312 0.069695
vt 0.887202 0.069625
vt 0.884681 0.069613
vt 0.927216 0.069656
vt 0.929462 0.001008
vt 0.929543 0.004790
vt 0.924932 0.134599
vt 0.895501 0.102894
vt 0.893503 0.101671
vt 0.927209 0.135575
vt 0.930156 0.069625
vt 0.959547 0.033882
vt 0.958933 0.036357
vt 0.894887 0.105369
vt 0.924991 0.138283
vt 0.893541 0.103839
vt 0.927216 0.139280
vt 0.929543 0.134461
vt 0.967240 0.069625
vt 0.960932 0.037579
vt 0.960893 0.035412
vt 0.929462 0.138243
vt 0.958933 0.102894
vt 0.969761 0.069637
vt 0.959547 0.105369
vt 0.960930 0.101696
vt 0.960892 0.103848
vt 0.003002 0.024128
vt 0.002993 0.022688
vt 0.040502 0.022688
vt 0.040494 0.024128
vt 0.000002 0.024161
vt -0.000000 0.022689
vt 0.003002 0.021248
vt 0.040494 0.021248
vt 0.043495 0.024173
vt 0.043496 0.022687
vt 0.040201 0.044493
vt 0.003295 0.044493
vt 0.000029 0.044076
vt 0.000001 0.021203
vt 0.003295 0.000884
vt 0.040201 0.000884
vt 0.043494 0.021216
vt 0.043467 0.044076
vt 0.003330 0.045368
vt 0.040198 0.045368
vt 0.000632 0.044967
vt 0.000029 0.001300
vt 0.003298 0.000008
vt 0.040165 0.000008
vt 0.043467 0.001300
vt 0.042879 0.044966
vt 0.000616 0.000410
vt 0.042864 0.000409
vt 0.378754 0.024128
vt 0.378745 0.022688
vt 0.416207 0.022697
vt 0.416154 0.024158
vt 0.375753 0.024159
vt 0.375752 0.022688
vt 0.378754 0.021248
vt 0.416244 0.021248
vt 0.419219 0.024191
vt 0.419233 0.022692
vt 0.415952 0.044492
vt 0.379046 0.044492
vt 0.375780 0.044076
vt 0.375753 0.021203
vt 0.379046 0.000884
vt 0.415952 0.000884
vt 0.419245 0.021203
vt 0.419217 0.044076
vt 0.379082 0.045367
vt 0.415950 0.045367
vt 0.376383 0.044966
vt 0.375780 0.001300
vt 0.379050 0.000008
vt 0.415916 0.000008
vt 0.419217 0.001300
vt 0.418631 0.044966
vt 0.376368 0.000410
vt 0.418615 0.000409
vt 0.963680 0.105441
vt 0.963657 0.103931
vt 0.995779 0.103925
vt 0.995781 0.105419
vt 0.960801 0.105351
vt 0.961306 0.104102
vt 0.998624 0.105337
vt 0.998114 0.104096
vt 0.995754 0.123811
vt 0.963653 0.123833
vt 0.960792 0.123829
vt 0.998615 0.123815
vt 0.995727 0.142203
vt 0.963626 0.142225
vt 0.960783 0.142307
vt 0.998606 0.142293
vt 0.963629 0.143719
vt 0.995750 0.143713
vt 0.961293 0.143547
vt 0.998101 0.143542
vt 0.768670 0.001525
vt 0.768647 0.000014
vt 0.800768 0.000008
vt 0.800771 0.001503
vt 0.765791 0.001435
vt 0.766296 0.000186
vt 0.803614 0.001420
vt 0.803104 0.000180
vt 0.800744 0.019895
vt 0.768643 0.019917
vt 0.765781 0.019913
vt 0.803605 0.019899
vt 0.800717 0.038286
vt 0.768616 0.038309
vt 0.765772 0.038391
vt 0.803596 0.038377
vt 0.768619 0.039803
vt 0.800740 0.039797
vt 0.766283 0.039631
vt 0.803091 0.039626
vt 0.779443 0.631371
vt 0.773722 0.620142
vt 0.805507 0.597049
vt 0.816809 0.619231
vt 0.764811 0.611231
vt 0.787904 0.579446
vt 0.753582 0.605510
vt 0.765723 0.568145
vt 0.741135 0.603538
vt 0.741135 0.564250
vt 0.728688 0.605510
vt 0.716547 0.568145
vt 0.717459 0.611231
vt 0.694366 0.579446
vt 0.708548 0.620142
vt 0.676763 0.597049
vt 0.702826 0.631371
vt 0.665461 0.619231
vt 0.700855 0.643818
vt 0.661567 0.643818
vt 0.702826 0.656266
vt 0.665461 0.668406
vt 0.708548 0.667494
vt 0.676763 0.690587
vt 0.717459 0.676406
vt 0.694366 0.708190
vt 0.728688 0.682127
vt 0.716547 0.719492
vt 0.741135 0.684098
vt 0.741135 0.723387
vt 0.753582 0.682127
vt 0.765723 0.719492
vt 0.764811 0.676406
vt 0.787904 0.708190
vt 0.773722 0.667494
vt 0.805507 0.690587
vt 0.779443 0.656266
vt 0.816809 0.668406
vt 0.781415 0.643818
vt 0.820703 0.643818
vt 0.835707 0.575108
vt 0.852311 0.607695
vt 0.809845 0.549247
vt 0.777258 0.532643
vt 0.741135 0.526921
vt 0.705012 0.532643
vt 0.672424 0.549247
vt 0.646563 0.575108
vt 0.629959 0.607695
vt 0.624238 0.643818
vt 0.629959 0.679942
vt 0.646563 0.712529
vt 0.672425 0.738390
vt 0.705012 0.754994
vt 0.741135 0.760715
vt 0.777258 0.754994
vt 0.809845 0.738390
vt 0.835707 0.712529
vt 0.852311 0.679942
vt 0.858032 0.643818
vt 0.863578 0.554859
vt 0.885075 0.597049
vt 0.830095 0.521376
vt 0.787904 0.499878
vt 0.741135 0.492471
vt 0.694366 0.499878
vt 0.652175 0.521376
vt 0.618692 0.554859
vt 0.597195 0.597049
vt 0.589787 0.643818
vt 0.597195 0.690587
vt 0.618692 0.732778
vt 0.652175 0.766261
vt 0.694366 0.787759
vt 0.741135 0.795166
vt 0.787904 0.787759
vt 0.830095 0.766261
vt 0.863578 0.732778
vt 0.885075 0.690587
vt 0.892482 0.643818
vt 0.399533 0.166980
vt 0.399533 0.123371
vt 0.423581 0.104705
vt 0.423581 0.157167
vt 0.848154 0.496519
vt 0.888434 0.536799
vt 0.797398 0.470658
vt 0.741135 0.461747
vt 0.684872 0.470658
vt 0.634116 0.496519
vt 0.593836 0.536799
vt 0.000000 0.307272
vt 0.000000 0.263662
vt 0.024048 0.273476
vt 0.024048 0.325938
vt 0.000000 0.215321
vt 0.024048 0.215321
vt 0.000000 0.166980
vt 0.024048 0.157167
vt 0.000000 0.123371
vt 0.024048 0.104705
vt 0.634116 0.791117
vt 0.593836 0.750837
vt 0.684872 0.816979
vt 0.741135 0.825890
vt 0.797398 0.816979
vt 0.848154 0.791117
vt 0.888434 0.750837
vt 0.399533 0.307272
vt 0.399533 0.263662
vt 0.423581 0.273476
vt 0.423581 0.325938
vt 0.399533 0.215321
vt 0.423581 0.215321
vt 0.455338 0.088762
vt 0.455338 0.148785
vt 0.423581 0.063071
vt 0.455338 0.041128
vt 0.805507 0.445702
vt 0.863578 0.475290
vt 0.741135 0.435506
vt 0.676763 0.445702
vt 0.618692 0.475290
vt 0.024048 0.367572
vt 0.055804 0.341880
vt 0.055804 0.389514
vt 0.055804 0.281857
vt 0.055804 0.215321
vt 0.055804 0.148785
vt 0.055804 0.088762
vt 0.024048 0.063071
vt 0.055804 0.041128
vt 0.676763 0.841935
vt 0.618692 0.812346
vt 0.741135 0.852130
vt 0.805507 0.841935
vt 0.863578 0.812346
vt 0.423581 0.367572
vt 0.455338 0.341880
vt 0.455338 0.389514
vt 0.455338 0.281857
vt 0.455338 0.215321
vt 0.490946 0.075936
vt 0.490946 0.142042
vt 0.490946 0.023474
vt 0.812031 0.425624
vt 0.875987 0.458211
vt 0.741135 0.414395
vt 0.670239 0.425624
vt 0.606283 0.458211
vt 0.091413 0.354706
vt 0.091413 0.407168
vt 0.091413 0.288600
vt 0.091413 0.215321
vt 0.091413 0.142042
vt 0.091413 0.075936
vt 0.091413 0.023474
vt 0.670239 0.862013
vt 0.606283 0.829426
vt 0.741135 0.873242
vt 0.812031 0.862013
vt 0.875987 0.829426
vt 0.490946 0.354706
vt 0.490946 0.407168
vt 0.490946 0.288600
vt 0.490946 0.215321
vt 0.529530 0.066542
vt 0.529530 0.137104
vt 0.529530 0.010545
vt 0.223154 0.439667
vt 0.223154 0.500713
vt 0.187524 0.496152
vt 0.187524 0.430993
vt 0.223154 0.568382
vt 0.187524 0.568382
vt 0.223154 0.636051
vt 0.187524 0.640612
vt 0.223154 0.697096
vt 0.187524 0.705771
vt 0.129997 0.364100
vt 0.129997 0.420098
vt 0.129997 0.293539
vt 0.129997 0.215321
vt 0.129997 0.137104
vt 0.129997 0.066542
vt 0.129997 0.010545
vt 0.042807 0.984255
vt 0.042807 0.923210
vt 0.078437 0.927770
vt 0.078437 0.992930
vt 0.042807 0.855541
vt 0.078437 0.855541
vt 0.042807 0.787871
vt 0.078437 0.783311
vt 0.042807 0.726826
vt 0.078437 0.718151
vt 0.529530 0.364100
vt 0.529530 0.420098
vt 0.529530 0.293539
vt 0.529530 0.215321
vt 0.570139 0.060812
vt 0.570139 0.134091
vt 0.570139 0.002657
vt 0.150024 0.493370
vt 0.150024 0.425701
vt 0.150024 0.568382
vt 0.150024 0.643394
vt 0.150024 0.711063
vt 0.170606 0.369831
vt 0.170606 0.427985
vt 0.170606 0.296552
vt 0.170606 0.215321
vt 0.170606 0.134091
vt 0.170606 0.060812
vt 0.170606 0.002657
vt 0.115937 0.930552
vt 0.115937 0.998221
vt 0.115937 0.855541
vt 0.115937 0.780529
vt 0.115937 0.712860
vt 0.570139 0.369831
vt 0.570139 0.427985
vt 0.570139 0.296552
vt 0.570139 0.215321
vt 0.611773 0.058886
vt 0.611773 0.133078
vt 0.611773 0.000006
vt 0.111577 0.492435
vt 0.111577 0.423922
vt 0.111577 0.568382
vt 0.111577 0.644329
vt 0.111577 0.712841
vt 0.212239 0.371757
vt 0.212239 0.430636
vt 0.212239 0.297564
vt 0.212239 0.215321
vt 0.212239 0.133078
vt 0.212239 0.058886
vt 0.212240 0.000006
vt 0.154384 0.931487
vt 0.154384 1.000000
vt 0.154384 0.855541
vt 0.154384 0.779594
vt 0.154384 0.711081
vt 0.611773 0.371757
vt 0.611773 0.430636
vt 0.611773 0.297564
vt 0.611773 0.215321
vt 0.653407 0.060812
vt 0.653407 0.134091
vt 0.653407 0.002657
vt 0.073130 0.493370
vt 0.073130 0.425701
vt 0.073130 0.568382
vt 0.073130 0.643394
vt 0.073130 0.711063
vt 0.253874 0.369831
vt 0.253874 0.427985
vt 0.253874 0.296552
vt 0.253874 0.215321
vt 0.253874 0.134091
vt 0.253874 0.060812
vt 0.253874 0.002657
vt 0.192831 0.930552
vt 0.192831 0.998221
vt 0.192831 0.855541
vt 0.192831 0.780529
vt 0.192831 0.712860
vt 0.653407 0.369831
vt 0.653407 0.427985
vt 0.653407 0.296552
vt 0.653407 0.215321
vt 0.694016 0.066542
vt 0.694016 0.137104
vt 0.694016 0.010545
vt 0.035630 0.496152
vt 0.035630 0.430993
vt 0.035630 0.568382
vt 0.035630 0.640612
vt 0.035630 0.705771
vt 0.294482 0.364100
vt 0.294482 0.420098
vt 0.294482 0.293539
vt 0.294482 0.215321
vt 0.294482 0.137104
vt 0.294482 0.066542
vt 0.294482 0.010545
vt 0.230331 0.927770
vt 0.230331 0.992930
vt 0.230331 0.855541
vt 0.230331 0.783311
vt 0.230331 0.718151
vt 0.694016 0.364100
vt 0.694016 0.420098
vt 0.694016 0.293539
vt 0.694016 0.215321
vt 0.732600 0.075936
vt 0.732600 0.142042
vt 0.732600 0.023474
vt 0.000000 0.500713
vt 0.000000 0.439667
vt 0.000000 0.568382
vt 0.000000 0.636051
vt 0.000000 0.697096
vt 0.333066 0.354706
vt 0.333066 0.407168
vt 0.333066 0.288600
vt 0.333066 0.215321
vt 0.333066 0.142042
vt 0.333066 0.075936
vt 0.333066 0.023474
vt 0.265961 0.923210
vt 0.265961 0.984255
vt 0.265961 0.855541
vt 0.265961 0.787871
vt 0.265961 0.726826
vt 0.732600 0.354706
vt 0.732600 0.407168
vt 0.732600 0.288600
vt 0.732600 0.215321
vt 0.768208 0.088762
vt 0.768208 0.148785
vt 0.768208 0.041128
vt 0.543376 0.800448
vt 0.480753 0.832356
vt 0.474366 0.812696
vt 0.531226 0.783725
vt 0.411336 0.843350
vt 0.411336 0.822679
vt 0.341919 0.832356
vt 0.348306 0.812696
vt 0.279296 0.800448
vt 0.291446 0.783725
vt 0.368675 0.341880
vt 0.368675 0.389514
vt 0.368675 0.281857
vt 0.368675 0.215321
vt 0.368675 0.148785
vt 0.368675 0.088762
vt 0.368675 0.041128
vt 0.279296 0.436974
vt 0.341919 0.405066
vt 0.348306 0.424726
vt 0.291446 0.453697
vt 0.411336 0.394072
vt 0.411336 0.414743
vt 0.480753 0.405066
vt 0.474366 0.424726
vt 0.543376 0.436974
vt 0.531226 0.453697
vt 0.768208 0.341880
vt 0.768208 0.389514
vt 0.768208 0.281857
vt 0.768208 0.215321
vt 0.795930 0.104705
vt 0.795930 0.157167
vt 0.795930 0.063071
vt 0.466426 0.788260
vt 0.516123 0.762938
vt 0.411336 0.796986
vt 0.356246 0.788260
vt 0.306549 0.762938
vt 0.396397 0.325938
vt 0.396397 0.367572
vt 0.396397 0.273476
vt 0.396397 0.215321
vt 0.396397 0.157167
vt 0.396397 0.104705
vt 0.396397 0.063071
vt 0.356246 0.449162
vt 0.306549 0.474484
vt 0.411336 0.440436
vt 0.466426 0.449162
vt 0.516123 0.474484
vt 0.795930 0.325938
vt 0.795930 0.367572
vt 0.795930 0.273476
vt 0.795930 0.215321
vt 0.580885 0.673801
vt 0.555563 0.723498
vt 0.531226 0.705816
vt 0.552275 0.664505
vt 0.498441 0.738601
vt 0.457130 0.759650
vt 0.411336 0.766903
vt 0.365542 0.759650
vt 0.324231 0.738601
vt 0.267109 0.723498
vt 0.291446 0.705816
vt 0.241787 0.673801
vt 0.270397 0.664505
vt 0.233061 0.618711
vt 0.263144 0.618711
vt 0.241787 0.563621
vt 0.270397 0.572917
vt 0.267109 0.513924
vt 0.291446 0.531606
vt 0.324231 0.498821
vt 0.365542 0.477772
vt 0.411336 0.470519
vt 0.457130 0.477772
vt 0.498441 0.498821
vt 0.555563 0.513924
vt 0.531226 0.531606
vt 0.580885 0.563621
vt 0.552274 0.572917
vt 0.589611 0.618711
vt 0.559528 0.618711
vt 0.503936 0.685989
vt 0.520193 0.654081
vt 0.478614 0.711311
vt 0.446706 0.727568
vt 0.411336 0.733171
vt 0.375966 0.727568
vt 0.344058 0.711311
vt 0.318736 0.685989
vt 0.302478 0.654081
vt 0.296876 0.618711
vt 0.302478 0.583341
vt 0.318736 0.551433
vt 0.344058 0.526111
vt 0.375966 0.509853
vt 0.411336 0.504251
vt 0.446706 0.509853
vt 0.478613 0.526111
vt 0.503936 0.551433
vt 0.520193 0.583341
vt 0.525795 0.618711
vt 0.474366 0.664505
vt 0.485432 0.642786
vt 0.457130 0.681741
vt 0.435411 0.692807
vt 0.411336 0.696620
vt 0.387261 0.692807
vt 0.365542 0.681741
vt 0.348306 0.664505
vt 0.337240 0.642786
vt 0.333427 0.618711
vt 0.337240 0.594636
vt 0.348306 0.572917
vt 0.365542 0.555681
vt 0.387261 0.544615
vt 0.411336 0.540802
vt 0.435411 0.544615
vt 0.457130 0.555681
vt 0.474366 0.572917
vt 0.485432 0.594636
vt 0.489245 0.618711
vt 0.443244 0.641893
vt 0.448846 0.630899
vt 0.434518 0.650619
vt 0.423524 0.656221
vt 0.411336 0.658151
vt 0.399148 0.656221
vt 0.388154 0.650619
vt 0.379428 0.641893
vt 0.373826 0.630899
vt 0.371896 0.618711
vt 0.373826 0.606523
vt 0.379428 0.595529
vt 0.388154 0.586803
vt 0.399148 0.581201
vt 0.411336 0.579271
vt 0.423524 0.581201
vt 0.434518 0.586803
vt 0.443244 0.595529
vt 0.448846 0.606523
vt 0.450776 0.618711
vt 0.741135 0.643818
vt 0.411336 0.618711
vn -0.285498 -0.957985 -0.027474
vn -0.935323 -0.236604 0.263041
vn -0.860569 -0.470286 0.195584
vn -0.267021 -0.961508 -0.064826
vn -0.930205 0.189166 0.314540
vn -0.936882 0.160511 0.310625
vn -0.147581 -0.924441 0.351608
vn -0.151955 -0.948639 0.277476
vn -0.077313 -0.964563 0.252270
vn -0.028637 -0.949807 0.311525
vn -0.160505 -0.984572 -0.069690
vn -0.850267 -0.289957 0.439284
vn -0.758281 -0.339866 0.556328
vn -0.928805 0.184510 0.321369
vn -0.058633 -0.843166 0.534447
vn 0.927289 -0.206459 -0.312266
vn 0.744587 -0.594094 -0.304372
vn 0.565912 -0.773281 -0.285973
vn 0.919334 -0.234767 -0.315769
vn -0.197073 -0.976401 -0.088336
vn 0.767719 -0.631687 -0.107602
vn 0.749465 -0.660247 0.048751
vn 0.043577 -0.865365 0.499245
vn 0.928571 -0.211021 -0.305329
vn -0.927420 0.192771 0.320517
vn -0.751969 0.004963 0.659180
vn -0.575279 -0.097756 0.812095
vn -0.919909 0.182755 0.346942
vn 0.148520 -0.397247 0.905614
vn 0.185698 -0.377452 0.907219
vn 0.062898 -0.671981 0.737893
vn 0.137536 -0.687881 0.712674
vn 0.273231 -0.423815 0.863555
vn 0.013948 -0.717005 0.696928
vn 0.132893 -0.742275 0.656786
vn 0.930111 -0.354836 0.094788
vn 0.852880 -0.402557 0.332480
vn 0.254966 -0.392220 0.883830
vn 0.930085 -0.202830 -0.306273
vn 0.936422 -0.212746 -0.279023
vn 0.161024 0.984501 0.069494
vn -0.744591 0.594371 0.303819
vn -0.565246 0.773935 0.285520
vn 0.197437 0.976339 0.088214
vn -0.927301 0.206423 0.312254
vn -0.919337 0.234800 0.315734
vn 0.027998 0.949974 -0.311071
vn 0.076815 0.964649 -0.252096
vn 0.151475 0.948777 -0.277269
vn 0.146915 0.924683 -0.351251
vn 0.285733 0.957917 0.027412
vn -0.928550 0.211052 0.305371
vn -0.748956 0.660896 -0.047760
vn -0.844374 0.532699 -0.057128
vn -0.930086 0.202819 0.306276
vn -0.043858 0.864994 -0.499863
vn -0.132236 0.742065 -0.657156
vn 0.930208 -0.189162 -0.314532
vn 0.936154 0.232853 -0.263430
vn 0.861794 0.467650 -0.196504
vn 0.936796 -0.160947 -0.310658
vn 0.266727 0.961588 0.064855
vn 0.058896 0.843545 -0.533820
vn 0.757758 0.339291 -0.557391
vn 0.773154 0.190324 -0.604987
vn -0.013337 0.716683 -0.697272
vn 0.928784 -0.184514 -0.321427
vn 0.927418 -0.192756 -0.320533
vn -0.930987 0.353454 -0.091286
vn -0.854118 0.402172 -0.329757
vn -0.936341 0.212571 0.279425
vn -0.273547 0.423876 -0.863424
vn -0.254820 0.392000 -0.883970
vn -0.137050 0.687786 -0.712859
vn -0.062413 0.671891 -0.738016
vn -0.148487 0.397230 -0.905627
vn 0.751932 -0.004780 -0.659224
vn 0.575339 0.097257 -0.812112
vn -0.185663 0.377293 -0.907292
vn 0.919875 -0.182735 -0.347041
vn 0.299743 0.491630 0.817590
vn 0.439232 0.462493 0.770179
vn -0.928789 0.197803 0.313409
vn -0.928788 0.197804 0.313411
vn -0.932925 0.192664 0.304190
vn -0.928789 0.197803 0.313410
vn 0.928789 -0.197803 -0.313409
vn 0.928789 -0.197803 -0.313409
vn 0.924474 -0.203460 -0.322415
vn 0.928789 -0.197803 -0.313408
vn -0.438147 -0.467477 -0.767784
vn -0.297857 -0.496621 -0.815260
vn -0.766552 -0.487586 0.417921
vn 0.622254 -0.780878 -0.055049
vn -0.631754 -0.305597 0.712388
vn -0.774941 -0.187897 0.603458
vn 0.843000 -0.534602 0.059594
vn 0.756916 -0.606295 0.243893
vn -0.765855 0.634192 0.106143
vn -0.620133 0.782902 0.049995
vn 0.770234 0.484396 -0.414850
vn 0.851600 0.286870 -0.438729
vn -0.760659 0.602141 -0.242535
vn 0.629732 0.310952 -0.711861
vn -0.727680 0.356710 0.585867
vn -0.924532 0.202919 0.322591
vn 0.999987 -0.005118 -0.000780
vn 0.932921 -0.192091 -0.304564
vn -0.999932 0.011303 -0.002957
vn 0.727088 -0.367040 -0.580193
vn -0.591751 -0.691619 -0.414119
vn -0.576107 -0.718503 -0.389685
vn -0.544553 -0.722313 -0.426294
vn -0.554229 -0.705685 -0.441406
vn -0.551742 -0.745441 -0.374031
vn -0.529483 -0.738975 -0.416611
vn -0.521040 -0.769796 -0.368688
vn -0.510493 -0.754039 -0.413306
vn -0.487007 -0.789187 -0.374178
vn -0.489443 -0.766033 -0.416701
vn -0.452974 -0.801713 -0.389964
vn -0.468392 -0.773781 -0.426465
vn -0.422272 -0.806148 -0.414502
vn -0.449403 -0.776524 -0.441642
vn -0.397907 -0.802059 -0.445389
vn -0.434332 -0.773995 -0.460747
vn -0.382263 -0.789847 -0.479601
vn -0.424656 -0.766441 -0.481908
vn -0.376873 -0.770705 -0.513791
vn -0.421322 -0.754601 -0.503056
vn -0.382263 -0.746508 -0.544611
vn -0.424656 -0.739635 -0.522118
vn -0.397907 -0.719625 -0.569043
vn -0.434332 -0.723008 -0.537230
vn -0.422272 -0.692687 -0.584697
vn -0.449402 -0.706345 -0.546913
vn -0.452974 -0.668331 -0.590041
vn -0.468392 -0.691281 -0.550218
vn -0.487007 -0.648941 -0.584551
vn -0.489443 -0.679287 -0.546822
vn -0.521040 -0.636415 -0.568765
vn -0.510493 -0.671540 -0.537058
vn -0.551742 -0.631979 -0.544227
vn -0.529483 -0.668796 -0.521881
vn -0.576107 -0.636068 -0.513340
vn -0.544553 -0.671325 -0.502777
vn -0.591751 -0.648281 -0.479127
vn -0.554229 -0.678880 -0.481615
vn -0.597141 -0.667422 -0.444938
vn -0.557563 -0.690719 -0.460468
vn -0.380306 -0.717430 -0.583662
vn -0.361845 -0.749155 -0.554829
vn -0.409059 -0.685641 -0.602136
vn -0.445290 -0.656899 -0.608441
vn -0.485452 -0.634017 -0.601962
vn -0.525614 -0.619235 -0.583333
vn -0.561845 -0.614001 -0.554377
vn -0.590598 -0.618826 -0.517928
vn -0.609058 -0.633238 -0.477554
vn -0.615419 -0.655827 -0.437208
vn -0.609058 -0.684381 -0.400837
vn -0.590598 -0.716105 -0.372005
vn -0.561845 -0.747894 -0.353532
vn -0.525614 -0.776637 -0.347226
vn -0.485452 -0.799519 -0.353704
vn -0.445290 -0.814300 -0.372334
vn -0.409059 -0.819535 -0.401290
vn -0.380306 -0.814710 -0.437739
vn -0.361846 -0.800297 -0.478113
vn -0.355485 -0.777709 -0.518459
vn -0.089847 -0.637021 -0.765593
vn -0.030127 -0.739648 -0.672320
vn -0.182862 -0.534184 -0.825354
vn -0.300067 -0.441204 -0.845754
vn -0.429989 -0.367181 -0.824795
vn -0.559913 -0.319363 -0.764529
vn -0.677118 -0.302430 -0.670856
vn -0.770132 -0.318039 -0.552944
vn -0.829851 -0.364663 -0.422337
vn -0.850429 -0.437736 -0.291817
vn -0.829851 -0.530108 -0.174163
vn -0.770132 -0.632735 -0.080890
vn -0.677118 -0.735572 -0.021128
vn -0.559912 -0.828552 -0.000729
vn -0.429989 -0.902573 -0.021688
vn -0.300066 -0.950391 -0.081954
vn -0.182861 -0.967325 -0.175627
vn -0.089846 -0.951716 -0.293538
vn -0.030127 -0.905093 -0.424146
vn -0.009550 -0.832019 -0.554665
vn 0.142281 -0.521061 -0.841577
vn 0.228852 -0.669832 -0.706366
vn 0.007444 -0.371985 -0.928209
vn -0.162460 -0.237198 -0.957781
vn -0.350800 -0.129894 -0.927398
vn -0.539140 -0.060576 -0.840035
vn -0.709044 -0.036029 -0.704243
vn -0.843880 -0.058656 -0.533315
vn -0.930451 -0.126242 -0.343982
vn -0.960281 -0.232172 -0.154778
vn -0.930451 -0.366077 0.015777
vn -0.843880 -0.514848 0.150989
vn -0.709044 -0.663923 0.237621
vn -0.539139 -0.798710 0.267192
vn -0.350799 -0.906014 0.236810
vn -0.162459 -0.975332 0.149446
vn 0.007445 -0.999879 0.013655
vn 0.142281 -0.977252 -0.157274
vn 0.228852 -0.909665 -0.346606
vn 0.258682 -0.803736 -0.535810
vn 0.289001 -0.424336 -0.858147
vn 0.389770 -0.597506 -0.700761
vn 0.132051 -0.250813 -0.958987
vn -0.065717 -0.093921 -0.993408
vn -0.284945 0.030981 -0.958043
vn -0.504174 0.111668 -0.856352
vn -0.701942 0.140241 -0.698291
vn -0.858892 0.113903 -0.499330
vn -0.959660 0.035232 -0.278947
vn -0.994382 -0.088071 -0.058712
vn -0.959660 -0.243935 0.139815
vn -0.858892 -0.417105 0.297201
vn -0.701942 -0.590628 0.398040
vn -0.504173 -0.747520 0.432461
vn -0.284945 -0.872423 0.397096
vn -0.065717 -0.953109 0.295405
vn 0.132051 -0.981682 0.137344
vn 0.289002 -0.955344 -0.061617
vn 0.389770 -0.876673 -0.282001
vn 0.424492 -0.753371 -0.502234
vn 0.410183 -0.328711 -0.850705
vn 0.520815 -0.518831 -0.677913
vn 0.237871 -0.138203 -0.961414
vn 0.020746 0.034045 -0.999205
vn -0.219941 0.171173 -0.960378
vn -0.460627 0.259757 -0.848734
vn -0.677753 0.291126 -0.675202
vn -0.850065 0.262210 -0.456767
vn -0.960696 0.175839 -0.214813
vn -0.998817 0.040468 0.026978
vn -0.960696 -0.130653 0.244936
vn -0.850065 -0.320772 0.417727
vn -0.677752 -0.511280 0.528436
vn -0.460626 -0.683528 0.566227
vn -0.219940 -0.820655 0.527400
vn 0.020746 -0.909239 0.415756
vn 0.237872 -0.940609 0.242224
vn 0.410184 -0.911693 0.023790
vn 0.520815 -0.825322 -0.218165
vn 0.558936 -0.689951 -0.459955
vn 0.521638 -0.225164 -0.822919
vn 0.639494 -0.427699 -0.638843
vn 0.338073 -0.022215 -0.940858
vn 0.106769 0.161281 -0.981116
vn -0.149635 0.307364 -0.939754
vn -0.406038 0.401733 -0.820819
vn -0.637343 0.435150 -0.635954
vn -0.820908 0.404346 -0.403255
vn -0.938763 0.312335 -0.145500
vn -0.979374 0.168123 0.112079
vn -0.938763 -0.014172 0.344271
vn -0.820908 -0.216706 0.528346
vn -0.637343 -0.419655 0.646285
vn -0.406038 -0.603151 0.686543
vn -0.149635 -0.749234 0.645181
vn 0.106769 -0.843603 0.526246
vn 0.338074 -0.877020 0.341382
vn 0.521638 -0.846216 0.108683
vn 0.639494 -0.754205 -0.149072
vn 0.680104 -0.609994 -0.406652
vn 0.620645 -0.116199 -0.775434
vn 0.742907 -0.326307 -0.584476
vn 0.430216 0.094338 -0.897783
vn 0.190263 0.284696 -0.939547
vn -0.075728 0.436240 -0.896638
vn -0.341718 0.534138 -0.773256
vn -0.581672 0.568805 -0.581479
vn -0.772101 0.536849 -0.340079
vn -0.894363 0.441398 -0.072687
vn -0.936492 0.291794 0.194525
vn -0.894363 0.102683 0.435398
vn -0.772100 -0.107425 0.626355
vn -0.581672 -0.317962 0.748704
vn -0.341718 -0.508320 0.790468
vn -0.075728 -0.659864 0.747559
vn 0.190263 -0.757761 0.624177
vn 0.430216 -0.792429 0.432401
vn 0.620645 -0.760473 0.191001
vn 0.742907 -0.665021 -0.076392
vn 0.785036 -0.515418 -0.343603
vn 0.704808 -0.004440 -0.709385
vn 0.828551 -0.217093 -0.516114
vn 0.512073 0.208648 -0.833215
vn 0.269213 0.401311 -0.875485
vn -0.000000 0.554691 -0.832056
vn -0.269213 0.653774 -0.707180
vn -0.512073 0.688861 -0.513080
vn -0.704808 0.656518 -0.268756
vn -0.828551 0.559911 0.001875
vn -0.871190 0.408495 0.272323
vn -0.828551 0.217093 0.516114
vn -0.704808 0.004440 0.709385
vn -0.512072 -0.208647 0.833216
vn -0.269212 -0.401311 0.875485
vn -0.000000 -0.554691 0.832057
vn 0.269213 -0.653774 0.707180
vn 0.512073 -0.688861 0.513080
vn 0.704808 -0.656518 0.268757
vn 0.828551 -0.559911 -0.001875
vn 0.871190 -0.408495 -0.272323
vn 0.772100 0.107425 -0.626356
vn 0.894363 -0.102683 -0.435398
vn 0.581672 0.317962 -0.748704
vn 0.341718 0.508320 -0.790468
vn 0.075727 0.659864 -0.747559
vn -0.190263 0.757762 -0.624177
vn -0.430217 0.792429 -0.432401
vn -0.620645 0.760473 -0.191001
vn -0.742907 0.665021 0.076392
vn -0.785036 0.515417 0.343603
vn -0.742907 0.326306 0.584477
vn -0.620645 0.116198 0.775434
vn -0.430216 -0.094339 0.897783
vn -0.190263 -0.284696 0.939547
vn 0.075728 -0.436241 0.896638
vn 0.341718 -0.534138 0.773256
vn 0.581672 -0.568805 0.581479
vn 0.772100 -0.536849 0.340080
vn 0.894363 -0.441398 0.072687
vn 0.936491 -0.291795 -0.194524
vn 0.820908 0.216707 -0.528346
vn 0.938764 0.014172 -0.344270
vn 0.637343 0.419655 -0.646285
vn 0.406038 0.603152 -0.686543
vn 0.149635 0.749234 -0.645181
vn -0.106769 0.843603 -0.526246
vn -0.338074 0.877021 -0.341381
vn -0.521638 0.846216 -0.108683
vn -0.639494 0.754205 0.149072
vn -0.680104 0.609994 0.406652
vn -0.639494 0.427699 0.638844
vn -0.521638 0.225164 0.822919
vn -0.338073 0.022215 0.940858
vn -0.106769 -0.161281 0.981116
vn 0.149635 -0.307364 0.939754
vn 0.406038 -0.401732 0.820819
vn 0.637343 -0.435150 0.635955
vn 0.820907 -0.404346 0.403256
vn 0.938763 -0.312335 0.145501
vn 0.979374 -0.168124 -0.112079
vn 0.850065 0.320772 -0.417726
vn 0.960696 0.130653 -0.244935
vn 0.677752 0.511280 -0.528436
vn 0.460627 0.683528 -0.566226
vn 0.219941 0.820656 -0.527400
vn -0.020745 0.909240 -0.415756
vn -0.237871 0.940609 -0.242223
vn -0.410183 0.911693 -0.023789
vn -0.520814 0.825322 0.218166
vn -0.558935 0.689951 0.459956
vn -0.520814 0.518831 0.677914
vn -0.410183 0.328711 0.850705
vn -0.237871 0.138204 0.961414
vn -0.020745 -0.034045 0.999205
vn 0.219941 -0.171172 0.960378
vn 0.460627 -0.259756 0.848734
vn 0.677752 -0.291126 0.675202
vn 0.850065 -0.262210 0.456768
vn 0.960696 -0.175838 0.214813
vn 0.998817 -0.040468 -0.026977
vn 0.858377 0.432067 -0.276598
vn 0.957284 0.262096 -0.122119
vn 0.704327 0.602385 -0.375574
vn 0.510212 0.756378 -0.409360
vn 0.295034 0.878973 -0.374648
vn 0.079856 0.958169 -0.274836
vn -0.114259 0.986214 -0.119695
vn -0.268310 0.960362 0.075590
vn -0.367216 0.883145 0.291903
vn -0.401297 0.762120 0.508069
vn -0.367216 0.609135 0.702927
vn -0.268310 0.439165 0.857406
vn -0.114259 0.268847 0.956382
vn 0.079856 0.114854 0.990168
vn 0.295034 -0.007741 0.955456
vn 0.510212 -0.086937 0.855644
vn 0.704327 -0.114982 0.700502
vn 0.858377 -0.089130 0.505217
vn 0.957284 -0.011913 0.288905
vn 0.991365 0.109111 0.072740
vn 0.812875 0.581646 -0.030361
vn 0.886116 0.455782 0.084031
vn 0.698800 0.707767 -0.103653
vn 0.555057 0.821800 -0.128672
vn 0.395717 0.912582 -0.102968
vn 0.236377 0.971227 -0.029056
vn 0.092633 0.991994 0.085827
vn -0.021442 0.972851 0.230436
vn -0.094683 0.915671 0.390617
vn -0.119920 0.826052 0.550688
vn -0.094683 0.712766 0.694982
vn -0.021442 0.586902 0.809374
vn 0.092633 0.460781 0.882666
vn 0.236376 0.346748 0.907685
vn 0.395717 0.255966 0.881981
vn 0.555057 0.197321 0.808070
vn 0.698800 0.176553 0.693186
vn 0.812875 0.195696 0.548577
vn 0.886116 0.252876 0.388396
vn 0.911353 0.342496 0.228325
vn 0.618201 0.710283 0.336639
vn 0.642177 0.669081 0.374086
vn 0.580858 0.751569 0.312646
vn 0.533803 0.788899 0.304456
vn 0.481642 0.818616 0.312871
vn 0.429482 0.837814 0.337066
vn 0.382428 0.844612 0.374673
vn 0.345085 0.838345 0.422012
vn 0.321109 0.819627 0.474448
vn 0.312847 0.790290 0.526848
vn 0.321108 0.753206 0.574082
vn 0.345084 0.712003 0.611530
vn 0.382427 0.670717 0.635522
vn 0.429482 0.633389 0.643711
vn 0.481643 0.603671 0.635297
vn 0.533803 0.584473 0.611102
vn 0.580858 0.577675 0.573495
vn 0.618201 0.583941 0.526156
vn 0.642177 0.602659 0.473720
vn 0.650438 0.631997 0.421321
vn 0.379035 0.717258 0.584699
vn 0.360373 0.749329 0.555552
vn 0.408103 0.685121 0.603375
vn 0.444730 0.656065 0.609749
vn 0.485330 0.632934 0.603199
vn 0.525932 0.617991 0.584365
vn 0.562558 0.612699 0.555093
vn 0.591625 0.617577 0.518246
vn 0.610287 0.632147 0.477432
vn 0.616717 0.654982 0.436644
vn 0.610287 0.683848 0.399877
vn 0.591625 0.715919 0.370729
vn 0.562558 0.748055 0.352053
vn 0.525931 0.777112 0.345678
vn 0.485331 0.800244 0.352227
vn 0.444729 0.815187 0.371061
vn 0.408102 0.820479 0.400335
vn 0.379035 0.815600 0.437182
vn 0.360373 0.801031 0.477996
vn 0.353942 0.778195 0.518784
vn 0.283323 0.699371 0.656208
vn 0.250046 0.756557 0.604234
vn 0.335153 0.642067 0.689509
vn 0.400464 0.590255 0.700877
vn 0.472861 0.549007 0.689198
vn 0.545258 0.522362 0.655615
vn 0.610568 0.512926 0.603418
vn 0.662399 0.521624 0.537714
vn 0.695676 0.547604 0.464935
vn 0.707142 0.588323 0.392206
vn 0.695676 0.639795 0.326646
vn 0.662398 0.696982 0.274672
vn 0.610568 0.754286 0.241370
vn 0.545257 0.806098 0.230003
vn 0.472861 0.847344 0.241682
vn 0.400463 0.873990 0.275264
vn 0.335151 0.883426 0.327462
vn 0.283322 0.874729 0.393165
vn 0.250045 0.848749 0.465943
vn 0.238579 0.808030 0.538673
vn 0.314561 0.706239 0.634254
vn 0.285932 0.755439 0.589538
vn 0.359151 0.656941 0.662902
vn 0.415340 0.612365 0.672683
vn 0.477627 0.576878 0.662635
vn 0.539912 0.553953 0.633744
vn 0.596098 0.545835 0.588839
vn 0.640691 0.553319 0.532309
vn 0.669321 0.575671 0.469694
vn 0.679186 0.610701 0.407125
vn 0.669320 0.654984 0.350723
vn 0.640689 0.704185 0.306008
vn 0.596098 0.753486 0.277357
vn 0.539911 0.798059 0.267577
vn 0.477627 0.833545 0.277624
vn 0.415341 0.856469 0.306517
vn 0.359151 0.864587 0.351425
vn 0.314561 0.857104 0.407951
vn 0.285933 0.834753 0.470563
vn 0.276067 0.799722 0.533133
vn -0.490946 -0.724879 -0.483241
vn 0.490945 0.724880 0.483241
s 1
g pomme
usemtl initialShadingGroup
f 2/110/1 1/111/2 67/103/3 66/99/4
f 1/1/2 6/2/5 68/3/6 67/4/3
f 4/127/7 3/128/8 11/129/9 10/130/10
f 3/117/8 2/110/1 12/109/11 11/118/9
f 6/2/5 5/5/12 93/11/13 94/7/14
f 5/131/12 4/127/7 110/136/15 93/137/13
f 8/36/16 7/37/17 75/38/18 74/39/19
f 7/116/17 12/109/11 76/102/20 75/107/18
f 10/130/10 9/133/21 108/138/22 109/135/23
f 9/40/21 8/36/16 107/45/24 108/46/22
f 14/13/25 13/19/26 55/20/27 54/12/28
f 13/92/26 18/85/29 56/77/30 55/84/27
f 18/85/29 17/93/31 21/94/32 20/86/33
f 17/143/31 16/140/34 22/139/35 21/144/32
f 20/86/33 19/95/36 59/87/37 58/78/38
f 19/57/36 24/51/39 60/50/40 59/58/37
f 26/82/41 25/83/42 51/75/43 50/71/44
f 25/33/42 30/31/45 52/26/46 51/30/43
f 28/147/47 27/148/48 35/149/49 34/150/50
f 27/89/48 26/82/41 36/81/51 35/90/49
f 98/27/52 99/32/53 39/28/54 38/22/55
f 99/157/53 100/156/56 40/160/57 39/161/54
f 32/66/58 31/68/59 63/65/60 62/61/61
f 31/88/59 36/81/51 64/74/62 63/79/60
f 101/155/63 102/158/64 47/162/65 46/159/66
f 102/67/64 103/62/67 48/56/68 47/63/65
f 38/22/55 37/23/69 71/16/70 70/15/71
f 37/120/69 42/113/72 72/105/73 71/112/70
f 42/113/72 41/121/74 45/122/75 44/114/76
f 41/163/74 40/160/57 46/159/66 45/164/75
f 44/114/76 43/123/77 79/115/78 78/106/79
f 43/55/77 48/56/68 80/49/80 79/48/78
f 50/71/44 49/72/81 57/73/82 64/74/62
f 49/72/81 56/77/30 58/78/38 57/73/82
f 95/8/83 96/14/84 69/9/85 68/3/6
f 96/14/84 97/21/86 70/15/71 69/9/85
f 104/54/87 105/47/88 73/42/89 80/49/80
f 105/47/88 106/44/90 74/39/19 73/42/89
f 66/99/4 65/100/91 77/101/92 76/102/20
f 65/100/91 72/105/73 78/106/79 77/101/92
f 4/127/7 10/130/10 109/135/23 110/136/15
f 18/85/29 20/86/33 58/78/38 56/77/30
f 100/156/56 101/155/63 46/159/66 40/160/57
f 66/99/4 76/102/20 12/109/11 2/110/1
f 8/36/16 74/39/19 106/44/90 107/45/24
f 94/7/14 95/8/83 68/3/6 6/2/5
f 38/22/55 70/15/71 97/21/86 98/27/52
f 42/113/72 44/114/76 78/106/79 72/105/73
f 103/62/67 104/54/87 80/49/80 48/56/68
f 50/71/44 64/74/62 36/81/51 26/82/41
f 5/5/12 6/2/5 1/1/2 81/6/93
f 1/111/2 2/110/1 3/117/8 81/119/93
f 3/128/8 4/127/7 5/131/12 81/132/93
f 11/118/9 12/109/11 7/116/17 82/124/94
f 7/37/17 8/36/16 9/40/21 82/41/94
f 9/133/21 10/130/10 11/129/9 82/134/94
f 17/93/31 18/85/29 13/92/26 83/97/95
f 13/19/26 14/13/25 15/17/96 83/24/95
f 15/141/96 16/140/34 17/143/31 83/145/95
f 23/52/97 24/51/39 19/57/36 84/59/98
f 19/95/36 20/86/33 21/94/32 84/98/98
f 21/144/32 22/139/35 23/142/97 84/146/98
f 29/34/99 30/31/45 25/33/42 85/35/100
f 25/83/42 26/82/41 27/89/48 85/91/100
f 27/148/48 28/147/47 29/151/99 85/152/100
f 35/90/49 36/81/51 31/88/59 86/96/101
f 31/68/59 32/66/58 33/69/102 86/70/101
f 33/153/102 34/150/50 35/149/49 86/154/101
f 41/121/74 42/113/72 37/120/69 87/125/103
f 37/23/69 38/22/55 39/28/54 87/29/103
f 39/161/54 40/160/57 41/163/74 87/165/103
f 47/63/65 48/56/68 43/55/77 88/64/104
f 43/123/77 44/114/76 45/122/75 88/126/104
f 45/164/75 46/159/66 47/162/65 88/166/104
f 55/84/27 56/77/30 49/72/81 89/76/105
f 49/72/81 50/71/44 51/75/43 89/76/105
f 51/30/43 52/26/46 53/18/106 89/25/105
f 53/18/106 54/12/28 55/20/27 89/25/105
f 63/79/60 64/74/62 57/73/82 90/80/107
f 57/73/82 58/78/38 59/87/37 90/80/107
f 59/58/37 60/50/40 61/53/108 90/60/107
f 61/53/108 62/61/61 63/65/60 90/60/107
f 71/112/70 72/105/73 65/100/91 91/104/109
f 65/100/91 66/99/4 67/103/3 91/104/109
f 67/4/3 68/3/6 69/9/85 91/10/109
f 69/9/85 70/15/71 71/16/70 91/10/109
f 79/48/78 80/49/80 73/42/89 92/43/110
f 73/42/89 74/39/19 75/38/18 92/43/110
f 75/107/18 76/102/20 77/101/92 92/108/110
f 77/101/92 78/106/79 79/115/78 92/108/110
f 94/7/14 93/11/13 15/17/96 14/13/25
f 54/12/28 95/8/83 94/7/14 14/13/25
f 54/12/28 53/18/106 96/14/84 95/8/83
f 53/18/106 52/26/46 97/21/86 96/14/84
f 98/27/52 97/21/86 52/26/46 30/31/45
f 30/31/45 29/34/99 99/32/53 98/27/52
f 29/151/99 28/147/47 100/156/56 99/157/53
f 28/147/47 34/150/50 101/155/63 100/156/56
f 34/150/50 33/153/102 102/158/64 101/155/63
f 33/69/102 32/66/58 103/62/67 102/67/64
f 62/61/61 104/54/87 103/62/67 32/66/58
f 62/61/61 61/53/108 105/47/88 104/54/87
f 61/53/108 60/50/40 106/44/90 105/47/88
f 107/45/24 106/44/90 60/50/40 24/51/39
f 108/46/22 107/45/24 24/51/39 23/52/97
f 109/135/23 108/138/22 23/142/97 22/139/35
f 110/136/15 109/135/23 22/139/35 16/140/34
f 93/137/13 110/136/15 16/140/34 15/141/96
s 12
f 111/167/111 112/168/112 132/169/113 131/170/114
f 112/168/112 113/171/115 133/172/116 132/169/113
f 113/171/115 114/173/117 134/174/118 133/172/116
f 114/173/117 115/175/119 135/176/120 134/174/118
f 115/175/119 116/177/121 136/178/122 135/176/120
f 116/177/121 117/179/123 137/180/124 136/178/122
f 117/179/123 118/181/125 138/182/126 137/180/124
f 118/181/125 119/183/127 139/184/128 138/182/126
f 119/183/127 120/185/129 140/186/130 139/184/128
f 120/185/129 121/187/131 141/188/132 140/186/130
f 121/187/131 122/189/133 142/190/134 141/188/132
f 122/189/133 123/191/135 143/192/136 142/190/134
f 123/191/135 124/193/137 144/194/138 143/192/136
f 124/193/137 125/195/139 145/196/140 144/194/138
f 125/195/139 126/197/141 146/198/142 145/196/140
f 126/197/141 127/199/143 147/200/144 146/198/142
f 127/199/143 128/201/145 148/202/146 147/200/144
f 128/201/145 129/203/147 149/204/148 148/202/146
f 129/203/147 130/205/149 150/206/150 149/204/148
f 130/205/149 111/167/111 131/170/114 150/206/150
f 131/170/114 132/169/113 152/207/151 151/208/152
f 132/169/113 133/172/116 153/209/153 152/207/151
f 133/172/116 134/174/118 154/210/154 153/209/153
f 134/174/118 135/176/120 155/211/155 154/210/154
f 135/176/120 136/178/122 156/212/156 155/211/155
f 136/178/122 137/180/124 157/213/157 156/212/156
f 137/180/124 138/182/126 158/214/158 157/213/157
f 138/182/126 139/184/128 159/215/159 158/214/158
f 139/184/128 140/186/130 160/216/160 159/215/159
f 140/186/130 141/188/132 161/217/161 160/216/160
f 141/188/132 142/190/134 162/218/162 161/217/161
f 142/190/134 143/192/136 163/219/163 162/218/162
f 143/192/136 144/194/138 164/220/164 163/219/163
f 144/194/138 145/196/140 165/221/165 164/220/164
f 145/196/140 146/198/142 166/222/166 165/221/165
f 146/198/142 147/200/144 167/223/167 166/222/166
f 147/200/144 148/202/146 168/224/168 167/223/167
f 148/202/146 149/204/148 169/225/169 168/224/168
f 149/204/148 150/206/150 170/226/170 169/225/169
f 150/206/150 131/170/114 151/208/152 170/226/170
f 151/208/152 152/207/151 172/227/171 171/228/172
f 152/207/151 153/209/153 173/229/173 172/227/171
f 153/209/153 154/210/154 174/230/174 173/229/173
f 154/210/154 155/211/155 175/231/175 174/230/174
f 155/211/155 156/212/156 176/232/176 175/231/175
f 156/212/156 157/213/157 177/233/177 176/232/176
f 157/213/157 158/214/158 178/234/178 177/233/177
f 158/214/158 159/215/159 179/235/179 178/234/178
f 159/215/159 160/216/160 180/236/180 179/235/179
f 160/216/160 161/217/161 181/237/181 180/236/180
f 161/217/161 162/218/162 182/238/182 181/237/181
f 162/218/162 163/219/163 183/239/183 182/238/182
f 163/219/163 164/220/164 184/240/184 183/239/183
f 164/220/164 165/221/165 185/241/185 184/240/184
f 165/221/165 166/222/166 186/242/186 185/241/185
f 166/222/166 167/223/167 187/243/187 186/242/186
f 167/223/167 168/224/168 188/244/188 187/243/187
f 168/224/168 169/225/169 189/245/189 188/244/188
f 169/225/169 170/226/170 190/246/190 189/245/189
f 170/226/170 151/208/152 171/228/172 190/246/190
f 171/247/172 172/248/171 192/249/191 191/250/192
f 172/227/171 173/229/173 193/251/193 192/252/191
f 173/229/173 174/230/174 194/253/194 193/251/193
f 174/230/174 175/231/175 195/254/195 194/253/194
f 175/231/175 176/232/176 196/255/196 195/254/195
f 176/232/176 177/233/177 197/256/197 196/255/196
f 177/233/177 178/234/178 198/257/198 197/256/197
f 178/258/178 179/259/179 199/260/199 198/261/198
f 179/259/179 180/262/180 200/263/200 199/260/199
f 180/262/180 181/264/181 201/265/201 200/263/200
f 181/264/181 182/266/182 202/267/202 201/265/201
f 182/238/182 183/239/183 203/268/203 202/269/202
f 183/239/183 184/240/184 204/270/204 203/268/203
f 184/240/184 185/241/185 205/271/205 204/270/204
f 185/241/185 186/242/186 206/272/206 205/271/205
f 186/242/186 187/243/187 207/273/207 206/272/206
f 187/243/187 188/244/188 208/274/208 207/273/207
f 188/275/188 189/276/189 209/277/209 208/278/208
f 189/276/189 190/279/190 210/280/210 209/277/209
f 190/279/190 171/247/172 191/250/192 210/280/210
f 191/250/192 192/249/191 212/281/211 211/282/212
f 192/249/191 193/283/193 213/284/213 212/281/211
f 193/251/193 194/253/194 214/285/214 213/286/213
f 194/253/194 195/254/195 215/287/215 214/285/214
f 195/254/195 196/255/196 216/288/216 215/287/215
f 196/255/196 197/256/197 217/289/217 216/288/216
f 197/290/197 198/261/198 218/291/218 217/292/217
f 198/261/198 199/260/199 219/293/219 218/291/218
f 199/260/199 200/263/200 220/294/220 219/293/219
f 200/263/200 201/265/201 221/295/221 220/294/220
f 201/265/201 202/267/202 222/296/222 221/295/221
f 202/267/202 203/297/203 223/298/223 222/296/222
f 203/268/203 204/270/204 224/299/224 223/300/223
f 204/270/204 205/271/205 225/301/225 224/299/224
f 205/271/205 206/272/206 226/302/226 225/301/225
f 206/272/206 207/273/207 227/303/227 226/302/226
f 207/304/207 208/278/208 228/305/228 227/306/227
f 208/278/208 209/277/209 229/307/229 228/305/228
f 209/277/209 210/280/210 230/308/230 229/307/229
f 210/280/210 191/250/192 211/282/212 230/308/230
f 211/282/212 212/281/211 232/309/231 231/310/232
f 212/281/211 213/284/213 233/311/233 232/309/231
f 213/286/213 214/285/214 234/312/234 233/313/233
f 214/285/214 215/287/215 235/314/235 234/312/234
f 215/287/215 216/288/216 236/315/236 235/314/235
f 216/288/216 217/289/217 237/316/237 236/315/236
f 217/292/217 218/291/218 238/317/238 237/318/237
f 218/291/218 219/293/219 239/319/239 238/317/238
f 219/293/219 220/294/220 240/320/240 239/319/239
f 220/294/220 221/295/221 241/321/241 240/320/240
f 221/295/221 222/296/222 242/322/242 241/321/241
f 222/296/222 223/298/223 243/323/243 242/322/242
f 223/300/223 224/299/224 244/324/244 243/325/243
f 224/299/224 225/301/225 245/326/245 244/324/244
f 225/301/225 226/302/226 246/327/246 245/326/245
f 226/302/226 227/303/227 247/328/247 246/327/246
f 227/306/227 228/305/228 248/329/248 247/330/247
f 228/305/228 229/307/229 249/331/249 248/329/248
f 229/307/229 230/308/230 250/332/250 249/331/249
f 230/308/230 211/282/212 231/310/232 250/332/250
f 231/310/232 232/309/231 252/333/251 251/334/252
f 232/309/231 233/311/233 253/335/253 252/333/251
f 233/336/233 234/337/234 254/338/254 253/339/253
f 234/337/234 235/340/235 255/341/255 254/338/254
f 235/340/235 236/342/236 256/343/256 255/341/255
f 236/342/236 237/344/237 257/345/257 256/343/256
f 237/318/237 238/317/238 258/346/258 257/347/257
f 238/317/238 239/319/239 259/348/259 258/346/258
f 239/319/239 240/320/240 260/349/260 259/348/259
f 240/320/240 241/321/241 261/350/261 260/349/260
f 241/321/241 242/322/242 262/351/262 261/350/261
f 242/322/242 243/323/243 263/352/263 262/351/262
f 243/353/243 244/354/244 264/355/264 263/356/263
f 244/354/244 245/357/245 265/358/265 264/355/264
f 245/357/245 246/359/246 266/360/266 265/358/265
f 246/359/246 247/361/247 267/362/267 266/360/266
f 247/330/247 248/329/248 268/363/268 267/364/267
f 248/329/248 249/331/249 269/365/269 268/363/268
f 249/331/249 250/332/250 270/366/270 269/365/269
f 250/332/250 231/310/232 251/334/252 270/366/270
f 251/334/252 252/333/251 272/367/271 271/368/272
f 252/333/251 253/335/253 273/369/273 272/367/271
f 253/339/253 254/338/254 274/370/274 273/371/273
f 254/338/254 255/341/255 275/372/275 274/370/274
f 255/341/255 256/343/256 276/373/276 275/372/275
f 256/343/256 257/345/257 277/374/277 276/373/276
f 257/347/257 258/346/258 278/375/278 277/376/277
f 258/346/258 259/348/259 279/377/279 278/375/278
f 259/348/259 260/349/260 280/378/280 279/377/279
f 260/349/260 261/350/261 281/379/281 280/378/280
f 261/350/261 262/351/262 282/380/282 281/379/281
f 262/351/262 263/352/263 283/381/283 282/380/282
f 263/356/263 264/355/264 284/382/284 283/383/283
f 264/355/264 265/358/265 285/384/285 284/382/284
f 265/358/265 266/360/266 286/385/286 285/384/285
f 266/360/266 267/362/267 287/386/287 286/385/286
f 267/364/267 268/363/268 288/387/288 287/388/287
f 268/363/268 269/365/269 289/389/289 288/387/288
f 269/365/269 270/366/270 290/390/290 289/389/289
f 270/366/270 251/334/252 271/368/272 290/390/290
f 271/368/272 272/367/271 292/391/291 291/392/292
f 272/367/271 273/369/273 293/393/293 292/391/291
f 273/371/273 274/370/274 294/394/294 293/395/293
f 274/370/274 275/372/275 295/396/295 294/394/294
f 275/372/275 276/373/276 296/397/296 295/396/295
f 276/373/276 277/374/277 297/398/297 296/397/296
f 277/376/277 278/375/278 298/399/298 297/400/297
f 278/375/278 279/377/279 299/401/299 298/399/298
f 279/377/279 280/378/280 300/402/300 299/401/299
f 280/378/280 281/379/281 301/403/301 300/402/300
f 281/379/281 282/380/282 302/404/302 301/403/301
f 282/380/282 283/381/283 303/405/303 302/404/302
f 283/383/283 284/382/284 304/406/304 303/407/303
f 284/382/284 285/384/285 305/408/305 304/406/304
f 285/384/285 286/385/286 306/409/306 305/408/305
f 286/385/286 287/386/287 307/410/307 306/409/306
f 287/388/287 288/387/288 308/411/308 307/412/307
f 288/387/288 289/389/289 309/413/309 308/411/308
f 289/389/289 290/390/290 310/414/310 309/413/309
f 290/390/290 271/368/272 291/392/292 310/414/310
f 291/392/292 292/391/291 312/415/311 311/416/312
f 292/391/291 293/393/293 313/417/313 312/415/311
f 293/395/293 294/394/294 314/418/314 313/419/313
f 294/394/294 295/396/295 315/420/315 314/418/314
f 295/396/295 296/397/296 316/421/316 315/420/315
f 296/397/296 297/398/297 317/422/317 316/421/316
f 297/400/297 298/399/298 318/423/318 317/424/317
f 298/399/298 299/401/299 319/425/319 318/423/318
f 299/401/299 300/402/300 320/426/320 319/425/319
f 300/402/300 301/403/301 321/427/321 320/426/320
f 301/403/301 302/404/302 322/428/322 321/427/321
f 302/404/302 303/405/303 323/429/323 322/428/322
f 303/407/303 304/406/304 324/430/324 323/431/323
f 304/406/304 305/408/305 325/432/325 324/430/324
f 305/408/305 306/409/306 326/433/326 325/432/325
f 306/409/306 307/410/307 327/434/327 326/433/326
f 307/412/307 308/411/308 328/435/328 327/436/327
f 308/411/308 309/413/309 329/437/329 328/435/328
f 309/413/309 310/414/310 330/438/330 329/437/329
f 310/414/310 291/392/292 311/416/312 330/438/330
f 311/416/312 312/415/311 332/439/331 331/440/332
f 312/415/311 313/417/313 333/441/333 332/439/331
f 313/419/313 314/418/314 334/442/334 333/443/333
f 314/418/314 315/420/315 335/444/335 334/442/334
f 315/420/315 316/421/316 336/445/336 335/444/335
f 316/421/316 317/422/317 337/446/337 336/445/336
f 317/424/317 318/423/318 338/447/338 337/448/337
f 318/423/318 319/425/319 339/449/339 338/447/338
f 319/425/319 320/426/320 340/450/340 339/449/339
f 320/426/320 321/427/321 341/451/341 340/450/340
f 321/427/321 322/428/322 342/452/342 341/451/341
f 322/428/322 323/429/323 343/453/343 342/452/342
f 323/431/323 324/430/324 344/454/344 343/455/343
f 324/430/324 325/432/325 345/456/345 344/454/344
f 325/432/325 326/433/326 346/457/346 345/456/345
f 326/433/326 327/434/327 347/458/347 346/457/346
f 327/436/327 328/435/328 348/459/348 347/460/347
f 328/435/328 329/437/329 349/461/349 348/459/348
f 329/437/329 330/438/330 350/462/350 349/461/349
f 330/438/330 311/416/312 331/440/332 350/462/350
f 331/440/332 332/439/331 352/463/351 351/464/352
f 332/439/331 333/441/333 353/465/353 352/463/351
f 333/443/333 334/442/334 354/466/354 353/467/353
f 334/442/334 335/444/335 355/468/355 354/466/354
f 335/444/335 336/445/336 356/469/356 355/468/355
f 336/445/336 337/446/337 357/470/357 356/469/356
f 337/448/337 338/447/338 358/471/358 357/472/357
f 338/447/338 339/449/339 359/473/359 358/471/358
f 339/449/339 340/450/340 360/474/360 359/473/359
f 340/450/340 341/451/341 361/475/361 360/474/360
f 341/451/341 342/452/342 362/476/362 361/475/361
f 342/452/342 343/453/343 363/477/363 362/476/362
f 343/455/343 344/454/344 364/478/364 363/479/363
f 344/454/344 345/456/345 365/480/365 364/478/364
f 345/456/345 346/457/346 366/481/366 365/480/365
f 346/457/346 347/458/347 367/482/367 366/481/366
f 347/460/347 348/459/348 368/483/368 367/484/367
f 348/459/348 349/461/349 369/485/369 368/483/368
f 349/461/349 350/462/350 370/486/370 369/485/369
f 350/462/350 331/440/332 351/464/352 370/486/370
f 351/464/352 352/463/351 372/487/371 371/488/372
f 352/463/351 353/465/353 373/489/373 372/487/371
f 353/490/353 354/491/354 374/492/374 373/493/373
f 354/491/354 355/494/355 375/495/375 374/492/374
f 355/494/355 356/496/356 376/497/376 375/495/375
f 356/496/356 357/498/357 377/499/377 376/497/376
f 357/472/357 358/471/358 378/500/378 377/501/377
f 358/471/358 359/473/359 379/502/379 378/500/378
f 359/473/359 360/474/360 380/503/380 379/502/379
f 360/474/360 361/475/361 381/504/381 380/503/380
f 361/475/361 362/476/362 382/505/382 381/504/381
f 362/476/362 363/477/363 383/506/383 382/505/382
f 363/507/363 364/508/364 384/509/384 383/510/383
f 364/508/364 365/511/365 385/512/385 384/509/384
f 365/511/365 366/513/366 386/514/386 385/512/385
f 366/513/366 367/515/367 387/516/387 386/514/386
f 367/484/367 368/483/368 388/517/388 387/518/387
f 368/483/368 369/485/369 389/519/389 388/517/388
f 369/485/369 370/486/370 390/520/390 389/519/389
f 370/486/370 351/464/352 371/488/372 390/520/390
f 371/488/372 372/487/371 392/521/391 391/522/392
f 372/487/371 373/489/373 393/523/393 392/521/391
f 373/493/373 374/492/374 394/524/394 393/525/393
f 374/492/374 375/495/375 395/526/395 394/524/394
f 375/495/375 376/497/376 396/527/396 395/526/395
f 376/497/376 377/499/377 397/528/397 396/527/396
f 377/501/377 378/500/378 398/529/398 397/530/397
f 378/500/378 379/502/379 399/531/399 398/529/398
f 379/502/379 380/503/380 400/532/400 399/531/399
f 380/503/380 381/504/381 401/533/401 400/532/400
f 381/504/381 382/505/382 402/534/402 401/533/401
f 382/505/382 383/506/383 403/535/403 402/534/402
f 383/510/383 384/509/384 404/536/404 403/537/403
f 384/509/384 385/512/385 405/538/405 404/536/404
f 385/512/385 386/514/386 406/539/406 405/538/405
f 386/514/386 387/516/387 407/540/407 406/539/406
f 387/518/387 388/517/388 408/541/408 407/542/407
f 388/517/388 389/519/389 409/543/409 408/541/408
f 389/519/389 390/520/390 410/544/410 409/543/409
f 390/520/390 371/488/372 391/522/392 410/544/410
f 391/545/392 392/546/391 412/547/411 411/548/412
f 392/546/391 393/525/393 413/549/413 412/547/411
f 393/525/393 394/524/394 414/550/414 413/549/413
f 394/524/394 395/526/395 415/551/415 414/550/414
f 395/526/395 396/527/396 416/552/416 415/551/415
f 396/527/396 397/528/397 417/553/417 416/552/416
f 397/528/397 398/554/398 418/555/418 417/553/417
f 398/554/398 399/556/399 419/557/419 418/555/418
f 399/556/399 400/558/400 420/559/420 419/557/419
f 400/558/400 401/560/401 421/561/421 420/559/420
f 401/560/401 402/562/402 422/563/422 421/561/421
f 402/562/402 403/537/403 423/564/423 422/563/422
f 403/537/403 404/536/404 424/565/424 423/564/423
f 404/536/404 405/538/405 425/566/425 424/565/424
f 405/538/405 406/539/406 426/567/426 425/566/425
f 406/539/406 407/540/407 427/568/427 426/567/426
f 407/540/407 408/569/408 428/570/428 427/568/427
f 408/569/408 409/571/409 429/572/429 428/570/428
f 409/571/409 410/573/410 430/574/430 429/572/429
f 410/573/410 391/545/392 411/548/412 430/574/430
f 411/548/412 412/547/411 432/575/431 431/576/432
f 412/547/411 413/549/413 433/577/433 432/575/431
f 413/549/413 414/550/414 434/578/434 433/577/433
f 414/550/414 415/551/415 435/579/435 434/578/434
f 415/551/415 416/552/416 436/580/436 435/579/435
f 416/552/416 417/553/417 437/581/437 436/580/436
f 417/553/417 418/555/418 438/582/438 437/581/437
f 418/555/418 419/557/419 439/583/439 438/582/438
f 419/557/419 420/559/420 440/584/440 439/583/439
f 420/559/420 421/561/421 441/585/441 440/584/440
f 421/561/421 422/563/422 442/586/442 441/585/441
f 422/563/422 423/564/423 443/587/443 442/586/442
f 423/564/423 424/565/424 444/588/444 443/587/443
f 424/565/424 425/566/425 445/589/445 444/588/444
f 425/566/425 426/567/426 446/590/446 445/589/445
f 426/567/426 427/568/427 447/591/447 446/590/446
f 427/568/427 428/570/428 448/592/448 447/591/447
f 428/570/428 429/572/429 449/593/449 448/592/448
f 429/572/429 430/574/430 450/594/450 449/593/449
f 430/574/430 411/548/412 431/576/432 450/594/450
f 431/576/432 432/575/431 452/595/451 451/596/452
f 432/575/431 433/577/433 453/597/453 452/595/451
f 433/577/433 434/578/434 454/598/454 453/597/453
f 434/578/434 435/579/435 455/599/455 454/598/454
f 435/579/435 436/580/436 456/600/456 455/599/455
f 436/580/436 437/581/437 457/601/457 456/600/456
f 437/581/437 438/582/438 458/602/458 457/601/457
f 438/582/438 439/583/439 459/603/459 458/602/458
f 439/583/439 440/584/440 460/604/460 459/603/459
f 440/584/440 441/585/441 461/605/461 460/604/460
f 441/585/441 442/586/442 462/606/462 461/605/461
f 442/586/442 443/587/443 463/607/463 462/606/462
f 443/587/443 444/588/444 464/608/464 463/607/463
f 444/588/444 445/589/445 465/609/465 464/608/464
f 445/589/445 446/590/446 466/610/466 465/609/465
f 446/590/446 447/591/447 467/611/467 466/610/466
f 447/591/447 448/592/448 468/612/468 467/611/467
f 448/592/448 449/593/449 469/613/469 468/612/468
f 449/593/449 450/594/450 470/614/470 469/613/469
f 450/594/450 431/576/432 451/596/452 470/614/470
f 451/596/452 452/595/451 472/615/471 471/616/472
f 452/595/451 453/597/453 473/617/473 472/615/471
f 453/597/453 454/598/454 474/618/474 473/617/473
f 454/598/454 455/599/455 475/619/475 474/618/474
f 455/599/455 456/600/456 476/620/476 475/619/475
f 456/600/456 457/601/457 477/621/477 476/620/476
f 457/601/457 458/602/458 478/622/478 477/621/477
f 458/602/458 459/603/459 479/623/479 478/622/478
f 459/603/459 460/604/460 480/624/480 479/623/479
f 460/604/460 461/605/461 481/625/481 480/624/480
f 461/605/461 462/606/462 482/626/482 481/625/481
f 462/606/462 463/607/463 483/627/483 482/626/482
f 463/607/463 464/608/464 484/628/484 483/627/483
f 464/608/464 465/609/465 485/629/485 484/628/484
f 465/609/465 466/610/466 486/630/486 485/629/485
f 466/610/466 467/611/467 487/631/487 486/630/486
f 467/611/467 468/612/468 488/632/488 487/631/487
f 468/612/468 469/613/469 489/633/489 488/632/488
f 469/613/469 470/614/470 490/634/490 489/633/489
f 470/614/470 451/596/452 471/616/472 490/634/490
f 112/168/112 111/167/111 491/635/491
f 113/171/115 112/168/112 491/635/491
f 114/173/117 113/171/115 491/635/491
f 115/175/119 114/173/117 491/635/491
f 116/177/121 115/175/119 491/635/491
f 117/179/123 116/177/121 491/635/491
f 118/181/125 117/179/123 491/635/491
f 119/183/127 118/181/125 491/635/491
f 120/185/129 119/183/127 491/635/491
f 121/187/131 120/185/129 491/635/491
f 122/189/133 121/187/131 491/635/491
f 123/191/135 122/189/133 491/635/491
f 124/193/137 123/191/135 491/635/491
f 125/195/139 124/193/137 491/635/491
f 126/197/141 125/195/139 491/635/491
f 127/199/143 126/197/141 491/635/491
f 128/201/145 127/199/143 491/635/491
f 129/203/147 128/201/145 491/635/491
f 130/205/149 129/203/147 491/635/491
f 111/167/111 130/205/149 491/635/491
f 471/616/472 472/615/471 492/636/492
f 472/615/471 473/617/473 492/636/492
f 473/617/473 474/618/474 492/636/492
f 474/618/474 475/619/475 492/636/492
f 475/619/475 476/620/476 492/636/492
f 476/620/476 477/621/477 492/636/492
f 477/621/477 478/622/478 492/636/492
f 478/622/478 479/623/479 492/636/492
f 479/623/479 480/624/480 492/636/492
f 480/624/480 481/625/481 492/636/492
f 481/625/481 482/626/482 492/636/492
f 482/626/482 483/627/483 492/636/492
f 483/627/483 484/628/484 492/636/492
f 484/628/484 485/629/485 492/636/492
f 485/629/485 486/630/486 492/636/492
f 486/630/486 487/631/487 492/636/492
f 487/631/487 488/632/488 492/636/492
f 488/632/488 489/633/489 492/636/492
f 489/633/489 490/634/490 492/636/492
f 490/634/490 471/616/472 492/636/492
