# This file uses centimeters as units for non-parametric coordinates.

mtllib Socle.mtl
g default
v 0.000000 -0.122616 0.000000
v 0.951057 -0.111674 -0.309017
v 0.947971 -0.119411 -0.308014
v 0.940521 -0.122616 -0.305594
v 0.809018 -0.111674 -0.587786
v 0.806392 -0.119411 -0.585878
v 0.800055 -0.122616 -0.581274
v 0.587786 -0.111674 -0.809017
v 0.585878 -0.119411 -0.806392
v 0.581274 -0.122616 -0.800055
v 0.309017 -0.111674 -0.951057
v 0.308014 -0.119411 -0.947971
v 0.305594 -0.122616 -0.940521
v 0.000000 -0.111674 -1.000000
v 0.000000 -0.119411 -0.996756
v 0.000000 -0.122616 -0.988922
v -0.309017 -0.111674 -0.951057
v -0.308014 -0.119411 -0.947971
v -0.305594 -0.122616 -0.940521
v -0.587785 -0.111674 -0.809017
v -0.585878 -0.119411 -0.806392
v -0.581274 -0.122616 -0.800055
v -0.809017 -0.111674 -0.587785
v -0.806392 -0.119411 -0.585878
v -0.800055 -0.122616 -0.581274
v -0.951057 -0.111674 -0.309017
v -0.947971 -0.119411 -0.308014
v -0.940521 -0.122616 -0.305594
v -1.000000 -0.111674 0.000000
v -0.996755 -0.119411 0.000000
v -0.988922 -0.122616 0.000000
v -0.951057 -0.111674 0.309017
v -0.947971 -0.119411 0.308014
v -0.940521 -0.122616 0.305594
v -0.809017 -0.111674 0.587785
v -0.806392 -0.119411 0.585878
v -0.800055 -0.122616 0.581274
v -0.587785 -0.111674 0.809017
v -0.585878 -0.119411 0.806392
v -0.581274 -0.122616 0.800055
v -0.309017 -0.111674 0.951057
v -0.308014 -0.119411 0.947971
v -0.305594 -0.122616 0.940521
v -0.000000 -0.111674 1.000000
v -0.000000 -0.119411 0.996755
v -0.000000 -0.122616 0.988922
v 0.309017 -0.111674 0.951057
v 0.308014 -0.119411 0.947971
v 0.305594 -0.122616 0.940520
v 0.587785 -0.111674 0.809017
v 0.585878 -0.119411 0.806392
v 0.581274 -0.122616 0.800054
v 0.809017 -0.111674 0.587785
v 0.806392 -0.119411 0.585878
v 0.800054 -0.122616 0.581274
v 0.951057 -0.111674 0.309017
v 0.947971 -0.119411 0.308014
v 0.940520 -0.122616 0.305594
v 1.000000 -0.111674 0.000000
v 0.996755 -0.119411 -0.000000
v 0.988922 -0.122616 -0.000000
v 0.805533 0.087733 -0.261734
v 0.812715 0.065493 -0.264067
v 0.815622 0.041463 -0.265012
v 0.685227 0.087733 -0.497847
v 0.691337 0.065493 -0.502286
v 0.693809 0.041463 -0.504082
v 0.497847 0.087733 -0.685227
v 0.502285 0.065493 -0.691337
v 0.504082 0.041463 -0.693809
v 0.261733 0.087733 -0.805533
v 0.264067 0.065493 -0.812715
v 0.265011 0.041463 -0.815622
v -0.000000 0.087733 -0.846987
v -0.000000 0.065493 -0.854539
v -0.000000 0.041463 -0.857595
v -0.261733 0.087733 -0.805533
v -0.264067 0.065493 -0.812715
v -0.265011 0.041463 -0.815622
v -0.497847 0.087733 -0.685227
v -0.502285 0.065493 -0.691337
v -0.504082 0.041463 -0.693809
v -0.685227 0.087733 -0.497847
v -0.691337 0.065493 -0.502285
v -0.693809 0.041463 -0.504082
v -0.805533 0.087733 -0.261733
v -0.812715 0.065493 -0.264067
v -0.815622 0.041463 -0.265011
v -0.846987 0.087733 -0.000000
v -0.854539 0.065493 -0.000000
v -0.857595 0.041463 -0.000000
v -0.805533 0.087733 0.261733
v -0.812715 0.065493 0.264067
v -0.815622 0.041463 0.265011
v -0.685227 0.087733 0.497846
v -0.691337 0.065493 0.502285
v -0.693809 0.041463 0.504082
v -0.497847 0.087733 0.685227
v -0.502285 0.065493 0.691337
v -0.504082 0.041463 0.693809
v -0.261733 0.087733 0.805533
v -0.264067 0.065493 0.812715
v -0.265011 0.041463 0.815621
v -0.000000 0.087733 0.846987
v -0.000000 0.065493 0.854539
v -0.000000 0.041463 0.857595
v 0.261733 0.087733 0.805533
v 0.264067 0.065493 0.812715
v 0.265011 0.041463 0.815621
v 0.497846 0.087733 0.685227
v 0.502285 0.065493 0.691336
v 0.504082 0.041463 0.693809
v 0.685227 0.087733 0.497846
v 0.691336 0.065493 0.502285
v 0.693809 0.041463 0.504081
v 0.805532 0.087733 0.261733
v 0.812715 0.065493 0.264067
v 0.815621 0.041463 0.265011
v 0.846987 0.087733 -0.000000
v 0.854538 0.065493 -0.000000
v 0.857594 0.041463 -0.000000
v 0.815622 -0.016184 -0.265012
v 0.818356 -0.023921 -0.265900
v 0.825257 -0.027988 -0.268142
v 0.857594 -0.016184 -0.000000
v 0.860469 -0.023921 -0.000000
v 0.867726 -0.027988 -0.000000
v 0.815621 -0.016184 0.265011
v 0.818355 -0.023921 0.265900
v 0.825256 -0.027988 0.268142
v 0.693809 -0.016184 0.504081
v 0.696134 -0.023921 0.505771
v 0.702005 -0.027988 0.510036
v 0.504082 -0.016184 0.693809
v 0.505771 -0.023921 0.696135
v 0.510037 -0.027988 0.702005
v 0.265011 -0.016184 0.815621
v 0.265900 -0.023921 0.818355
v 0.268142 -0.027988 0.825257
v -0.000000 -0.016184 0.857595
v -0.000000 -0.023921 0.860469
v -0.000000 -0.027988 0.867726
v -0.265011 -0.016184 0.815621
v -0.265900 -0.023921 0.818355
v -0.268142 -0.027988 0.825257
v -0.504082 -0.016184 0.693809
v -0.505771 -0.023921 0.696135
v -0.510037 -0.027988 0.702005
v -0.693809 -0.016184 0.504082
v -0.696135 -0.023921 0.505771
v -0.702005 -0.027988 0.510037
v -0.815622 -0.016184 0.265011
v -0.818356 -0.023921 0.265900
v -0.825257 -0.027988 0.268142
v -0.857595 -0.016184 -0.000000
v -0.860469 -0.023921 -0.000000
v -0.867726 -0.027988 -0.000000
v -0.815622 -0.016184 -0.265011
v -0.818356 -0.023921 -0.265900
v -0.825257 -0.027988 -0.268142
v -0.693809 -0.016184 -0.504082
v -0.696135 -0.023921 -0.505772
v -0.702005 -0.027988 -0.510037
v -0.504082 -0.016184 -0.693809
v -0.505771 -0.023921 -0.696135
v -0.510037 -0.027988 -0.702005
v -0.265011 -0.016184 -0.815622
v -0.265900 -0.023921 -0.818356
v -0.268142 -0.027988 -0.825257
v -0.000000 -0.016184 -0.857595
v -0.000000 -0.023921 -0.860470
v -0.000000 -0.027988 -0.867726
v 0.265011 -0.016184 -0.815622
v 0.265900 -0.023921 -0.818356
v 0.268142 -0.027988 -0.825257
v 0.504082 -0.016184 -0.693809
v 0.505772 -0.023921 -0.696135
v 0.510037 -0.027988 -0.702006
v 0.693809 -0.016184 -0.504082
v 0.696135 -0.023921 -0.505772
v 0.702006 -0.027988 -0.510037
v 0.941422 -0.048002 -0.305886
v 0.948323 -0.052070 -0.308129
v 0.951057 -0.059806 -0.309017
v 1.000000 -0.059806 0.000000
v 0.997125 -0.052070 -0.000000
v 0.989869 -0.048002 -0.000000
v 0.951057 -0.059806 0.309017
v 0.948323 -0.052070 0.308129
v 0.941421 -0.048002 0.305886
v 0.809017 -0.059806 0.587785
v 0.806691 -0.052070 0.586096
v 0.800821 -0.048002 0.581830
v 0.587785 -0.059806 0.809017
v 0.586096 -0.052070 0.806691
v 0.581830 -0.048002 0.800821
v 0.309017 -0.059806 0.951057
v 0.308129 -0.052070 0.948323
v 0.305886 -0.048002 0.941421
v -0.000000 -0.059806 1.000000
v -0.000000 -0.052070 0.997125
v -0.000000 -0.048002 0.989869
v -0.309017 -0.059806 0.951057
v -0.308129 -0.052070 0.948323
v -0.305886 -0.048002 0.941421
v -0.587785 -0.059806 0.809017
v -0.586096 -0.052070 0.806691
v -0.581830 -0.048002 0.800821
v -0.809017 -0.059806 0.587785
v -0.806692 -0.052070 0.586096
v -0.800821 -0.048002 0.581830
v -0.951057 -0.059806 0.309017
v -0.948323 -0.052070 0.308129
v -0.941421 -0.048002 0.305886
v -1.000000 -0.059806 0.000000
v -0.997126 -0.052070 -0.000000
v -0.989869 -0.048002 -0.000000
v -0.951057 -0.059806 -0.309017
v -0.948323 -0.052070 -0.308129
v -0.941421 -0.048002 -0.305886
v -0.809017 -0.059806 -0.587785
v -0.806692 -0.052070 -0.586096
v -0.800821 -0.048002 -0.581830
v -0.587785 -0.059806 -0.809017
v -0.586096 -0.052070 -0.806692
v -0.581831 -0.048002 -0.800821
v -0.309017 -0.059806 -0.951057
v -0.308129 -0.052070 -0.948323
v -0.305886 -0.048002 -0.941422
v 0.000000 -0.059806 -1.000000
v -0.000000 -0.052070 -0.997126
v -0.000000 -0.048002 -0.989869
v 0.309017 -0.059806 -0.951057
v 0.308129 -0.052070 -0.948323
v 0.305886 -0.048002 -0.941422
v 0.587786 -0.059806 -0.809017
v 0.586096 -0.052070 -0.806692
v 0.581831 -0.048002 -0.800821
v 0.809018 -0.059806 -0.587786
v 0.806692 -0.052070 -0.586096
v 0.800821 -0.048002 -0.581831
v 0.139271 0.864385 -0.045252
v 0.118471 0.864385 -0.086074
v 0.000000 0.847649 0.000000
v 0.086074 0.864385 -0.118471
v 0.045252 0.864385 -0.139271
v -0.000000 0.864385 -0.146438
v -0.045252 0.864385 -0.139271
v -0.086074 0.864385 -0.118471
v -0.118471 0.864385 -0.086074
v -0.139271 0.864385 -0.045252
v -0.146438 0.864385 -0.000000
v -0.139271 0.864385 0.045252
v -0.118471 0.864385 0.086074
v -0.086074 0.864385 0.118471
v -0.045252 0.864385 0.139271
v -0.000000 0.864385 0.146438
v 0.045252 0.864385 0.139271
v 0.086074 0.864385 0.118471
v 0.118471 0.864385 0.086074
v 0.139271 0.864385 0.045252
v 0.146438 0.864385 -0.000000
v -0.200371 0.070996 -0.065104
v -0.157167 0.106137 -0.051067
v -0.139271 0.190972 -0.045252
v -0.210682 0.070996 -0.000000
v -0.165255 0.106137 -0.000000
v -0.146438 0.190972 -0.000000
v -0.200371 0.070996 0.065104
v -0.157167 0.106137 0.051066
v -0.139271 0.190972 0.045252
v -0.170446 0.070996 0.123836
v -0.133694 0.106137 0.097134
v -0.118471 0.190972 0.086074
v -0.123836 0.070996 0.170446
v -0.097134 0.106137 0.133694
v -0.086074 0.190972 0.118471
v -0.065104 0.070996 0.200371
v -0.051067 0.106137 0.157166
v -0.045252 0.190972 0.139271
v -0.000000 0.070996 0.210682
v -0.000000 0.106137 0.165254
v -0.000000 0.190972 0.146438
v 0.065104 0.070996 0.200371
v 0.051066 0.106137 0.157166
v 0.045252 0.190972 0.139271
v 0.123836 0.070996 0.170446
v 0.097134 0.106137 0.133694
v 0.086074 0.190972 0.118471
v 0.170446 0.070996 0.123836
v 0.133694 0.106137 0.097134
v 0.118471 0.190972 0.086074
v 0.200371 0.070996 0.065104
v 0.157166 0.106137 0.051066
v 0.139271 0.190972 0.045252
v 0.210682 0.070996 -0.000000
v 0.165255 0.106137 -0.000000
v 0.146438 0.190972 -0.000000
v 0.200371 0.070996 -0.065104
v 0.157167 0.106137 -0.051067
v 0.139271 0.190972 -0.045252
v 0.170446 0.070996 -0.123836
v 0.133694 0.106137 -0.097134
v 0.118471 0.190972 -0.086074
v 0.123836 0.070996 -0.170446
v 0.097134 0.106137 -0.133694
v 0.086074 0.190972 -0.118471
v 0.065104 0.070996 -0.200371
v 0.051066 0.106137 -0.157167
v 0.045252 0.190972 -0.139271
v -0.000000 0.070996 -0.210683
v -0.000000 0.106137 -0.165255
v -0.000000 0.190972 -0.146438
v -0.065104 0.070996 -0.200371
v -0.051067 0.106137 -0.157167
v -0.045252 0.190972 -0.139271
v -0.123836 0.070996 -0.170446
v -0.097134 0.106137 -0.133694
v -0.086074 0.190972 -0.118471
v -0.170446 0.070996 -0.123836
v -0.133694 0.106137 -0.097134
v -0.118471 0.190972 -0.086074
vt 0.666732 0.066406
vt 0.666617 0.074585
vt 0.626675 0.074585
vt 0.626675 0.066406
vt 0.702869 0.066406
vt 0.702650 0.074585
vt 0.666327 0.078885
vt 0.626675 0.078885
vt 0.586733 0.074585
vt 0.586617 0.066406
vt 0.626675 0.011571
vt 0.666732 0.011571
vt 0.702869 0.011571
vt 0.731547 0.066406
vt 0.731246 0.074585
vt 0.702097 0.078885
vt 0.661434 0.100044
vt 0.626675 0.100044
vt 0.587023 0.078885
vt 0.550700 0.074585
vt 0.550481 0.066406
vt 0.586617 0.011571
vt 0.666603 0.003392
vt 0.626675 0.003392
vt 0.702622 0.003392
vt 0.731547 0.011571
vt 0.730484 0.078885
vt 0.692791 0.100044
vt 0.661143 0.104344
vt 0.626675 0.104344
vt 0.591916 0.100044
vt 0.551253 0.078885
vt 0.522105 0.074585
vt 0.521803 0.066406
vt 0.550481 0.011571
vt 0.586747 0.003392
vt 0.666289 0.000004
vt 0.626675 0.000004
vt 0.702025 0.000004
vt 0.731207 0.003392
vt 0.717675 0.100044
vt 0.692238 0.104344
vt 0.661028 0.112522
vt 0.626675 0.112522
vt 0.592207 0.104344
vt 0.560560 0.100044
vt 0.522866 0.078885
vt 0.521803 0.011571
vt 0.550728 0.003392
vt 0.587061 0.000004
vt 0.730385 0.000004
vt 0.716914 0.104344
vt 0.692019 0.112522
vt 0.661028 0.173467
vt 0.626675 0.173467
vt 0.592322 0.112522
vt 0.561112 0.104344
vt 0.535675 0.100044
vt 0.522143 0.003392
vt 0.551325 0.000004
vt 0.716613 0.112522
vt 0.692019 0.173467
vt 0.660906 0.198871
vt 0.626675 0.198871
vt 0.592322 0.173467
vt 0.561332 0.112522
vt 0.536436 0.104344
vt 0.522965 0.000004
vt 0.716613 0.173467
vt 0.691786 0.198871
vt 0.660603 0.222383
vt 0.626675 0.222383
vt 0.592444 0.198871
vt 0.561332 0.173467
vt 0.536737 0.112522
vt 0.716292 0.198871
vt 0.691210 0.222383
vt 0.592747 0.222383
vt 0.561564 0.198871
vt 0.536737 0.173467
vt 0.715500 0.222383
vt 0.562140 0.222383
vt 0.537058 0.198871
vt 0.537850 0.222383
vt 0.763740 0.011571
vt 0.799876 0.011571
vt 0.799876 0.066406
vt 0.763740 0.066406
vt 0.763987 0.003392
vt 0.800006 0.003392
vt 0.839934 0.011571
vt 0.839934 0.066406
vt 0.799991 0.074585
vt 0.763959 0.074585
vt 0.735062 0.011571
vt 0.735062 0.066406
vt 0.735402 0.003392
vt 0.764584 0.000004
vt 0.800320 0.000004
vt 0.839934 0.003392
vt 0.879991 0.011571
vt 0.879991 0.066406
vt 0.839934 0.074585
vt 0.800282 0.078885
vt 0.764512 0.078885
vt 0.735363 0.074585
vt 0.736224 0.000004
vt 0.839934 0.000004
vt 0.879861 0.003392
vt 0.916128 0.011571
vt 0.916128 0.066406
vt 0.879876 0.074585
vt 0.839934 0.078885
vt 0.805175 0.100044
vt 0.773818 0.100044
vt 0.736124 0.078885
vt 0.879547 0.000004
vt 0.915880 0.003392
vt 0.944806 0.011571
vt 0.944806 0.066406
vt 0.915909 0.074585
vt 0.879585 0.078885
vt 0.839934 0.100044
vt 0.805465 0.104344
vt 0.774371 0.104344
vt 0.748934 0.100044
vt 0.915283 0.000004
vt 0.944465 0.003392
vt 0.944504 0.074585
vt 0.915356 0.078885
vt 0.874693 0.100044
vt 0.839934 0.104344
vt 0.805580 0.112522
vt 0.774590 0.112522
vt 0.749695 0.104344
vt 0.943644 0.000004
vt 0.943743 0.078885
vt 0.906049 0.100044
vt 0.874402 0.104344
vt 0.839934 0.112522
vt 0.805580 0.173467
vt 0.774590 0.173467
vt 0.749996 0.112522
vt 0.930934 0.100044
vt 0.905496 0.104344
vt 0.874287 0.112522
vt 0.839934 0.173467
vt 0.774823 0.198871
vt 0.805703 0.198871
vt 0.749996 0.173467
vt 0.930173 0.104344
vt 0.905277 0.112522
vt 0.874287 0.173467
vt 0.839934 0.198871
vt 0.750317 0.198871
vt 0.775398 0.222383
vt 0.806005 0.222383
vt 0.929871 0.112522
vt 0.905277 0.173467
vt 0.874164 0.198871
vt 0.839934 0.222383
vt 0.751109 0.222383
vt 0.929871 0.173467
vt 0.905044 0.198871
vt 0.873862 0.222383
vt 0.929551 0.198871
vt 0.904469 0.222383
vt 0.928759 0.222383
vt 0.599685 0.258712
vt 0.611848 0.258712
vt 0.611848 0.462622
vt 0.599685 0.462622
vt 0.601417 0.233024
vt 0.615144 0.233024
vt 0.621501 0.258712
vt 0.621501 0.462622
vt 0.586201 0.258712
vt 0.586201 0.462622
vt 0.586201 0.233024
vt 0.605600 0.222383
vt 0.623100 0.222383
vt 0.626037 0.233024
vt 0.572718 0.258712
vt 0.572718 0.462622
vt 0.570986 0.233024
vt 0.586201 0.222383
vt 0.636988 0.222383
vt 0.560555 0.258712
vt 0.560555 0.462622
vt 0.557259 0.233024
vt 0.566803 0.222383
vt 0.550902 0.258712
vt 0.550902 0.462622
vt 0.546366 0.233024
vt 0.549303 0.222383
vt 0.535415 0.222383
vt 0.646766 0.471731
vt 0.658929 0.471731
vt 0.658929 0.675641
vt 0.646766 0.675641
vt 0.657197 0.446043
vt 0.643470 0.446043
vt 0.672412 0.471731
vt 0.672412 0.675641
vt 0.637113 0.471731
vt 0.637113 0.675641
vt 0.672412 0.446043
vt 0.632577 0.446043
vt 0.653014 0.435402
vt 0.635514 0.435402
vt 0.685896 0.471731
vt 0.685896 0.675641
vt 0.672412 0.435402
vt 0.687628 0.446043
vt 0.621626 0.435402
vt 0.698059 0.471731
vt 0.698059 0.675641
vt 0.691811 0.435402
vt 0.701355 0.446043
vt 0.707712 0.471731
vt 0.707712 0.675641
vt 0.709311 0.435402
vt 0.712248 0.446043
vt 0.723199 0.435402
vt 0.489827 0.111615
vt 0.528286 0.187097
vt 0.270769 0.270769
vt 0.541539 0.270769
vt 0.429924 0.051712
vt 0.528286 0.354442
vt 0.354442 0.013252
vt 0.489826 0.429924
vt 0.270769 0.000000
vt 0.429924 0.489826
vt 0.187097 0.013252
vt 0.354442 0.528286
vt 0.111615 0.051712
vt 0.270769 0.541539
vt 0.051712 0.111615
vt 0.187097 0.528286
vt 0.013252 0.187097
vt 0.111615 0.489826
vt 0.000000 0.270769
vt 0.051712 0.429924
vt 0.013252 0.354442
vt 0.072774 0.063877
vt 0.063874 0.072777
vt 0.040229 0.040231
vt 0.052660 0.078491
vt 0.078488 0.052663
vt 0.040229 0.080460
vt 0.080457 0.040231
vt 0.027797 0.078491
vt 0.078488 0.027800
vt 0.016583 0.072777
vt 0.072774 0.016585
vt 0.007683 0.063877
vt 0.063874 0.007686
vt 0.001969 0.052663
vt 0.052660 0.001971
vt 0.000000 0.040231
vt 0.040229 0.000003
vt 0.001969 0.027800
vt 0.027797 0.001971
vt 0.007683 0.016585
vt 0.016583 0.007686
vt 0.011352 0.839729
vt 0.000000 0.768054
vt 0.174251 0.768054
vt 0.177074 0.785883
vt 0.011352 0.696379
vt 0.177074 0.750225
vt 0.044298 0.904388
vt 0.185270 0.801966
vt 0.044298 0.631720
vt 0.185270 0.734142
vt 0.095611 0.955702
vt 0.198033 0.814730
vt 0.095611 0.580406
vt 0.198033 0.721378
vt 0.160271 0.988648
vt 0.214117 0.822925
vt 0.160271 0.547461
vt 0.214117 0.713183
vt 0.231946 1.000000
vt 0.231946 0.825749
vt 0.231946 0.536108
vt 0.231946 0.710359
vt 0.303621 0.988648
vt 0.249774 0.822925
vt 0.303621 0.547461
vt 0.249774 0.713183
vt 0.368280 0.955702
vt 0.265858 0.814730
vt 0.368280 0.580406
vt 0.265858 0.721378
vt 0.419594 0.904389
vt 0.278622 0.801966
vt 0.419594 0.631720
vt 0.278622 0.734142
vt 0.452539 0.839729
vt 0.286817 0.785883
vt 0.452539 0.696379
vt 0.286817 0.750225
vt 0.463891 0.768054
vt 0.289641 0.768054
vt 0.853811 0.424321
vt 0.819195 0.424321
vt 0.819195 0.371795
vt 0.853811 0.371795
vt 0.853574 0.432157
vt 0.819071 0.432157
vt 0.780824 0.424321
vt 0.780824 0.371795
vt 0.819085 0.363960
vt 0.853601 0.363960
vt 0.853002 0.435402
vt 0.818770 0.435402
vt 0.780824 0.432157
vt 0.742453 0.424321
vt 0.742453 0.371795
vt 0.780824 0.363960
vt 0.818807 0.359841
vt 0.853071 0.359841
vt 0.780824 0.435402
vt 0.742577 0.432157
vt 0.707837 0.424321
vt 0.707837 0.371795
vt 0.742563 0.363960
vt 0.780824 0.359841
vt 0.814120 0.339573
vt 0.844157 0.339573
vt 0.742878 0.435402
vt 0.708074 0.432157
vt 0.708047 0.363960
vt 0.742841 0.359841
vt 0.780824 0.339573
vt 0.813841 0.335454
vt 0.843627 0.335454
vt 0.708646 0.435402
vt 0.708577 0.359841
vt 0.747528 0.339573
vt 0.780824 0.335454
vt 0.813731 0.327619
vt 0.843417 0.327619
vt 0.717492 0.339573
vt 0.747807 0.335454
vt 0.780824 0.327619
vt 0.813731 0.269240
vt 0.843417 0.269240
vt 0.718021 0.335454
vt 0.747917 0.327619
vt 0.780824 0.269240
vt 0.843194 0.244905
vt 0.813614 0.244905
vt 0.718231 0.327619
vt 0.747917 0.269240
vt 0.780824 0.244905
vt 0.842643 0.222383
vt 0.813324 0.222383
vt 0.718231 0.269240
vt 0.748034 0.244905
vt 0.780824 0.222383
vt 0.718454 0.244905
vt 0.748324 0.222383
vt 0.719005 0.222383
vt 0.848497 0.233464
vt 0.883112 0.233464
vt 0.883112 0.285991
vt 0.848497 0.285991
vt 0.848734 0.225628
vt 0.883237 0.225628
vt 0.921484 0.233464
vt 0.921484 0.285991
vt 0.883223 0.293825
vt 0.848707 0.293825
vt 0.849306 0.222383
vt 0.883538 0.222383
vt 0.921484 0.225628
vt 0.959855 0.233464
vt 0.959855 0.285991
vt 0.921484 0.293825
vt 0.883501 0.297944
vt 0.849237 0.297944
vt 0.921484 0.222383
vt 0.959731 0.225628
vt 0.994471 0.233464
vt 0.994471 0.285991
vt 0.959745 0.293825
vt 0.921484 0.297944
vt 0.888188 0.318212
vt 0.858151 0.318212
vt 0.959430 0.222383
vt 0.994234 0.225628
vt 0.994261 0.293825
vt 0.959467 0.297944
vt 0.921484 0.318212
vt 0.888466 0.322331
vt 0.858681 0.322331
vt 0.993662 0.222383
vt 0.993731 0.297944
vt 0.954780 0.318212
vt 0.921484 0.322331
vt 0.888577 0.330166
vt 0.858891 0.330166
vt 0.984816 0.318212
vt 0.954501 0.322331
vt 0.921484 0.330166
vt 0.888577 0.388545
vt 0.858891 0.388545
vt 0.984287 0.322331
vt 0.954391 0.330166
vt 0.921484 0.388545
vt 0.859114 0.412880
vt 0.888694 0.412880
vt 0.984077 0.330166
vt 0.954391 0.388545
vt 0.921484 0.412880
vt 0.859665 0.435402
vt 0.888984 0.435402
vt 0.984077 0.388545
vt 0.954274 0.412880
vt 0.921484 0.435402
vt 0.983854 0.412880
vt 0.953984 0.435402
vt 0.983303 0.435402
vt 0.545416 0.615855
vt 0.533764 0.615855
vt 0.533764 0.420527
vt 0.545416 0.420527
vt 0.548573 0.640462
vt 0.535424 0.640462
vt 0.520849 0.615855
vt 0.520849 0.420527
vt 0.556194 0.650654
vt 0.539431 0.650654
vt 0.520849 0.640462
vt 0.507933 0.615855
vt 0.507933 0.420527
vt 0.520849 0.650654
vt 0.506274 0.640462
vt 0.496282 0.615855
vt 0.496282 0.420527
vt 0.502267 0.650654
vt 0.493125 0.640462
vt 0.485504 0.650654
vt 0.736765 0.470202
vt 0.748416 0.470202
vt 0.748416 0.665529
vt 0.736765 0.665529
vt 0.733608 0.445595
vt 0.746757 0.445595
vt 0.761332 0.470202
vt 0.761332 0.665529
vt 0.725987 0.435402
vt 0.742750 0.435402
vt 0.761332 0.445595
vt 0.774248 0.470202
vt 0.774248 0.665529
vt 0.761332 0.435402
vt 0.775907 0.445595
vt 0.785899 0.470202
vt 0.785899 0.665529
vt 0.779914 0.435402
vt 0.789056 0.445595
vt 0.796677 0.435402
vn 0.949964 0.047925 -0.308661
vn 0.891497 0.348323 -0.289664
vn 0.937377 0.348318 0.000001
vn 0.998851 0.047925 0.000001
vn 0.464997 0.872325 -0.151086
vn 0.177049 0.982520 -0.057526
vn 0.186160 0.982520 0.000000
vn 0.488924 0.872326 0.000000
vn 0.949667 -0.054039 -0.308565
vn 0.807835 -0.054039 -0.586927
vn 0.808087 0.047924 -0.587110
vn 0.586926 -0.054039 -0.807835
vn 0.587110 0.047924 -0.808088
vn 0.308565 -0.054039 -0.949667
vn 0.308662 0.047925 -0.949964
vn -0.000000 -0.054039 -0.998539
vn 0.000000 0.047924 -0.998851
vn -0.308566 -0.054039 -0.949667
vn -0.308662 0.047924 -0.949964
vn -0.586927 -0.054039 -0.807835
vn -0.587110 0.047924 -0.808087
vn -0.807835 -0.054038 -0.586926
vn -0.808088 0.047924 -0.587110
vn -0.949667 -0.054038 -0.308565
vn -0.949964 0.047924 -0.308662
vn -0.998539 -0.054039 -0.000000
vn -0.998851 0.047923 -0.000000
vn -0.949667 -0.054039 0.308565
vn -0.949964 0.047923 0.308662
vn -0.807835 -0.054039 0.586927
vn -0.808087 0.047924 0.587110
vn -0.586926 -0.054038 0.807835
vn -0.587110 0.047924 0.808088
vn -0.308566 -0.054038 0.949667
vn -0.308662 0.047925 0.949964
vn 0.000000 -0.054039 0.998539
vn 0.000000 0.047924 0.998851
vn 0.308566 -0.054039 0.949667
vn 0.308662 0.047924 0.949964
vn 0.586926 -0.054038 0.807835
vn 0.587110 0.047923 0.808087
vn 0.807835 -0.054038 0.586926
vn 0.808088 0.047923 0.587110
vn 0.949667 -0.054039 0.308565
vn 0.949964 0.047923 0.308662
vn 0.998539 -0.054039 0.000001
vn 0.005909 -0.999973 -0.004293
vn 0.006946 -0.999973 -0.002257
vn 0.000000 -1.000000 -0.000000
vn 0.004293 -0.999973 -0.005909
vn 0.002257 -0.999973 -0.006946
vn 0.000000 -0.999973 -0.007304
vn -0.002257 -0.999973 -0.006946
vn -0.004293 -0.999973 -0.005909
vn -0.005909 -0.999973 -0.004293
vn -0.006946 -0.999973 -0.002257
vn -0.007304 -0.999973 -0.000000
vn -0.006946 -0.999973 0.002257
vn -0.005909 -0.999973 0.004293
vn -0.004293 -0.999973 0.005909
vn -0.002257 -0.999973 0.006946
vn -0.000000 -0.999973 0.007304
vn 0.002257 -0.999973 0.006946
vn 0.004293 -0.999973 0.005909
vn 0.005909 -0.999973 0.004293
vn 0.006946 -0.999973 0.002257
vn 0.007304 -0.999973 0.000000
vn -0.107995 0.993532 0.035089
vn -0.091866 0.993532 0.066745
vn -0.000000 1.000000 -0.000000
vn -0.066745 0.993532 0.091866
vn -0.035090 0.993532 0.107995
vn 0.000000 0.993532 0.113553
vn 0.035090 0.993532 0.107995
vn 0.066745 0.993532 0.091866
vn 0.091866 0.993532 0.066744
vn 0.107995 0.993532 0.035089
vn 0.113553 0.993532 0.000000
vn 0.107995 0.993532 -0.035089
vn 0.091866 0.993532 -0.066745
vn 0.066745 0.993532 -0.091867
vn 0.035090 0.993532 -0.107996
vn 0.000000 0.993532 -0.113553
vn -0.035090 0.993532 -0.107995
vn -0.066745 0.993532 -0.091867
vn -0.091866 0.993532 -0.066745
vn -0.107995 0.993532 -0.035089
vn -0.113553 0.993532 0.000000
vn 0.999024 0.044164 0.000001
vn 0.950129 0.044164 -0.308714
vn 0.950395 0.037302 -0.308800
vn 0.999304 0.037302 0.000001
vn 0.950129 0.044164 0.308715
vn 0.950395 0.037302 0.308801
vn 0.808228 0.044164 0.587211
vn 0.808454 0.037301 0.587376
vn 0.587212 0.044163 0.808227
vn 0.587376 0.037302 0.808454
vn 0.308715 0.044164 0.950129
vn 0.308801 0.037302 0.950395
vn 0.000000 0.044165 0.999024
vn 0.000000 0.037302 0.999304
vn -0.308715 0.044164 0.950129
vn -0.308801 0.037302 0.950395
vn -0.587212 0.044164 0.808227
vn -0.587376 0.037302 0.808454
vn -0.808227 0.044164 0.587212
vn -0.808454 0.037302 0.587376
vn -0.950129 0.044164 0.308715
vn -0.950395 0.037302 0.308802
vn -0.999024 0.044163 0.000000
vn -0.999304 0.037302 0.000000
vn -0.950129 0.044163 -0.308715
vn -0.950395 0.037302 -0.308801
vn -0.808228 0.044164 -0.587212
vn -0.808454 0.037302 -0.587376
vn -0.587212 0.044164 -0.808227
vn -0.587376 0.037302 -0.808454
vn -0.308715 0.044164 -0.950129
vn -0.308802 0.037302 -0.950395
vn -0.000000 0.044165 -0.999024
vn -0.000000 0.037302 -0.999304
vn 0.308715 0.044164 -0.950129
vn 0.308801 0.037302 -0.950395
vn 0.587212 0.044164 -0.808228
vn 0.587376 0.037302 -0.808454
vn 0.808228 0.044164 -0.587212
vn 0.808454 0.037302 -0.587376
vn 0.171313 0.983643 -0.055663
vn 0.180129 0.983643 0.000000
vn 0.177048 0.982519 0.057527
vn 0.171313 0.983643 0.055663
vn 0.150606 0.982519 0.109422
vn 0.145728 0.983643 0.105877
vn 0.109422 0.982519 0.150607
vn 0.105877 0.983643 0.145728
vn 0.057527 0.982519 0.177049
vn 0.055663 0.983643 0.171313
vn 0.000000 0.982519 0.186160
vn -0.000000 0.983643 0.180129
vn -0.057527 0.982519 0.177049
vn -0.055663 0.983643 0.171313
vn -0.109422 0.982519 0.150607
vn -0.105877 0.983643 0.145728
vn -0.150607 0.982520 0.109422
vn -0.145728 0.983643 0.105877
vn -0.177049 0.982519 0.057527
vn -0.171313 0.983643 0.055663
vn -0.186160 0.982519 -0.000000
vn -0.180129 0.983643 -0.000000
vn -0.177049 0.982519 -0.057527
vn -0.171313 0.983643 -0.055663
vn -0.150607 0.982519 -0.109422
vn -0.145728 0.983643 -0.105878
vn -0.109422 0.982519 -0.150607
vn -0.105878 0.983643 -0.145728
vn -0.057527 0.982519 -0.177049
vn -0.055663 0.983643 -0.171313
vn 0.000000 0.982519 -0.186160
vn 0.000000 0.983643 -0.180129
vn 0.057527 0.982519 -0.177049
vn 0.055663 0.983643 -0.171313
vn 0.109422 0.982519 -0.150607
vn 0.105877 0.983643 -0.145728
vn 0.150607 0.982519 -0.109422
vn 0.145728 0.983643 -0.105877
vn 0.877052 -0.386746 -0.284970
vn 0.746066 -0.386741 -0.542049
vn 0.360117 -0.925540 -0.117009
vn 0.306333 -0.925541 -0.222564
vn 0.542048 -0.386744 -0.746065
vn 0.222564 -0.925541 -0.306333
vn 0.284971 -0.386745 -0.877052
vn 0.117009 -0.925540 -0.360118
vn -0.000000 -0.386744 -0.922187
vn 0.000000 -0.925539 -0.378651
vn -0.284972 -0.386744 -0.877052
vn -0.117009 -0.925540 -0.360117
vn -0.542049 -0.386741 -0.746066
vn -0.222564 -0.925540 -0.306333
vn -0.746067 -0.386739 -0.542049
vn -0.306333 -0.925541 -0.222564
vn -0.877053 -0.386741 -0.284972
vn -0.360118 -0.925540 -0.117009
vn -0.922187 -0.386744 0.000000
vn -0.378653 -0.925539 -0.000000
vn -0.877053 -0.386741 0.284972
vn -0.360119 -0.925539 0.117010
vn -0.746066 -0.386741 0.542049
vn -0.306334 -0.925540 0.222564
vn -0.542048 -0.386742 0.746066
vn -0.222564 -0.925540 0.306334
vn -0.284972 -0.386743 0.877053
vn -0.117009 -0.925540 0.360118
vn 0.000000 -0.386744 0.922187
vn -0.000000 -0.925539 0.378651
vn 0.284972 -0.386743 0.877053
vn 0.117010 -0.925540 0.360118
vn 0.542049 -0.386740 0.746066
vn 0.222565 -0.925540 0.306334
vn 0.746067 -0.386739 0.542049
vn 0.306333 -0.925541 0.222564
vn 0.877053 -0.386741 0.284972
vn 0.360116 -0.925541 0.117009
vn 0.922185 -0.386748 0.000001
vn 0.378649 -0.925540 0.000000
vn 0.900553 0.321537 -0.292606
vn 0.900553 0.321537 -0.292606
vn 0.766055 0.321539 -0.556572
vn 0.766055 0.321539 -0.556572
vn 0.943458 0.126160 -0.306546
vn 0.802553 0.126160 -0.583089
vn 0.556572 0.321539 -0.766055
vn 0.556572 0.321539 -0.766055
vn 0.583089 0.126159 -0.802553
vn 0.292607 0.321538 -0.900552
vn 0.292607 0.321538 -0.900552
vn 0.306547 0.126159 -0.943458
vn 0.000000 0.321538 -0.946897
vn 0.000000 0.321538 -0.946897
vn 0.000000 0.126159 -0.992010
vn -0.292607 0.321538 -0.900552
vn -0.292607 0.321538 -0.900552
vn -0.306548 0.126159 -0.943458
vn -0.556572 0.321539 -0.766055
vn -0.556572 0.321539 -0.766055
vn -0.583089 0.126159 -0.802553
vn -0.766055 0.321539 -0.556572
vn -0.766055 0.321539 -0.556572
vn -0.802553 0.126160 -0.583089
vn -0.900553 0.321538 -0.292607
vn -0.900553 0.321538 -0.292606
vn -0.943458 0.126160 -0.306547
vn -0.946897 0.321538 -0.000000
vn -0.946897 0.321538 -0.000000
vn -0.992010 0.126159 0.000000
vn -0.900552 0.321538 0.292607
vn -0.900552 0.321538 0.292607
vn -0.943458 0.126159 0.306548
vn -0.766055 0.321537 0.556572
vn -0.766055 0.321537 0.556572
vn -0.802553 0.126160 0.583089
vn -0.556572 0.321538 0.766055
vn -0.556572 0.321538 0.766056
vn -0.583089 0.126160 0.802553
vn -0.292607 0.321538 0.900552
vn -0.292607 0.321538 0.900552
vn -0.306547 0.126159 0.943458
vn -0.000000 0.321538 0.946897
vn 0.000000 0.321538 0.946897
vn -0.000000 0.126159 0.992010
vn 0.292607 0.321538 0.900552
vn 0.292607 0.321538 0.900552
vn 0.306548 0.126160 0.943458
vn 0.556572 0.321539 0.766055
vn 0.556572 0.321539 0.766055
vn 0.583089 0.126159 0.802553
vn 0.766055 0.321540 0.556571
vn 0.766055 0.321540 0.556571
vn 0.802553 0.126159 0.583089
vn 0.900552 0.321540 0.292606
vn 0.900552 0.321540 0.292606
vn 0.943458 0.126159 0.306547
vn 0.946897 0.321538 0.000001
vn 0.946897 0.321538 0.000001
vn 0.992010 0.126159 0.000001
vn 0.891498 0.348318 -0.289664
vn 0.758354 0.348318 -0.550976
vn 0.464998 0.872324 -0.151086
vn 0.395550 0.872325 -0.287384
vn 0.488925 0.872326 0.000001
vn 0.937378 0.348315 0.000001
vn 0.464995 0.872326 0.151086
vn 0.891498 0.348318 0.289665
vn 0.395550 0.872325 0.287383
vn 0.758354 0.348318 0.550976
vn 0.287383 0.872326 0.395548
vn 0.550978 0.348313 0.758355
vn 0.151086 0.872326 0.464995
vn 0.289665 0.348315 0.891499
vn -0.000000 0.872325 0.488926
vn 0.000000 0.348317 0.937377
vn -0.151086 0.872325 0.464996
vn -0.289665 0.348318 0.891498
vn -0.287383 0.872326 0.395548
vn -0.550977 0.348315 0.758354
vn -0.395549 0.872326 0.287383
vn -0.758353 0.348318 0.550976
vn -0.464996 0.872325 0.151086
vn -0.891498 0.348318 0.289665
vn -0.488923 0.872327 0.000000
vn -0.937379 0.348312 -0.000000
vn -0.464995 0.872326 -0.151086
vn -0.891499 0.348315 -0.289665
vn -0.395550 0.872325 -0.287384
vn -0.758354 0.348315 -0.550977
vn -0.287383 0.872326 -0.395549
vn -0.550977 0.348315 -0.758354
vn -0.151086 0.872325 -0.464996
vn -0.289665 0.348318 -0.891498
vn 0.000000 0.872325 -0.488926
vn -0.000000 0.348317 -0.937377
vn 0.151086 0.872325 -0.464996
vn 0.289665 0.348318 -0.891498
vn 0.287383 0.872326 -0.395549
vn 0.550976 0.348318 -0.758353
vn 0.891499 0.348315 0.289666
vn 0.464994 0.872326 0.151086
vn 0.758355 0.348312 0.550977
vn 0.395548 0.872326 0.287382
vn 0.550977 0.348313 0.758355
vn 0.287382 0.872326 0.395548
vn 0.289665 0.348317 0.891498
vn 0.151086 0.872325 0.464996
vn 0.000000 0.348317 0.937377
vn -0.000000 0.872325 0.488926
vn -0.289665 0.348318 0.891498
vn -0.151086 0.872326 0.464996
vn -0.550977 0.348315 0.758354
vn -0.287383 0.872326 0.395548
vn -0.758354 0.348315 0.550977
vn -0.395548 0.872326 0.287382
vn -0.891499 0.348315 0.289666
vn -0.464996 0.872326 0.151086
vn -0.937379 0.348312 0.000000
vn -0.488927 0.872325 0.000000
vn -0.891498 0.348318 -0.289665
vn -0.464996 0.872326 -0.151086
vn -0.758354 0.348318 -0.550976
vn -0.395548 0.872326 -0.287382
vn -0.550977 0.348316 -0.758354
vn -0.287383 0.872326 -0.395548
vn -0.289665 0.348319 -0.891498
vn -0.151086 0.872326 -0.464996
vn -0.000000 0.348317 -0.937377
vn 0.000000 0.872325 -0.488926
vn 0.289665 0.348319 -0.891498
vn 0.151086 0.872325 -0.464996
vn 0.550976 0.348316 -0.758354
vn 0.287383 0.872325 -0.395550
vn 0.758354 0.348318 -0.550976
vn 0.395550 0.872325 -0.287384
vn 0.025007 0.999654 0.008125
vn 0.026294 0.999654 -0.000000
vn 0.008507 0.999964 0.000000
vn 0.008090 0.999964 0.002629
vn 0.025007 0.999654 -0.008125
vn 0.008090 0.999964 -0.002629
vn 0.021272 0.999654 -0.015455
vn 0.006882 0.999964 -0.005000
vn 0.015455 0.999654 -0.021272
vn 0.005000 0.999964 -0.006882
vn 0.008125 0.999654 -0.025007
vn 0.002629 0.999964 -0.008090
vn 0.000000 0.999654 -0.026294
vn -0.000000 0.999964 -0.008507
vn -0.008125 0.999654 -0.025007
vn -0.002629 0.999964 -0.008090
vn -0.015455 0.999654 -0.021272
vn -0.005000 0.999964 -0.006882
vn -0.021272 0.999654 -0.015455
vn -0.006882 0.999964 -0.005000
vn -0.025007 0.999654 -0.008125
vn -0.008090 0.999964 -0.002629
vn -0.026294 0.999654 -0.000000
vn -0.008507 0.999964 -0.000000
vn -0.025007 0.999654 0.008125
vn -0.008090 0.999964 0.002629
vn -0.021272 0.999654 0.015455
vn -0.006882 0.999964 0.005000
vn -0.015455 0.999654 0.021272
vn -0.005000 0.999964 0.006882
vn -0.008125 0.999654 0.025007
vn -0.002629 0.999964 0.008090
vn -0.000000 0.999654 0.026294
vn 0.000000 0.999964 0.008507
vn 0.008125 0.999654 0.025007
vn 0.002629 0.999964 0.008090
vn 0.015455 0.999654 0.021272
vn 0.005000 0.999964 0.006882
vn 0.021272 0.999654 0.015455
vn 0.006882 0.999964 0.005000
vn 0.950728 0.026276 -0.308909
vn 0.808737 0.026276 -0.587583
vn 0.809017 0.000000 -0.587786
vn 0.951057 0.000000 -0.309016
vn 0.587583 0.026276 -0.808737
vn 0.587786 0.000000 -0.809016
vn 0.308909 0.026276 -0.950728
vn 0.309016 0.000000 -0.951057
vn -0.000000 0.026275 -0.999655
vn -0.000000 0.000000 -1.000000
vn -0.308909 0.026276 -0.950728
vn -0.309016 0.000000 -0.951057
vn -0.587583 0.026276 -0.808737
vn -0.587786 0.000000 -0.809016
vn -0.808737 0.026276 -0.587583
vn -0.809016 0.000000 -0.587786
vn -0.950728 0.026276 -0.308909
vn -0.951057 0.000000 -0.309016
vn -0.999655 0.026276 -0.000000
vn -1.000000 0.000000 -0.000000
vn -0.950728 0.026276 0.308909
vn -0.951057 0.000000 0.309016
vn -0.808737 0.026276 0.587583
vn -0.809016 0.000000 0.587786
vn -0.587583 0.026276 0.808737
vn -0.587786 0.000000 0.809016
vn -0.308909 0.026276 0.950728
vn -0.309016 0.000000 0.951057
vn 0.000000 0.026275 0.999655
vn 0.000000 0.000000 1.000000
vn 0.308910 0.026276 0.950728
vn 0.309016 0.000000 0.951057
vn 0.587583 0.026276 0.808737
vn 0.587786 0.000000 0.809016
vn 0.808737 0.026276 0.587583
vn 0.809016 0.000000 0.587786
vn 0.950728 0.026276 0.308909
vn 0.951057 0.000000 0.309016
vn 0.999655 0.026276 0.000000
vn 1.000000 0.000000 0.000000
vn -0.581905 0.790973 -0.189071
vn -0.494998 0.790973 -0.359637
vn -0.928492 0.216540 -0.301684
vn -0.789822 0.216541 -0.573839
vn -0.976274 0.216540 0.000000
vn -0.611851 0.790973 -0.000000
vn -0.928492 0.216540 0.301684
vn -0.581905 0.790973 0.189071
vn -0.789822 0.216541 0.573840
vn -0.494998 0.790973 0.359637
vn -0.573839 0.216541 0.789822
vn -0.359637 0.790973 0.494998
vn -0.301684 0.216540 0.928492
vn -0.189071 0.790973 0.581905
vn -0.000000 0.216540 0.976274
vn 0.000000 0.790973 0.611851
vn 0.301684 0.216540 0.928492
vn 0.189071 0.790973 0.581905
vn 0.573840 0.216541 0.789822
vn 0.359637 0.790973 0.494998
vn 0.789822 0.216541 0.573839
vn 0.494998 0.790973 0.359637
vn 0.928492 0.216541 0.301684
vn 0.581905 0.790973 0.189071
vn 0.976274 0.216540 0.000000
vn 0.611851 0.790973 0.000000
vn 0.928492 0.216540 -0.301684
vn 0.581905 0.790973 -0.189071
vn 0.789822 0.216541 -0.573839
vn 0.494998 0.790973 -0.359637
vn 0.573840 0.216541 -0.789822
vn 0.359637 0.790973 -0.494998
vn 0.301684 0.216540 -0.928492
vn 0.189071 0.790973 -0.581905
vn 0.000000 0.216540 -0.976274
vn 0.000000 0.790973 -0.611851
vn -0.301684 0.216540 -0.928492
vn -0.189071 0.790973 -0.581905
vn -0.573839 0.216541 -0.789822
vn -0.359637 0.790973 -0.494998
s 1
g Socle
usemtl initialShadingGroup
f 184/1/1 183/2/2 186/3/3 185/4/4
s 2
f 183/2/5 182/7/6 187/8/7 186/3/8
s 1
f 2/12/9 5/13/10 239/5/11 184/1/1
f 5/13/10 8/26/12 236/14/13 239/5/11
f 8/307/12 11/308/14 233/309/15 236/310/13
f 11/308/14 14/313/16 230/314/17 233/309/15
f 14/313/16 17/320/18 227/321/19 230/314/17
f 17/320/18 20/327/20 224/328/21 227/321/19
f 20/95/20 23/85/22 221/88/23 224/96/21
f 23/85/22 26/86/24 218/87/25 221/88/23
f 26/86/24 29/91/26 215/92/27 218/87/25
f 29/91/26 32/101/28 212/102/29 215/92/27
f 32/101/28 35/110/30 209/111/31 212/102/29
f 35/110/30 38/119/32 206/120/33 209/111/31
f 38/367/32 41/368/34 203/369/35 206/370/33
f 41/368/34 44/373/36 200/374/37 203/369/35
f 44/373/36 47/380/38 197/381/39 200/374/37
f 47/380/38 50/387/40 194/388/41 197/381/39
f 50/48/40 53/35/42 191/21/43 194/34/41
f 53/35/42 56/22/44 188/10/45 191/21/43
f 56/22/44 59/11/46 185/4/4 188/10/45
f 59/11/46 2/12/9 184/1/1 185/4/4
s 4
f 7/225/47 4/226/48 1/227/49
f 10/229/50 7/225/47 1/227/49
f 13/231/51 10/229/50 1/227/49
f 16/233/52 13/231/51 1/227/49
f 19/235/53 16/233/52 1/227/49
f 22/237/54 19/235/53 1/227/49
f 25/239/55 22/237/54 1/227/49
f 28/241/56 25/239/55 1/227/49
f 31/243/57 28/241/56 1/227/49
f 34/245/58 31/243/57 1/227/49
f 37/244/59 34/245/58 1/227/49
f 40/242/60 37/244/59 1/227/49
f 43/240/61 40/242/60 1/227/49
f 46/238/62 43/240/61 1/227/49
f 49/236/63 46/238/62 1/227/49
f 52/234/64 49/236/63 1/227/49
f 55/232/65 52/234/64 1/227/49
f 58/230/66 55/232/65 1/227/49
f 61/228/67 58/230/66 1/227/49
f 4/226/48 61/228/67 1/227/49
s 5
f 242/250/68 243/246/69 244/248/70
f 243/246/69 245/247/71 244/248/70
f 245/247/71 246/249/72 244/248/70
f 246/249/72 247/251/73 244/248/70
f 247/251/73 248/253/74 244/248/70
f 248/253/74 249/255/75 244/248/70
f 249/255/75 250/257/76 244/248/70
f 250/257/76 251/259/77 244/248/70
f 251/259/77 252/261/78 244/248/70
f 252/261/78 253/263/79 244/248/70
f 253/263/79 254/265/80 244/248/70
f 254/265/80 255/266/81 244/248/70
f 255/266/81 256/264/82 244/248/70
f 256/264/82 257/262/83 244/248/70
f 257/262/83 258/260/84 244/248/70
f 258/260/84 259/258/85 244/248/70
f 259/258/85 260/256/86 244/248/70
f 260/256/86 261/254/87 244/248/70
f 261/254/87 262/252/88 244/248/70
f 262/252/88 242/250/68 244/248/70
s 6
f 125/44/89 122/43/90 64/54/91 121/55/92
f 128/56/93 125/44/89 121/55/92 118/65/94
f 131/66/95 128/56/93 118/65/94 115/74/96
f 134/75/97 131/66/95 115/74/96 112/80/98
f 137/412/99 134/416/97 112/421/98 109/417/100
f 140/408/101 137/412/99 109/417/100 106/413/102
f 143/404/103 140/408/101 106/413/102 103/409/104
f 146/405/105 143/404/103 103/409/104 100/410/106
f 149/152/107 146/158/105 100/163/106 97/159/108
f 152/146/109 149/152/107 97/159/108 94/153/110
f 155/140/111 152/146/109 94/153/110 91/147/112
f 158/133/113 155/140/111 91/147/112 88/141/114
f 161/134/115 158/133/113 88/141/114 85/142/116
f 164/143/117 161/134/115 85/142/116 82/150/118
f 167/352/119 164/356/117 82/361/118 79/357/120
f 170/348/121 167/352/119 79/357/120 76/353/122
f 173/344/123 170/348/121 76/353/122 73/349/124
f 176/345/125 173/344/123 73/349/124 70/350/126
f 179/53/127 176/61/125 70/69/126 67/62/128
f 122/43/90 179/53/127 67/62/128 64/54/91
s 2
f 187/8/7 182/7/6 124/17/129 127/18/130
f 190/19/131 187/8/7 127/18/130 130/31/132
f 193/32/133 190/19/131 130/31/132 133/46/134
f 196/47/135 193/32/133 133/46/134 136/58/136
f 199/396/137 196/401/135 136/406/136 139/402/138
f 202/390/139 199/396/137 139/402/138 142/397/140
f 205/383/141 202/390/139 142/397/140 145/391/142
f 208/384/143 205/383/141 145/391/142 148/392/144
f 211/130/145 208/137/143 148/144/144 151/138/146
f 214/122/147 211/130/145 151/138/146 154/131/148
f 217/113/149 214/122/147 154/131/148 157/123/150
f 220/104/151 217/113/149 157/123/150 160/114/152
f 223/105/153 220/104/151 160/114/152 163/115/154
f 226/116/155 223/105/153 163/115/154 166/126/156
f 229/336/157 226/341/155 166/346/156 169/342/158
f 232/330/159 229/336/157 169/342/158 172/337/160
f 235/323/161 232/330/159 172/337/160 175/331/162
f 238/324/163 235/323/161 175/331/162 178/332/164
f 241/16/165 238/27/163 178/41/164 181/28/166
f 182/7/6 241/16/165 181/28/166 124/17/129
s 1
f 2/12/9 3/23/167 6/25/168 5/13/10
s 4
f 3/23/169 4/37/48 7/39/47 6/25/170
s 1
f 5/13/10 6/25/168 9/40/171 8/26/12
s 4
f 6/25/170 7/39/47 10/51/50 9/40/172
s 1
f 8/307/12 9/311/171 12/312/173 11/308/14
s 4
f 9/311/172 10/317/50 13/318/51 12/312/174
s 1
f 11/308/14 12/312/173 15/319/175 14/313/16
s 4
f 12/312/174 13/318/51 16/325/52 15/319/176
s 1
f 14/313/16 15/319/175 18/326/177 17/320/18
s 4
f 15/319/176 16/325/52 19/333/53 18/326/178
s 1
f 17/320/18 18/326/177 21/334/179 20/327/20
s 4
f 18/326/178 19/333/53 22/340/54 21/334/180
s 1
f 20/95/20 21/97/179 24/89/181 23/85/22
s 4
f 21/97/180 22/107/54 25/98/55 24/89/182
s 1
f 23/85/22 24/89/181 27/90/183 26/86/24
s 4
f 24/89/182 25/98/55 28/99/56 27/90/184
s 1
f 26/86/24 27/90/183 30/100/185 29/91/26
s 4
f 27/90/184 28/99/56 31/108/57 30/100/186
s 1
f 29/91/26 30/100/185 33/109/187 32/101/28
s 4
f 30/100/186 31/108/57 34/117/58 33/109/188
s 1
f 32/101/28 33/109/187 36/118/189 35/110/30
s 4
f 33/109/188 34/117/58 37/127/59 36/118/190
s 1
f 35/110/30 36/118/189 39/128/191 38/119/32
s 4
f 36/118/190 37/127/59 40/136/60 39/128/192
s 1
f 38/367/32 39/371/191 42/372/193 41/368/34
s 4
f 39/371/192 40/377/60 43/378/61 42/372/194
s 1
f 41/368/34 42/372/193 45/379/195 44/373/36
s 4
f 42/372/194 43/378/61 46/385/62 45/379/196
s 1
f 44/373/36 45/379/195 48/386/197 47/380/38
s 4
f 45/379/196 46/385/62 49/393/63 48/386/198
s 1
f 47/380/38 48/386/197 51/394/199 50/387/40
s 4
f 48/386/198 49/393/63 52/400/64 51/394/200
s 1
f 50/48/40 51/59/199 54/49/201 53/35/42
s 4
f 51/59/200 52/68/64 55/60/65 54/49/202
s 1
f 53/35/42 54/49/201 57/36/203 56/22/44
s 4
f 54/49/202 55/60/65 58/50/66 57/36/204
s 1
f 56/22/44 57/36/203 60/24/205 59/11/46
s 4
f 57/36/204 58/50/66 61/38/67 60/24/206
f 4/37/48 3/23/169 60/24/206 61/38/67
s 1
f 3/23/167 2/12/9 59/11/46 60/24/205
s 7
f 62/71/207 63/63/208 66/70/209 65/77/210
s 6
f 63/63/211 64/54/91 67/62/128 66/70/212
s 7
f 65/77/210 66/70/209 69/76/213 68/81/214
s 6
f 66/70/212 67/62/128 70/69/126 69/76/215
s 7
f 68/359/214 69/354/213 72/355/216 71/360/217
s 6
f 69/354/215 70/350/126 73/349/124 72/355/218
s 7
f 71/360/217 72/355/216 75/358/219 74/363/220
s 6
f 72/355/218 73/349/124 76/353/122 75/358/221
s 7
f 74/363/220 75/358/219 78/362/222 77/365/223
s 6
f 75/358/221 76/353/122 79/357/120 78/362/224
s 7
f 77/365/223 78/362/222 81/364/225 80/366/226
s 6
f 78/362/224 79/357/120 82/361/118 81/364/227
s 7
f 80/162/226 81/155/225 84/148/228 83/156/229
s 6
f 81/155/227 82/150/118 85/142/116 84/148/230
s 7
f 83/156/229 84/148/228 87/149/231 86/157/232
s 6
f 84/148/230 85/142/116 88/141/114 87/149/233
s 7
f 86/157/232 87/149/231 90/154/234 89/161/235
s 6
f 87/149/233 88/141/114 91/147/112 90/154/236
s 7
f 89/161/235 90/154/234 93/160/237 92/165/238
s 6
f 90/154/236 91/147/112 94/153/110 93/160/239
s 7
f 92/165/238 93/160/237 96/164/240 95/167/241
s 6
f 93/160/239 94/153/110 97/159/108 96/164/242
s 7
f 95/167/241 96/164/240 99/166/243 98/168/244
s 6
f 96/164/242 97/159/108 100/163/106 99/166/245
s 7
f 98/419/244 99/414/243 102/415/246 101/420/247
s 6
f 99/414/245 100/410/106 103/409/104 102/415/248
s 7
f 101/420/247 102/415/246 105/418/249 104/423/250
s 6
f 102/415/248 103/409/104 106/413/102 105/418/251
s 7
f 104/423/250 105/418/249 108/422/252 107/425/253
s 6
f 105/418/251 106/413/102 109/417/100 108/422/254
s 7
f 107/425/253 108/422/252 111/424/255 110/426/256
s 6
f 108/422/254 109/417/100 112/421/98 111/424/257
s 7
f 110/84/256 111/83/255 114/79/258 113/82/259
s 6
f 111/83/257 112/80/98 115/74/96 114/79/260
s 7
f 113/82/259 114/79/258 117/73/261 116/78/262
s 6
f 114/79/260 115/74/96 118/65/94 117/73/263
s 7
f 116/78/262 117/73/261 120/64/264 119/72/265
s 6
f 117/73/263 118/65/94 121/55/92 120/64/266
f 64/54/91 63/63/211 120/64/266 121/55/92
s 7
f 63/63/208 62/71/207 119/72/265 120/64/264
s 6
f 122/43/90 123/29/267 180/42/268 179/53/127
s 2
f 123/29/269 124/17/129 181/28/166 180/42/270
f 124/17/129 123/29/269 126/30/271 127/18/130
s 6
f 123/29/267 122/43/90 125/44/89 126/30/272
s 2
f 127/18/130 126/30/271 129/45/273 130/31/132
s 6
f 126/30/272 125/44/89 128/56/93 129/45/274
s 2
f 130/31/132 129/45/273 132/57/275 133/46/134
s 6
f 129/45/274 128/56/93 131/66/95 132/57/276
s 2
f 133/46/134 132/57/275 135/67/277 136/58/136
s 6
f 132/57/276 131/66/95 134/75/97 135/67/278
s 2
f 136/406/136 135/411/277 138/407/279 139/402/138
s 6
f 135/411/278 134/416/97 137/412/99 138/407/280
s 2
f 139/402/138 138/407/279 141/403/281 142/397/140
s 6
f 138/407/280 137/412/99 140/408/101 141/403/282
s 2
f 142/397/140 141/403/281 144/398/283 145/391/142
s 6
f 141/403/282 140/408/101 143/404/103 144/398/284
s 2
f 145/391/142 144/398/283 147/399/285 148/392/144
s 6
f 144/398/284 143/404/103 146/405/105 147/399/286
s 2
f 148/144/144 147/151/285 150/145/287 151/138/146
s 6
f 147/151/286 146/158/105 149/152/107 150/145/288
s 2
f 151/138/146 150/145/287 153/139/289 154/131/148
s 6
f 150/145/288 149/152/107 152/146/109 153/139/290
s 2
f 154/131/148 153/139/289 156/132/291 157/123/150
s 6
f 153/139/290 152/146/109 155/140/111 156/132/292
s 2
f 157/123/150 156/132/291 159/124/293 160/114/152
s 6
f 156/132/292 155/140/111 158/133/113 159/124/294
s 2
f 160/114/152 159/124/293 162/125/295 163/115/154
s 6
f 159/124/294 158/133/113 161/134/115 162/125/296
s 2
f 163/115/154 162/125/295 165/135/297 166/126/156
s 6
f 162/125/296 161/134/115 164/143/117 165/135/298
s 2
f 166/346/156 165/351/297 168/347/299 169/342/158
s 6
f 165/351/298 164/356/117 167/352/119 168/347/300
s 2
f 169/342/158 168/347/299 171/343/301 172/337/160
s 6
f 168/347/300 167/352/119 170/348/121 171/343/302
s 2
f 172/337/160 171/343/301 174/338/303 175/331/162
s 6
f 171/343/302 170/348/121 173/344/123 174/338/304
s 2
f 175/331/162 174/338/303 177/339/305 178/332/164
s 6
f 174/338/304 173/344/123 176/345/125 177/339/306
s 2
f 178/41/164 177/52/305 180/42/270 181/28/166
s 6
f 177/52/306 176/61/125 179/53/127 180/42/268
s 1
f 185/4/4 186/3/3 189/9/307 188/10/45
s 2
f 186/3/8 187/8/7 190/19/131 189/9/308
s 1
f 188/10/45 189/9/307 192/20/309 191/21/43
s 2
f 189/9/308 190/19/131 193/32/133 192/20/310
s 1
f 191/21/43 192/20/309 195/33/311 194/34/41
s 2
f 192/20/310 193/32/133 196/47/135 195/33/312
s 1
f 194/388/41 195/395/311 198/389/313 197/381/39
s 2
f 195/395/312 196/401/135 199/396/137 198/389/314
s 1
f 197/381/39 198/389/313 201/382/315 200/374/37
s 2
f 198/389/314 199/396/137 202/390/139 201/382/316
s 1
f 200/374/37 201/382/315 204/375/317 203/369/35
s 2
f 201/382/316 202/390/139 205/383/141 204/375/318
s 1
f 203/369/35 204/375/317 207/376/319 206/370/33
s 2
f 204/375/318 205/383/141 208/384/143 207/376/320
s 1
f 206/120/33 207/129/319 210/121/321 209/111/31
s 2
f 207/129/320 208/137/143 211/130/145 210/121/322
s 1
f 209/111/31 210/121/321 213/112/323 212/102/29
s 2
f 210/121/322 211/130/145 214/122/147 213/112/324
s 1
f 212/102/29 213/112/323 216/103/325 215/92/27
s 2
f 213/112/324 214/122/147 217/113/149 216/103/326
s 1
f 215/92/27 216/103/325 219/93/327 218/87/25
s 2
f 216/103/326 217/113/149 220/104/151 219/93/328
s 1
f 218/87/25 219/93/327 222/94/329 221/88/23
s 2
f 219/93/328 220/104/151 223/105/153 222/94/330
s 1
f 221/88/23 222/94/329 225/106/331 224/96/21
s 2
f 222/94/330 223/105/153 226/116/155 225/106/332
s 1
f 224/328/21 225/335/331 228/329/333 227/321/19
s 2
f 225/335/332 226/341/155 229/336/157 228/329/334
s 1
f 227/321/19 228/329/333 231/322/335 230/314/17
s 2
f 228/329/334 229/336/157 232/330/159 231/322/336
s 1
f 230/314/17 231/322/335 234/315/337 233/309/15
s 2
f 231/322/336 232/330/159 235/323/161 234/315/338
s 1
f 233/309/15 234/315/337 237/316/339 236/310/13
s 2
f 234/315/338 235/323/161 238/324/163 237/316/340
s 1
f 236/14/13 237/15/339 240/6/341 239/5/11
s 2
f 237/15/340 238/27/163 241/16/165 240/6/342
f 182/7/6 183/2/5 240/6/342 241/16/165
s 1
f 183/2/2 184/1/1 239/5/11 240/6/341
s 8
f 86/267/343 89/268/344 266/269/345 263/270/346
f 89/268/344 92/271/347 269/272/348 266/269/345
f 92/271/347 95/275/349 272/276/350 269/272/348
f 95/275/349 98/279/351 275/280/352 272/276/350
f 98/279/351 101/283/353 278/284/354 275/280/352
f 101/283/353 104/287/355 281/288/356 278/284/354
f 104/287/355 107/291/357 284/292/358 281/288/356
f 107/291/357 110/295/359 287/296/360 284/292/358
f 110/295/359 113/299/361 290/300/362 287/296/360
f 113/299/361 116/303/363 293/304/364 290/300/362
f 116/303/363 119/305/365 296/306/366 293/304/364
f 119/305/365 62/301/367 299/302/368 296/306/366
f 62/301/367 65/297/369 302/298/370 299/302/368
f 65/297/369 68/293/371 305/294/372 302/298/370
f 68/293/371 71/289/373 308/290/374 305/294/372
f 71/289/373 74/285/375 311/286/376 308/290/374
f 74/285/375 77/281/377 314/282/378 311/286/376
f 77/281/377 80/277/379 317/278/380 314/282/378
f 80/277/379 83/273/381 320/274/382 317/278/380
f 83/273/381 86/267/343 263/270/346 320/274/382
s 9
f 301/169/383 304/170/384 243/171/385 242/172/386
f 304/170/384 307/175/387 245/176/388 243/171/385
f 307/427/387 310/428/389 246/429/390 245/430/388
f 310/428/389 313/433/391 247/434/392 246/429/390
f 313/433/391 316/438/393 248/439/394 247/434/392
f 316/438/393 319/442/395 249/443/396 248/439/394
f 319/205/395 322/197/397 250/200/398 249/206/396
f 322/197/397 265/198/399 251/199/400 250/200/398
f 265/198/399 268/203/401 252/204/402 251/199/400
f 268/203/401 271/211/403 253/212/404 252/204/402
f 271/211/403 274/216/405 254/217/406 253/212/404
f 274/216/405 277/220/407 255/221/408 254/217/406
f 277/447/407 280/448/409 256/449/410 255/450/408
f 280/448/409 283/453/411 257/454/412 256/449/410
f 283/453/411 286/458/413 258/459/414 257/454/412
f 286/458/413 289/462/415 259/463/416 258/459/414
f 289/192/415 292/188/417 260/189/418 259/193/416
f 292/188/417 295/183/419 261/184/420 260/189/418
f 295/183/419 298/177/421 262/178/422 261/184/420
f 298/177/421 301/169/383 242/172/386 262/178/422
s 8
f 263/209/346 264/201/423 321/202/424 320/210/382
s 9
f 264/201/425 265/198/399 322/197/397 321/202/426
f 265/198/399 264/201/425 267/207/427 268/203/401
s 8
f 264/201/423 263/209/346 266/213/345 267/207/428
s 9
f 268/203/401 267/207/427 270/214/429 271/211/403
s 8
f 267/207/428 266/213/345 269/218/348 270/214/430
s 9
f 271/211/403 270/214/429 273/219/431 274/216/405
s 8
f 270/214/430 269/218/348 272/222/350 273/219/432
s 9
f 274/216/405 273/219/431 276/223/433 277/220/407
s 8
f 273/219/432 272/222/350 275/224/352 276/223/434
s 9
f 277/447/407 276/451/433 279/452/435 280/448/409
s 8
f 276/451/434 275/455/352 278/456/354 279/452/436
s 9
f 280/448/409 279/452/435 282/457/437 283/453/411
s 8
f 279/452/436 278/456/354 281/460/356 282/457/438
s 9
f 283/453/411 282/457/437 285/461/439 286/458/413
s 8
f 282/457/438 281/460/356 284/464/358 285/461/440
s 9
f 286/458/413 285/461/439 288/465/441 289/462/415
s 8
f 285/461/440 284/464/358 287/466/360 288/465/442
s 9
f 289/192/415 288/194/441 291/190/443 292/188/417
s 8
f 288/194/442 287/196/360 290/195/362 291/190/444
s 9
f 292/188/417 291/190/443 294/185/445 295/183/419
s 8
f 291/190/444 290/195/362 293/191/364 294/185/446
s 9
f 295/183/419 294/185/445 297/179/447 298/177/421
s 8
f 294/185/446 293/191/364 296/186/366 297/179/448
s 9
f 298/177/421 297/179/447 300/173/449 301/169/383
s 8
f 297/179/448 296/186/366 299/180/368 300/173/450
s 9
f 301/169/383 300/173/449 303/174/451 304/170/384
s 8
f 300/173/450 299/180/368 302/181/370 303/174/452
s 9
f 304/170/384 303/174/451 306/182/453 307/175/387
s 8
f 303/174/452 302/181/370 305/187/372 306/182/454
s 9
f 307/427/387 306/431/453 309/432/455 310/428/389
s 8
f 306/431/454 305/435/372 308/436/374 309/432/456
s 9
f 310/428/389 309/432/455 312/437/457 313/433/391
s 8
f 309/432/456 308/436/374 311/440/376 312/437/458
s 9
f 313/433/391 312/437/457 315/441/459 316/438/393
s 8
f 312/437/458 311/440/376 314/444/378 315/441/460
s 9
f 316/438/393 315/441/459 318/445/461 319/442/395
s 8
f 315/441/460 314/444/378 317/446/380 318/445/462
s 9
f 319/205/395 318/208/461 321/202/426 322/197/397
s 8
f 318/208/462 317/215/380 320/210/382 321/202/424
