# This file uses centimeters as units for non-parametric coordinates.

mtllib trefle.mtl
g default
v -0.500000 1.416321 0.000000
v 0.500000 1.416321 0.000000
v 0.500000 1.416321 -0.170414
v -0.500000 1.416321 -0.170414
v -0.500000 1.416321 0.170414
v 0.500000 1.416321 0.170414
v -0.453131 0.580080 -0.465452
v -0.486272 0.593807 -0.467857
v -0.500000 0.626948 -0.473663
v -0.453131 0.677636 -0.232726
v -0.486272 0.689603 -0.239329
v -0.500000 0.718496 -0.255271
v 0.500000 0.626948 -0.473663
v 0.486272 0.593807 -0.467857
v 0.453131 0.580080 -0.465452
v 0.500000 0.718496 -0.255271
v 0.486272 0.689603 -0.239329
v 0.453131 0.677636 -0.232726
v -0.453131 0.580080 0.465452
v -0.486272 0.593807 0.467857
v -0.500000 0.626948 0.473663
v -0.500000 0.626948 0.740472
v -0.486272 0.593807 0.743511
v -0.453131 0.580080 0.744769
v 0.500000 0.626948 0.473663
v 0.486272 0.593807 0.467857
v 0.453131 0.580080 0.465452
v 0.453131 0.580080 0.744769
v 0.486272 0.593807 0.743511
v 0.500000 0.626948 0.740472
v 0.453131 1.416321 0.340829
v 0.486272 1.382729 0.310278
v 0.500000 1.301632 0.236523
v 0.500000 1.480149 0.540428
v 0.486272 1.511377 0.529286
v 0.453131 1.524312 0.524671
v -0.500000 1.301632 0.236523
v -0.486272 1.382729 0.310278
v -0.453131 1.416321 0.340829
v -0.500000 1.480149 0.540428
v -0.486272 1.511377 0.529286
v -0.453131 1.524312 0.524671
v -0.500000 1.660942 0.409432
v -0.486272 1.651950 0.439834
v -0.453131 1.648225 0.452427
v 0.500000 1.660942 0.409432
v 0.486272 1.651950 0.439834
v 0.453131 1.648225 0.452427
v 0.453131 1.416321 -0.340829
v 0.486272 1.382729 -0.310278
v 0.500000 1.301632 -0.236523
v 0.500000 1.660942 -0.409432
v 0.486272 1.651950 -0.439834
v 0.453131 1.648225 -0.452427
v -0.500000 1.416321 -0.266099
v -0.500000 1.532261 -0.396622
v -0.453131 1.416321 -0.340829
v -0.486272 1.401934 -0.342973
v -0.500000 1.367202 -0.348149
v -0.500000 1.480149 -0.540428
v -0.486272 1.511377 -0.529286
v -0.453131 1.524312 -0.524671
v 0.500000 1.480149 -0.540428
v 0.486272 1.511377 -0.529286
v 0.453131 1.524312 -0.524671
v 0.500000 0.626948 -0.740472
v 0.486272 0.593807 -0.743511
v 0.453131 0.580080 -0.744769
v -0.453131 0.580080 -0.744769
v -0.486272 0.593807 -0.743511
v -0.500000 0.626948 -0.740472
v -0.500000 1.080080 1.165690
v -0.486272 1.080080 1.197145
v -0.453131 1.080080 1.210174
v -0.453131 0.888707 1.174748
v -0.486272 0.894063 1.162710
v -0.500000 0.906993 1.133648
v 0.453131 1.080080 1.210174
v 0.486272 1.080080 1.197145
v 0.500000 1.080080 1.165690
v 0.500000 0.906993 1.133648
v 0.486272 0.894063 1.162710
v 0.453131 0.888707 1.174748
v -0.453131 0.726512 1.073860
v -0.486272 0.736408 1.064647
v -0.500000 0.760302 1.042405
v 0.500000 0.760302 1.042405
v 0.486272 0.736408 1.064647
v 0.453131 0.726512 1.073860
v -0.453131 0.618136 0.922872
v -0.486272 0.631067 0.917886
v -0.500000 0.662285 0.905848
v 0.500000 0.662285 0.905848
v 0.486272 0.631067 0.917886
v 0.453131 0.618136 0.922872
v 0.453131 1.271452 1.174748
v 0.486272 1.266096 1.162710
v 0.500000 1.253166 1.133648
v -0.500000 1.253166 1.133648
v -0.486272 1.266096 1.162710
v -0.453131 1.271452 1.174748
v 0.453131 1.433648 1.073860
v 0.486272 1.423751 1.064647
v 0.500000 1.399857 1.042405
v -0.500000 1.399857 1.042405
v -0.486272 1.423751 1.064647
v -0.453131 1.433648 1.073860
v 0.453131 1.542023 0.922872
v 0.486272 1.529092 0.917886
v 0.500000 1.497874 0.905848
v -0.500000 1.497874 0.905848
v -0.486272 1.529092 0.917886
v -0.453131 1.542023 0.922872
v 0.453131 1.580080 0.744769
v 0.486272 1.566034 0.745000
v 0.500000 1.532124 0.745557
v -0.500000 1.532124 0.745557
v -0.486272 1.566034 0.745000
v -0.453131 1.580080 0.744769
v -0.500000 2.332293 0.000000
v -0.486272 2.366083 0.000000
v -0.453131 2.380080 0.000000
v -0.453131 2.342023 0.178149
v -0.486272 2.329092 0.173164
v -0.500000 2.297873 0.161127
v 0.453131 2.380080 0.000000
v 0.486272 2.366083 0.000000
v 0.500000 2.332293 0.000000
v 0.500000 2.297873 0.161127
v 0.486272 2.329092 0.173164
v 0.453131 2.342023 0.178149
v -0.453131 2.233648 0.329138
v -0.486272 2.223751 0.319925
v -0.500000 2.199857 0.297682
v 0.500000 2.199857 0.297682
v 0.486272 2.223751 0.319925
v 0.453131 2.233648 0.329138
v -0.453131 2.071452 0.430025
v -0.486272 2.066096 0.417987
v -0.500000 2.053165 0.388926
v 0.500000 2.053165 0.388926
v 0.486272 2.066096 0.417987
v 0.453131 2.071452 0.430025
v -0.453131 1.880130 0.465452
v -0.486272 1.879189 0.452597
v -0.500000 1.876917 0.421562
v 0.500000 1.876917 0.421562
v 0.486272 1.879189 0.452597
v 0.453131 1.880130 0.465452
v 0.453131 2.342023 -0.178149
v 0.486272 2.329092 -0.173164
v 0.500000 2.297873 -0.161127
v -0.500000 2.297873 -0.161127
v -0.486272 2.329092 -0.173164
v -0.453131 2.342023 -0.178149
v 0.453131 2.233648 -0.329138
v 0.486272 2.223751 -0.319925
v 0.500000 2.199857 -0.297682
v -0.500000 2.199857 -0.297682
v -0.486272 2.223751 -0.319925
v -0.453131 2.233648 -0.329138
v 0.453131 2.071452 -0.430025
v 0.486272 2.066096 -0.417987
v 0.500000 2.053165 -0.388926
v -0.500000 2.053165 -0.388926
v -0.486272 2.066096 -0.417987
v -0.453131 2.071452 -0.430025
v 0.453131 1.880130 -0.465452
v 0.486272 1.879189 -0.452597
v 0.500000 1.876917 -0.421562
v -0.500000 1.876917 -0.421562
v -0.486272 1.879189 -0.452597
v -0.453131 1.880130 -0.465452
v -0.500000 1.080080 -1.165690
v -0.486272 1.080080 -1.197145
v -0.453131 1.080080 -1.210174
v -0.453131 1.271452 -1.174748
v -0.486272 1.266096 -1.162710
v -0.500000 1.253166 -1.133648
v 0.453131 1.080080 -1.210174
v 0.486272 1.080080 -1.197145
v 0.500000 1.080080 -1.165690
v 0.500000 1.253166 -1.133648
v 0.486272 1.266096 -1.162710
v 0.453131 1.271452 -1.174748
v -0.453131 1.433648 -1.073860
v -0.486272 1.423751 -1.064647
v -0.500000 1.399857 -1.042405
v 0.500000 1.399857 -1.042405
v 0.486272 1.423751 -1.064647
v 0.453131 1.433648 -1.073860
v -0.453131 1.542023 -0.922872
v -0.486272 1.529092 -0.917886
v -0.500000 1.497874 -0.905848
v 0.500000 1.497874 -0.905848
v 0.486272 1.529092 -0.917886
v 0.453131 1.542023 -0.922872
v -0.453131 1.580080 -0.744769
v -0.486272 1.566034 -0.745000
v -0.500000 1.532124 -0.745557
v 0.500000 1.532124 -0.745557
v 0.486272 1.566034 -0.745000
v 0.453131 1.580080 -0.744769
v 0.453131 0.888707 -1.174748
v 0.486272 0.894063 -1.162710
v 0.500000 0.906993 -1.133648
v -0.500000 0.906993 -1.133648
v -0.486272 0.894063 -1.162710
v -0.453131 0.888707 -1.174748
v 0.453131 0.726512 -1.073860
v 0.486272 0.736408 -1.064647
v 0.500000 0.760302 -1.042405
v -0.500000 0.760302 -1.042405
v -0.486272 0.736408 -1.064647
v -0.453131 0.726512 -1.073860
v 0.453131 0.618136 -0.922872
v 0.486272 0.631067 -0.917886
v 0.500000 0.662285 -0.905848
v -0.500000 0.662285 -0.905848
v -0.486272 0.631067 -0.917886
v -0.453131 0.618136 -0.922872
v -0.438562 1.648225 -0.452427
v -0.500000 1.593649 -0.426163
v -0.482005 1.632240 -0.444734
v -0.453131 0.887376 0.000000
v -0.486272 0.905294 0.000000
v -0.500000 0.948554 0.000000
v -0.500000 0.718496 0.255271
v -0.486272 0.689603 0.239329
v -0.453131 0.677636 0.232726
v 0.500000 0.948554 0.000000
v 0.486272 0.905294 0.000000
v 0.453131 0.887376 0.000000
v 0.453131 0.677636 0.232726
v 0.486272 0.689603 0.239329
v 0.500000 0.718496 0.255271
v -0.500000 1.416321 -0.340829
vt 0.392276 0.168265
vt 0.385101 0.169616
vt 0.385101 0.105505
vt 0.392276 0.106212
vt 0.412097 0.219058
vt 0.405841 0.222766
vt 0.393168 0.064949
vt 0.399927 0.067749
vt 0.538350 0.223419
vt 0.421148 0.035989
vt 0.452908 0.014768
vt 0.490382 0.007316
vt 0.527857 0.014768
vt 0.559616 0.035989
vt 0.580838 0.067749
vt 0.588253 0.105029
vt 0.577000 0.152737
vt 0.563181 0.238794
vt 0.461906 0.278429
vt 0.452540 0.278429
vt 0.415975 0.030816
vt 0.450108 0.008009
vt 0.490382 0.000000
vt 0.530656 0.008009
vt 0.564789 0.030816
vt 0.587597 0.064949
vt 0.595595 0.105159
vt 0.583761 0.155329
vt 0.555908 0.206265
vt 0.563181 0.278429
vt 0.588283 0.370674
vt 0.563181 0.340317
vt 0.563181 0.318063
vt 0.616143 0.183204
vt 0.662903 0.180383
vt 0.701062 0.187973
vt 0.732822 0.209194
vt 0.754043 0.240954
vt 0.761495 0.278429
vt 0.754043 0.315903
vt 0.732822 0.347663
vt 0.701062 0.368884
vt 0.662903 0.376474
vt 0.601573 0.377544
vt 0.412097 0.337799
vt 0.405841 0.334091
vt 0.614196 0.176133
vt 0.563181 0.357697
vt 0.392276 0.388592
vt 0.552546 0.359400
vt 0.663395 0.173165
vt 0.703862 0.181214
vt 0.737995 0.204021
vt 0.760802 0.238155
vt 0.768811 0.278429
vt 0.760802 0.318702
vt 0.737995 0.352836
vt 0.703862 0.375643
vt 0.663395 0.383692
vt 0.609929 0.381864
vt 0.385101 0.387241
vt 0.560066 0.358196
vt 0.577000 0.404120
vt 0.588253 0.451828
vt 0.580838 0.489108
vt 0.559616 0.520868
vt 0.527857 0.542089
vt 0.490382 0.549541
vt 0.452908 0.542089
vt 0.421148 0.520868
vt 0.399927 0.489108
vt 0.392276 0.450645
vt 0.385101 0.451352
vt 0.583761 0.401528
vt 0.595595 0.451698
vt 0.587597 0.491908
vt 0.564789 0.526041
vt 0.530656 0.548848
vt 0.490382 0.556857
vt 0.450108 0.548848
vt 0.415975 0.526041
vt 0.393168 0.491908
vt 0.000000 0.387258
vt 0.007176 0.388608
vt 0.007176 0.450665
vt 0.000000 0.451371
vt 0.020741 0.334105
vt 0.026997 0.337813
vt 0.195745 0.489129
vt 0.174522 0.520890
vt 0.142761 0.542112
vt 0.105286 0.549565
vt 0.067810 0.542112
vt 0.036049 0.520890
vt 0.014827 0.489129
vt 0.153255 0.333453
vt 0.191907 0.404137
vt 0.203160 0.451847
vt 0.008067 0.491929
vt 0.067442 0.278441
vt 0.076808 0.278441
vt 0.178087 0.318077
vt 0.179696 0.526063
vt 0.202504 0.491929
vt 0.145561 0.548871
vt 0.105286 0.556881
vt 0.065010 0.548871
vt 0.030875 0.526063
vt 0.170814 0.350607
vt 0.198668 0.401546
vt 0.210502 0.451718
vt 0.020741 0.222776
vt 0.026997 0.219068
vt 0.178087 0.278441
vt 0.315974 0.187982
vt 0.347735 0.209204
vt 0.368957 0.240965
vt 0.376409 0.278441
vt 0.368957 0.315917
vt 0.347735 0.347678
vt 0.315974 0.368900
vt 0.277813 0.376490
vt 0.231051 0.373669
vt 0.178087 0.238805
vt 0.153255 0.223429
vt 0.231051 0.183212
vt 0.277813 0.180391
vt 0.229104 0.380740
vt 0.000000 0.169624
vt 0.007176 0.168273
vt 0.352908 0.204031
vt 0.318774 0.181222
vt 0.375716 0.238165
vt 0.383725 0.278441
vt 0.375716 0.318716
vt 0.352908 0.352851
vt 0.318774 0.375659
vt 0.278305 0.383709
vt 0.170814 0.206274
vt 0.229104 0.176141
vt 0.278305 0.173173
vt 0.000000 0.105510
vt 0.007176 0.106217
vt 0.014827 0.067753
vt 0.036049 0.035991
vt 0.067810 0.014769
vt 0.105286 0.007317
vt 0.142761 0.014769
vt 0.174522 0.035991
vt 0.195745 0.067753
vt 0.203160 0.105034
vt 0.191907 0.152744
vt 0.198668 0.155336
vt 0.008067 0.064953
vt 0.030875 0.030818
vt 0.065010 0.008010
vt 0.105286 0.000001
vt 0.145561 0.008010
vt 0.179696 0.030818
vt 0.202504 0.064953
vt 0.210502 0.105164
vt 0.770202 0.416936
vt 0.778033 0.416325
vt 0.778033 0.487223
vt 0.770202 0.486903
vt 0.770202 0.358930
vt 0.778033 0.357254
vt 0.992169 0.416325
vt 0.992169 0.487223
vt 0.778033 0.532429
vt 0.770202 0.531164
vt 0.770202 0.298183
vt 0.778033 0.298183
vt 0.992169 0.357254
vt 1.000000 0.416936
vt 1.000000 0.486903
vt 0.992169 0.532429
vt 0.778033 0.570754
vt 0.770202 0.568415
vt 0.770202 0.237435
vt 0.778033 0.239111
vt 0.992169 0.298183
vt 1.000000 0.358930
vt 1.000000 0.531164
vt 0.992169 0.570754
vt 0.778033 0.596361
vt 0.770202 0.593306
vt 0.770202 0.179430
vt 0.778033 0.180040
vt 0.992169 0.239111
vt 1.000000 0.298183
vt 1.000000 0.568415
vt 0.992169 0.596361
vt 0.770202 0.109462
vt 0.778033 0.109143
vt 0.992169 0.180040
vt 1.000000 0.237435
vt 1.000000 0.593306
vt 0.770202 0.065201
vt 0.778033 0.063936
vt 0.992169 0.109143
vt 1.000000 0.179430
vt 0.770202 0.027950
vt 0.778033 0.025611
vt 0.992169 0.063936
vt 1.000000 0.109462
vt 0.770202 0.003059
vt 0.778033 0.000004
vt 0.992169 0.025611
vt 1.000000 0.065201
vt 0.992169 0.000004
vt 1.000000 0.027950
vt 1.000000 0.003059
vt 0.766461 0.538071
vt 0.758696 0.545912
vt 0.711971 0.545912
vt 0.710798 0.538071
vt 0.758696 0.760331
vt 0.711971 0.760331
vt 0.656031 0.545912
vt 0.655972 0.538071
vt 0.766461 0.768173
vt 0.710798 0.768173
vt 0.656031 0.760331
vt 0.610765 0.545912
vt 0.612032 0.538071
vt 0.655972 0.768173
vt 0.610765 0.760331
vt 0.572390 0.545912
vt 0.574731 0.538071
vt 0.612032 0.768173
vt 0.572390 0.760331
vt 0.546748 0.545912
vt 0.549808 0.538071
vt 0.574731 0.768173
vt 0.546748 0.760331
vt 0.549808 0.768173
vt 0.773757 0.826460
vt 0.773212 0.818619
vt 0.819937 0.818619
vt 0.821110 0.826460
vt 0.773212 0.604202
vt 0.819937 0.604202
vt 0.875876 0.818619
vt 0.875935 0.826460
vt 0.765448 0.596361
vt 0.821110 0.596361
vt 0.875876 0.604202
vt 0.921142 0.818619
vt 0.919875 0.826460
vt 0.875935 0.596361
vt 0.921142 0.604202
vt 0.959516 0.818619
vt 0.957175 0.826460
vt 0.919875 0.596361
vt 0.959516 0.604202
vt 0.985157 0.818619
vt 0.982098 0.826460
vt 0.957175 0.596361
vt 0.985157 0.604202
vt 0.982098 0.596361
vt 0.299252 0.754072
vt 0.299252 0.762238
vt 0.253413 0.762238
vt 0.252093 0.754072
vt 0.346410 0.754072
vt 0.345090 0.762238
vt 0.214564 0.762238
vt 0.212125 0.754072
vt 0.252093 0.530749
vt 0.299252 0.530749
vt 0.346410 0.530749
vt 0.386378 0.754072
vt 0.383940 0.762238
vt 0.188605 0.762238
vt 0.185419 0.754072
vt 0.212125 0.530749
vt 0.299252 0.522582
vt 0.253413 0.522582
vt 0.345090 0.522582
vt 0.386378 0.530749
vt 0.413085 0.754072
vt 0.409898 0.762238
vt 0.185419 0.530749
vt 0.214564 0.522582
vt 0.383940 0.522582
vt 0.413085 0.530749
vt 0.188605 0.522582
vt 0.409898 0.522582
vt 0.157580 0.556877
vt 0.149894 0.564460
vt 0.096834 0.564460
vt 0.095982 0.556877
vt 0.096834 0.768480
vt 0.149894 0.771813
vt 0.123367 0.782537
vt 0.109322 0.782537
vt 0.100492 0.778420
vt 0.043775 0.564460
vt 0.043990 0.556877
vt 0.043775 0.771813
vt 0.153186 0.779396
vt 0.149894 0.782537
vt 0.043990 0.779396
vt 0.000000 0.564460
vt 0.001226 0.556877
vt 0.000000 0.771813
vt 0.001226 0.779396
vt 0.361762 0.974402
vt 0.361762 0.981887
vt 0.319750 0.981887
vt 0.318540 0.974402
vt 0.404983 0.974402
vt 0.403773 0.981887
vt 0.318540 0.769723
vt 0.361762 0.769723
vt 0.404983 0.769723
vt 0.361762 0.762238
vt 0.319750 0.762238
vt 0.403773 0.762238
vt 0.456848 0.769017
vt 0.456848 0.776502
vt 0.414837 0.776502
vt 0.413627 0.769017
vt 0.500070 0.769017
vt 0.498860 0.776502
vt 0.413627 0.564338
vt 0.456848 0.564338
vt 0.500070 0.564338
vt 0.456848 0.556853
vt 0.414837 0.556853
vt 0.498860 0.556853
vt 0.217668 0.977277
vt 0.217668 0.769825
vt 0.270753 0.769825
vt 0.270753 0.977277
vt 0.164582 0.977277
vt 0.164582 0.769825
vt 0.218520 0.762238
vt 0.270537 0.762238
vt 0.314548 0.977277
vt 0.314548 0.769825
vt 0.218520 0.984863
vt 0.270537 0.984863
vt 0.156893 0.762238
vt 0.156893 0.984863
vt 0.313322 0.762238
vt 0.313322 0.984863
vn -0.999957 -0.009096 -0.001722
vn -0.925888 -0.371201 -0.070289
vn -0.924438 -0.380047 0.031274
vn -0.999985 -0.005409 0.000445
vn -0.387607 -0.905579 -0.172300
vn -0.014071 -0.982234 -0.187130
vn -0.014220 -0.996457 0.082896
vn -0.384040 -0.920152 0.076371
vn 0.014071 -0.982234 -0.187130
vn 0.387607 -0.905579 -0.172300
vn 0.384040 -0.920152 0.076371
vn 0.014220 -0.996457 0.082896
vn 0.925888 -0.371201 -0.070289
vn 0.999957 -0.009096 -0.001722
vn 0.999985 -0.005409 0.000445
vn 0.924438 -0.380047 0.031274
vn 1.000000 0.000243 0.000354
vn 0.921491 0.334896 -0.196721
vn 0.923602 0.351089 -0.153937
vn 0.999978 0.006036 -0.002646
vn 0.377024 0.798614 -0.469114
vn 0.024097 0.861995 -0.506344
vn 0.014697 0.926544 -0.375900
vn 0.382424 0.853768 -0.353315
vn 1.000000 0.000243 -0.000354
vn 0.915769 -0.174191 -0.361974
vn 0.917666 -0.116075 -0.380021
vn 0.999972 -0.002169 -0.007102
vn 0.364263 -0.403836 -0.839184
vn 0.022142 -0.433522 -0.900871
vn 0.013579 -0.263592 -0.964539
vn 0.368344 -0.248999 -0.895724
vn -0.999997 0.002338 0.001125
vn -0.952937 0.277498 0.122090
vn -0.923784 0.354096 0.145734
vn -0.999982 0.005523 0.002273
vn -0.377024 0.798614 0.469114
vn -0.015649 0.862139 0.506429
vn -0.014114 0.926633 0.375704
vn -0.382516 0.855847 0.348149
vn -0.013042 -0.000000 0.999915
vn -0.365883 0.000000 0.930661
vn -0.369023 -0.334339 0.867202
vn -0.013171 -0.359698 0.932976
vn -0.916523 0.000000 0.399982
vn -0.999988 0.000000 0.004985
vn -0.999988 -0.001776 0.004606
vn -0.917960 -0.142694 0.370118
vn 0.999988 -0.000000 0.004985
vn 0.916523 -0.000000 0.399982
vn 0.917960 -0.142694 0.370118
vn 0.999988 -0.001776 0.004606
vn 0.365883 0.000000 0.930661
vn 0.013042 -0.000000 0.999915
vn 0.013171 -0.359698 0.932976
vn 0.369023 -0.334339 0.867202
vn -0.014009 0.999902 -0.000000
vn -0.389051 0.921216 0.000000
vn -0.385387 0.843083 0.375083
vn -0.013854 0.913571 0.406443
vn -0.926464 0.376385 0.000000
vn -0.999990 0.004383 0.000000
vn -0.999990 0.004049 0.001801
vn -0.924990 0.347183 0.154459
vn 0.999990 0.004391 0.000000
vn 0.926464 0.376385 0.000000
vn 0.924990 0.347183 0.154459
vn 0.999990 0.004057 0.001805
vn 0.389051 0.921216 0.000000
vn 0.014009 0.999902 -0.000000
vn 0.013854 0.913571 0.406443
vn 0.385387 0.843083 0.375083
vn -0.013042 0.000000 -0.999915
vn -0.365883 0.000000 -0.930661
vn -0.369022 0.334339 -0.867203
vn -0.013171 0.359698 -0.932976
vn -0.916523 -0.000000 -0.399982
vn -0.999986 -0.000000 -0.005372
vn -0.999986 0.001914 -0.004963
vn -0.917961 0.142693 -0.370118
vn 0.999988 0.000000 -0.004985
vn 0.916523 0.000000 -0.399982
vn 0.917961 0.142693 -0.370118
vn 0.999988 0.001776 -0.004606
vn 0.365883 0.000000 -0.930661
vn 0.013042 0.000000 -0.999915
vn 0.013171 0.359698 -0.932976
vn 0.369023 0.334339 -0.867202
vn -0.999939 -0.011045 -0.000000
vn -0.953161 -0.302464 -0.000000
vn -0.922768 -0.319785 -0.215029
vn -0.998922 -0.038515 -0.025898
vn -0.372700 -0.689319 -0.621236
vn -0.017080 -0.742731 -0.669372
vn -0.013992 -0.834411 -0.550966
vn -0.380202 -0.770868 -0.511086
vn 0.017080 -0.742731 -0.669372
vn 0.372700 -0.689319 -0.621236
vn 0.380202 -0.770868 -0.511086
vn 0.013992 -0.834411 -0.550966
vn 0.953161 -0.302464 -0.000000
vn 0.999939 -0.011045 -0.000000
vn 0.998922 -0.038515 -0.025898
vn 0.922768 -0.319785 -0.215029
vn 1.000000 0.000000 0.000000
vn -1.000000 -0.000000 0.000000
vn -1.000000 0.000243 0.000354
vn -0.014697 0.926544 -0.375900
vn -0.014018 0.998913 -0.044449
vn 0.014018 0.998913 -0.044449
vn -0.013764 -0.259756 0.965576
vn 0.013764 -0.259756 0.965576
vn 0.013163 0.052850 0.998516
vn -0.013163 0.052850 0.998516
vn -0.004411 -0.306472 -0.951869
vn -0.012248 0.055163 -0.998402
vn 0.013219 0.053314 -0.998490
vn 0.014697 0.926544 0.375900
vn 0.014018 0.998913 0.044449
vn -0.014018 0.998913 0.044449
vn 0.014071 -0.982234 0.187130
vn -0.014071 -0.982234 0.187130
vn -0.014220 -0.996457 -0.082896
vn 0.014220 -0.996457 -0.082896
vn -0.013499 -0.681305 0.731875
vn 0.013499 -0.681305 0.731875
vn -0.013878 -0.913554 0.406480
vn 0.013878 -0.913554 0.406480
vn 0.013171 0.359698 0.932976
vn -0.013171 0.359698 0.932976
vn 0.013499 0.681305 0.731875
vn -0.013499 0.681305 0.731875
vn 0.013850 0.913549 0.406494
vn -0.013850 0.913549 0.406494
vn -0.013499 0.681305 0.731875
vn 0.013499 0.681305 0.731875
vn -0.013187 0.359735 0.932961
vn 0.013187 0.359735 0.932961
vn 0.013854 0.913571 -0.406443
vn -0.013854 0.913571 -0.406443
vn 0.013499 0.681305 -0.731875
vn -0.013499 0.681305 -0.731875
vn 0.013187 0.359735 -0.932961
vn -0.013187 0.359735 -0.932961
vn -0.013499 0.681305 -0.731875
vn 0.013499 0.681305 -0.731875
vn -0.013850 0.913549 -0.406494
vn 0.013850 0.913549 -0.406494
vn 0.013171 -0.359698 -0.932976
vn -0.013171 -0.359698 -0.932976
vn 0.013499 -0.681305 -0.731875
vn -0.013499 -0.681305 -0.731875
vn 0.013878 -0.913554 -0.406480
vn -0.013878 -0.913554 -0.406480
vn 0.999989 0.004280 0.001906
vn 0.999988 0.003281 0.003524
vn 0.999988 0.001776 0.004606
vn 0.999988 -0.003281 0.003524
vn 0.999989 -0.004325 0.001915
vn 0.999986 0.005342 -0.000251
vn -0.999989 -0.004325 0.001915
vn -0.999988 -0.003281 0.003524
vn -0.999988 0.001776 0.004606
vn -0.999988 0.003281 0.003524
vn -0.999989 0.004280 0.001906
vn -0.999986 0.005342 -0.000251
vn -0.999978 0.006036 -0.002646
vn 0.999989 0.001685 -0.004384
vn 0.999990 0.003104 -0.003335
vn 0.999990 0.004057 -0.001805
vn 0.999990 0.003104 0.003335
vn 0.999989 0.001685 0.004384
vn 0.999988 0.000255 0.004864
vn 0.999972 -0.002169 0.007102
vn 1.000000 0.000000 0.000000
vn 1.000000 0.000000 0.000000
vn 0.999988 0.000255 -0.004864
vn 0.999989 -0.004325 -0.001915
vn 0.999988 -0.003281 -0.003524
vn 0.999988 -0.001776 -0.004606
vn 0.999988 0.003281 -0.003524
vn 0.999989 0.004280 -0.001906
vn 0.999986 0.005342 0.000251
vn 0.999978 0.006036 0.002646
vn 0.999957 -0.009096 0.001722
vn 0.999985 -0.005409 -0.000445
vn -0.999948 -0.010021 0.001898
vn -0.999983 0.005756 0.000271
vn -0.999987 0.004612 -0.002054
vn -0.999987 0.003536 -0.003798
vn -0.999986 -0.001914 -0.004963
vn -0.999987 -0.003536 -0.003798
vn -0.999987 -0.004661 -0.002064
vn -0.999983 -0.005829 -0.000480
vn -0.022853 -0.433515 0.900857
vn 0.022853 -0.433515 0.900857
vn 0.024097 0.861995 0.506344
vn -0.024097 0.861995 -0.506344
vn -0.999454 -0.027432 0.018445
vn -1.000000 -0.000000 0.000000
vn -1.000000 0.000013 -0.000086
vn 0.013992 -0.834411 0.550966
vn -0.013992 -0.834411 0.550966
vn 0.998922 -0.038515 0.025898
vn 0.017080 -0.742731 0.669372
vn -0.017080 -0.742731 0.669372
vn -1.000000 -0.000000 0.000000
vn -1.000000 -0.000000 0.000000
vn -0.999973 -0.002165 0.007088
vn -0.999988 0.000255 0.004855
vn -0.999989 0.001682 0.004376
vn -0.999990 0.003098 0.003328
vn -0.999990 0.004049 -0.001801
vn -0.999990 0.003098 -0.003328
vn -0.999989 0.001682 -0.004376
vn -0.999984 0.000330 -0.005608
vn -1.000000 -0.000000 0.000000
vn -0.000000 -0.433049 -0.901370
vn -0.000000 -0.433540 -0.901134
vn -0.000000 -0.433628 -0.901092
vn -0.005058 -0.426762 -0.904350
vn -0.387607 -0.905579 0.172300
vn -0.384040 -0.920152 -0.076371
vn -0.925888 -0.371201 0.070289
vn -0.924438 -0.380047 -0.031274
vn -0.922768 -0.319785 0.215029
vn -0.380202 -0.770868 0.511086
vn 0.925888 -0.371201 0.070289
vn 0.924438 -0.380047 -0.031274
vn 0.387607 -0.905579 0.172300
vn 0.384040 -0.920152 -0.076371
vn 0.380202 -0.770868 0.511086
vn 0.922768 -0.319785 0.215029
vn -0.915769 -0.174191 0.361974
vn -0.917666 -0.116075 0.380021
vn -0.364263 -0.403836 0.839184
vn -0.368344 -0.248999 0.895724
vn -0.377024 0.798614 -0.469114
vn -0.382424 0.853768 -0.353315
vn -0.921491 0.334895 -0.196721
vn -0.923602 0.351089 -0.153937
vn 0.364263 -0.403836 0.839184
vn 0.368344 -0.248999 0.895724
vn 0.915769 -0.174191 0.361975
vn 0.917666 -0.116075 0.380021
vn 0.377024 0.798614 0.469114
vn 0.382424 0.853768 0.353315
vn 0.921491 0.334895 0.196721
vn 0.923602 0.351089 0.153937
vn -0.917961 0.142693 0.370118
vn -0.369023 0.334339 0.867202
vn -0.376939 -0.631108 0.677953
vn -0.921454 -0.264702 0.284350
vn 0.369022 0.334339 0.867203
vn 0.917961 0.142693 0.370118
vn 0.921454 -0.264703 0.284350
vn 0.376939 -0.631108 0.677953
vn -0.385393 -0.843201 0.374813
vn -0.925000 -0.347417 0.153870
vn 0.925000 -0.347418 0.153870
vn 0.385393 -0.843201 0.374813
vn 0.376938 0.631108 0.677953
vn 0.921454 0.264702 0.284350
vn -0.921454 0.264703 0.284349
vn -0.376938 0.631108 0.677953
vn 0.385385 0.843038 0.375187
vn 0.924987 0.347132 0.154592
vn -0.924987 0.347133 0.154592
vn -0.385385 0.843038 0.375187
vn 0.390126 0.919829 -0.041417
vn 0.926882 0.374939 -0.017623
vn -0.926882 0.374939 -0.017623
vn -0.390126 0.919829 -0.041417
vn -0.924990 0.347183 -0.154459
vn -0.385387 0.843083 -0.375083
vn -0.376936 0.631109 0.677953
vn -0.921454 0.264702 0.284350
vn 0.385387 0.843083 -0.375083
vn 0.924990 0.347183 -0.154459
vn 0.921454 0.264702 0.284350
vn 0.376936 0.631109 0.677953
vn -0.369017 0.334178 0.867267
vn -0.917952 0.142317 0.370284
vn 0.917952 0.142317 0.370284
vn 0.369017 0.334178 0.867267
vn -0.362412 0.049181 0.930719
vn -0.914897 0.021173 0.403132
vn 0.914897 0.021173 0.403132
vn 0.362412 0.049181 0.930719
vn 0.376936 0.631109 -0.677953
vn 0.921454 0.264702 -0.284350
vn -0.921454 0.264702 -0.284350
vn -0.376936 0.631109 -0.677953
vn 0.369017 0.334178 -0.867267
vn 0.917952 0.142317 -0.370284
vn -0.917952 0.142317 -0.370284
vn -0.369017 0.334178 -0.867267
vn 0.362412 0.049181 -0.930719
vn 0.914897 0.021173 -0.403132
vn -0.875443 0.026923 -0.482571
vn -0.297746 0.041695 -0.953734
vn -0.838631 -0.010099 -0.544607
vn -0.838630 -0.010099 -0.544607
vn -0.917960 -0.142694 -0.370118
vn -0.369023 -0.334339 -0.867202
vn -0.376938 0.631108 -0.677953
vn -0.921454 0.264702 -0.284350
vn 0.369023 -0.334339 -0.867202
vn 0.917960 -0.142694 -0.370118
vn 0.921454 0.264703 -0.284349
vn 0.376938 0.631108 -0.677953
vn -0.385385 0.843038 -0.375187
vn -0.924987 0.347132 -0.154592
vn 0.924987 0.347133 -0.154592
vn 0.385385 0.843038 -0.375187
vn -0.390126 0.919829 0.041417
vn -0.926882 0.374939 0.017623
vn 0.926882 0.374939 0.017623
vn 0.390126 0.919829 0.041417
vn 0.376939 -0.631108 -0.677953
vn 0.921454 -0.264702 -0.284350
vn -0.921454 -0.264703 -0.284350
vn -0.376939 -0.631108 -0.677953
vn 0.385393 -0.843201 -0.374813
vn 0.925000 -0.347417 -0.153870
vn -0.925000 -0.347418 -0.153870
vn -0.385393 -0.843201 -0.374813
vn -0.372700 -0.689319 0.621236
vn 0.372700 -0.689319 0.621236
vn 0.000000 -0.380662 -0.924714
vn 0.000000 -0.380662 -0.924714
vn -0.998849 0.007071 -0.047450
s 1
g pCube2
usemtl initialShadingGroup
f 21/1/1 20/2/2 23/3/3 22/4/4
s 2
f 20/162/5 19/163/6 24/164/7 23/165/8
f 27/168/9 26/175/10 29/176/11 28/169/12
s 4
f 26/83/13 25/84/14 30/85/15 29/86/16
f 33/96/17 32/109/18 35/110/19 34/97/20
s 2
f 32/214/21 31/215/22 36/216/23 35/217/24
s 4
f 51/125/25 50/139/26 53/140/27 52/126/28
s 8
f 50/290/29 49/291/30 54/292/31 53/293/32
s 1
f 59/50/33 58/62/34 61/74/35 60/63/36
s 10
f 58/238/37 57/239/38 62/240/39 61/241/40
s 2
f 74/309/41 73/310/42 76/311/43 75/312/44
s 1
f 73/23/45 72/12/46 77/11/47 76/22/48
s 4
f 80/92/49 79/106/50 82/107/51 81/93/52
s 2
f 79/318/53 78/316/54 83/315/55 82/319/56
s 8
f 122/262/57 121/263/58 124/264/59 123/265/60
s 1
f 121/55/61 120/39/62 125/38/63 124/54/64
s 4
f 128/118/65 127/134/66 130/135/67 129/119/68
s 8
f 127/278/69 126/271/70 131/270/71 130/279/72
s 10
f 176/321/73 175/322/74 178/323/75 177/324/76
s 1
f 175/79/77 174/68/78 179/67/79 178/78/80
s 4
f 182/147/81 181/157/82 184/158/83 183/148/84
s 10
f 181/330/85 180/328/86 185/327/87 184/331/88
s 1
f 227/19/89 226/20/90 229/6/91 228/5/92
s 2
f 226/172/93 225/173/94 230/167/95 229/166/96
f 233/182/97 232/191/98 235/183/99 234/174/100
s 4
f 232/100/101 231/101/102 236/88/103 235/87/104
s 2
f 230/167/95 234/174/100 27/168/9 19/163/6
s 4
f 25/84/14 236/88/103 6/102/105 33/96/17
s 1
f 5/18/106 228/5/92 21/1/1 37/9/107
s 2
f 19/163/6 27/168/9 28/169/12 24/164/7
f 36/216/23 42/219/108 119/224/109 114/220/110
s 8
f 45/333/111 48/334/112 149/335/113 144/336/114
f 54/292/31 222/294/115 173/301/116 168/299/117
s 10
f 62/240/39 65/243/118 203/248/119 198/244/120
f 15/196/121 7/189/122 69/195/123 68/201/124
s 2
f 74/309/41 75/312/44 83/315/55 78/316/54
f 75/186/44 84/178/125 89/185/126 83/193/55
f 84/178/125 90/170/127 95/177/128 89/185/126
f 90/170/127 24/164/7 28/169/12 95/177/128
f 78/316/54 96/317/129 101/313/130 74/309/41
f 96/233/129 102/229/131 107/232/132 101/236/130
f 102/229/131 108/225/133 113/228/134 107/232/132
f 108/225/133 114/220/110 119/224/109 113/228/134
s 8
f 122/262/57 123/265/60 131/270/71 126/271/70
f 123/265/60 132/269/135 137/277/136 131/270/71
f 132/269/135 138/276/137 143/284/138 137/277/136
f 138/341/137 144/336/114 149/335/113 143/342/138
f 126/271/70 150/272/139 155/266/140 122/262/57
f 150/272/139 156/281/141 161/273/142 155/266/140
f 156/281/141 162/287/143 167/282/144 161/273/142
f 162/305/143 168/299/117 173/301/116 167/307/144
s 10
f 176/321/73 177/324/76 185/327/87 180/328/86
f 177/257/76 186/253/145 191/256/146 185/260/87
f 186/253/145 192/249/147 197/252/148 191/256/146
f 192/249/147 198/244/120 203/248/119 197/252/148
f 180/328/86 204/329/149 209/325/150 176/321/73
f 204/211/149 210/209/151 215/204/152 209/208/150
f 210/209/151 216/205/153 221/200/154 215/204/152
f 216/205/153 68/201/124 69/195/123 221/200/154
s 4
f 110/89/155 104/90/156 98/91/157 80/92/49 81/93/52 87/94/158 93/95/159 30/85/15 25/84/14 33/96/17 34/97/20 116/98/160
s 1
f 37/9/107 21/1/1 22/4/4 92/8/161 86/10/162 77/11/47 72/12/46 99/13/163 105/14/164 111/15/165 117/16/166 40/17/167
s 4
f 164/115/168 158/116/169 152/117/170 128/118/65 129/119/68 135/120/171 141/121/172 147/122/173 46/123/174 33/96/17 6/102/105 2/114/175 3/124/176 51/125/25 52/126/28 170/127/177
f 218/144/178 212/145/179 206/146/180 182/147/81 183/148/84 189/149/181 195/150/182 201/151/183 63/152/184 51/125/25 13/130/185 66/143/186
s 1
f 9/49/187 59/50/33 60/63/36 200/64/188 194/65/189 188/66/190 179/67/79 174/68/78 207/69/191 213/70/192 219/71/193 71/72/194
s 8
f 39/337/195 31/338/196 48/334/112 45/333/111
s 10
f 62/240/39 57/239/38 49/242/197 65/243/118
s 2
f 31/215/22 39/218/198 42/219/108 36/216/23
s 1
f 9/49/187 12/45/199 4/33/200 55/32/201 59/50/33
s 10
f 7/189/122 15/196/121 18/190/202 10/181/203
s 4
f 3/124/176 16/113/204 13/130/185 51/125/25
f 2/114/175 231/101/102 16/113/204 3/124/176
s 10
f 10/181/203 18/190/202 233/182/205 225/173/206
s 1
f 4/33/200 12/45/199 227/19/89 1/30/207
f 1/30/207 227/19/89 228/5/92 5/18/106
s 2
f 225/173/94 233/182/97 234/174/100 230/167/95
s 4
f 6/102/105 236/88/103 231/101/102 2/114/175
s 1
f 56/31/208 55/32/201 4/33/200 1/30/207 5/18/106 37/9/107 43/34/209 146/35/210 140/36/211 134/37/212 125/38/63 120/39/62 153/40/213 159/41/214 165/42/215 171/43/216 223/44/217
s 8
f 222/294/115 54/292/31 49/291/30 57/295/218 56/296/219 223/297/220 224/298/221
s 10
f 7/189/122 8/188/222 70/194/223 69/195/123
s 1
f 8/61/224 9/49/187 71/72/194 70/73/225
f 9/49/187 8/61/224 11/46/226 12/45/199
s 10
f 8/188/222 7/189/122 10/181/203 11/180/227
s 4
f 13/130/185 14/129/228 67/142/229 66/143/186
s 10
f 14/202/230 15/196/121 68/201/124 67/206/231
f 15/196/121 14/202/230 17/197/232 18/190/202
s 4
f 14/129/228 13/130/185 16/113/204 17/112/233
s 1
f 37/9/107 38/29/234 44/47/235 43/34/209
s 8
f 38/346/236 39/337/195 45/333/111 44/343/237
s 2
f 39/218/198 38/222/238 41/223/239 42/219/108
s 1
f 38/29/240 37/9/107 40/17/167 41/28/241
s 8
f 31/338/196 32/345/242 47/339/243 48/334/112
s 4
f 32/109/244 33/96/17 46/123/174 47/128/245
s 10
f 49/242/197 50/246/246 64/247/247 65/243/118
s 4
f 50/139/248 51/125/25 63/152/184 64/153/249
s 1
f 72/12/46 73/23/45 100/24/250 99/13/163
s 2
f 73/310/42 74/309/41 101/313/130 100/314/251
f 75/186/44 76/187/43 85/179/252 84/178/125
s 1
f 76/22/48 77/11/47 86/10/162 85/21/253
s 2
f 78/316/54 79/318/53 97/320/254 96/317/129
s 4
f 79/106/50 80/92/49 98/91/157 97/105/255
f 81/93/52 82/107/51 88/108/256 87/94/158
s 2
f 82/198/56 83/193/55 89/185/126 88/192/257
f 84/178/125 85/179/252 91/171/258 90/170/127
s 1
f 85/21/253 86/10/162 92/8/161 91/7/259
s 4
f 87/94/158 88/108/256 94/99/260 93/95/159
s 2
f 88/192/257 89/185/126 95/177/128 94/184/261
s 1
f 22/4/4 23/3/3 91/7/259 92/8/161
s 2
f 23/165/8 24/164/7 90/170/127 91/171/258
f 28/169/12 29/176/11 94/184/261 95/177/128
s 4
f 29/86/16 30/85/15 93/95/159 94/99/260
s 2
f 96/233/129 97/234/254 103/230/262 102/229/131
s 4
f 97/105/255 98/91/157 104/90/156 103/103/263
s 1
f 99/13/163 100/24/250 106/25/264 105/14/164
s 2
f 100/237/251 101/236/130 107/232/132 106/235/265
f 102/229/131 103/230/262 109/226/266 108/225/133
s 4
f 103/103/263 104/90/156 110/89/155 109/104/267
s 1
f 105/14/164 106/25/264 112/26/268 111/15/165
s 2
f 106/235/265 107/232/132 113/228/134 112/231/269
f 108/225/133 109/226/266 115/221/270 114/220/110
s 4
f 109/104/267 110/89/155 116/98/160 115/111/271
s 1
f 111/15/165 112/26/268 118/27/272 117/16/166
s 2
f 112/231/269 113/228/134 119/224/109 118/227/273
s 4
f 34/97/20 35/110/19 115/111/271 116/98/160
s 2
f 35/217/24 36/216/23 114/220/110 115/221/270
f 42/219/108 41/223/239 118/227/273 119/224/109
s 1
f 41/28/241 40/17/167 117/16/166 118/27/272
f 120/39/62 121/55/61 154/56/274 153/40/213
s 8
f 121/263/58 122/262/57 155/266/140 154/267/275
f 123/265/60 124/264/59 133/268/276 132/269/135
s 1
f 124/54/64 125/38/63 134/37/212 133/53/277
s 8
f 126/271/70 127/278/69 151/280/278 150/272/139
s 4
f 127/134/66 128/118/65 152/117/170 151/133/279
f 129/119/68 130/135/67 136/136/280 135/120/171
s 8
f 130/279/72 131/270/71 137/277/136 136/285/281
f 132/269/135 133/268/276 139/275/282 138/276/137
s 1
f 133/53/277 134/37/212 140/36/211 139/52/283
s 4
f 135/120/171 136/136/280 142/137/284 141/121/172
s 8
f 136/285/281 137/277/136 143/284/138 142/288/285
f 138/341/137 139/348/282 145/344/286 144/336/114
s 1
f 139/52/283 140/36/211 146/35/210 145/51/287
s 4
f 141/121/172 142/137/284 148/138/288 147/122/173
s 8
f 142/347/285 143/342/138 149/335/113 148/340/289
s 1
f 43/34/209 44/47/235 145/51/287 146/35/210
s 8
f 44/343/237 45/333/111 144/336/114 145/344/286
f 48/334/112 47/339/243 148/340/289 149/335/113
s 4
f 47/128/245 46/123/174 147/122/173 148/138/288
s 8
f 150/272/139 151/280/278 157/286/290 156/281/141
s 4
f 151/133/279 152/117/170 158/116/169 157/131/291
s 1
f 153/40/213 154/56/274 160/57/292 159/41/214
s 8
f 154/267/275 155/266/140 161/273/142 160/274/293
f 156/281/141 157/286/290 163/289/294 162/287/143
s 4
f 157/131/291 158/116/169 164/115/168 163/132/295
s 1
f 159/41/214 160/57/292 166/58/296 165/42/215
s 8
f 160/274/293 161/273/142 167/282/144 166/283/297
f 162/305/143 163/306/294 169/300/298 168/299/117
s 4
f 163/132/295 164/115/168 170/127/177 169/141/299
s 1
f 165/42/215 166/58/296 172/59/300 171/43/216
s 8
f 166/308/297 167/307/144 173/301/116 172/304/301
s 4
f 52/126/28 53/140/27 169/141/299 170/127/177
s 8
f 53/293/32 54/292/31 168/299/117 169/300/298
s 1
f 171/43/216 172/59/300 224/60/302 223/44/303
s 8
f 172/304/301 173/301/116 222/294/115 224/298/221
s 1
f 174/68/78 175/79/77 208/80/304 207/69/191
s 10
f 175/322/74 176/321/73 209/325/150 208/326/305
f 177/257/76 178/258/75 187/254/306 186/253/145
s 1
f 178/78/80 179/67/79 188/66/190 187/77/307
s 10
f 180/328/86 181/330/85 205/332/308 204/329/149
s 4
f 181/157/82 182/147/81 206/146/180 205/156/309
f 183/148/84 184/158/83 190/159/310 189/149/181
s 10
f 184/261/88 185/260/87 191/256/146 190/259/311
f 186/253/145 187/254/306 193/250/312 192/249/147
s 1
f 187/77/307 188/66/190 194/65/189 193/76/313
s 4
f 189/149/181 190/159/310 196/160/314 195/150/182
s 10
f 190/259/311 191/256/146 197/252/148 196/255/315
f 192/249/147 193/250/312 199/245/316 198/244/120
s 1
f 193/76/313 194/65/189 200/64/188 199/75/317
s 4
f 195/150/182 196/160/314 202/161/318 201/151/183
s 10
f 196/255/315 197/252/148 203/248/119 202/251/319
s 1
f 60/63/36 61/74/35 199/75/317 200/64/188
s 10
f 61/241/40 62/240/39 198/244/120 199/245/316
f 65/243/118 64/247/247 202/251/319 203/248/119
s 4
f 64/153/249 63/152/184 201/151/183 202/161/318
s 10
f 204/211/149 205/213/308 211/212/320 210/209/151
s 4
f 205/156/309 206/146/180 212/145/179 211/155/321
s 1
f 207/69/191 208/80/304 214/81/322 213/70/192
s 10
f 208/207/305 209/208/150 215/204/152 214/203/323
f 210/209/151 211/212/320 217/210/324 216/205/153
s 4
f 211/155/321 212/145/179 218/144/178 217/154/325
s 1
f 213/70/192 214/81/322 220/82/326 219/71/193
s 10
f 214/203/323 215/204/152 221/200/154 220/199/327
s 4
f 66/143/186 67/142/229 217/154/325 218/144/178
s 10
f 67/206/231 68/201/124 216/205/153 217/210/324
f 69/195/123 70/194/223 220/199/327 221/200/154
s 1
f 70/73/225 71/72/194 219/71/193 220/82/326
f 12/45/199 11/46/226 226/20/90 227/19/89
s 10
f 11/180/227 10/181/203 225/173/206 226/172/328
s 2
f 19/163/6 20/162/5 229/166/96 230/167/95
s 1
f 20/2/2 21/1/1 228/5/92 229/6/91
s 10
f 18/190/202 17/197/232 232/191/329 233/182/205
s 4
f 17/112/233 16/113/204 231/101/102 232/100/101
f 25/84/14 26/83/13 235/87/104 236/88/103
s 2
f 26/175/10 27/168/9 234/174/100 235/183/99
s 8
f 57/295/218 58/302/330 237/303/331 56/296/219
s 1
f 56/31/208 237/48/332 55/32/201
f 55/32/201 237/48/332 58/62/34 59/50/33
